{"glyphs":{"0":{"ha":833,"x_min":54,"x_max":779,"o":"m 415 -14 l 415 -14 q 223 47 304 -14 q 98 221 142 108 q 54 485 54 333 l 54 485 q 98 751 54 639 q 223 925 142 864 q 415 986 304 986 l 415 986 q 609 925 528 986 q 735 751 690 864 q 779 485 779 639 l 779 485 q 735 221 779 333 q 609 47 690 108 q 415 -14 528 -14 z m 415 88 l 415 88 q 554 133 497 88 q 642 267 611 178 q 672 485 672 356 l 672 485 q 642 704 672 615 q 554 839 611 793 q 415 885 497 885 l 415 885 q 280 839 336 885 q 193 704 224 793 q 163 485 163 615 l 163 485 q 193 267 163 356 q 280 133 224 178 q 415 88 336 88 z m 738 592 l 139 307 l 103 382 l 710 672 l 738 592 z "},"1":{"ha":833,"x_min":114,"x_max":742,"o":"m 476 42 l 365 42 l 365 867 l 390 835 l 114 699 l 114 806 l 476 972 l 476 42 z m 742 0 l 114 0 l 114 97 l 742 97 l 742 0 z "},"2":{"ha":833,"x_min":78,"x_max":733,"o":"m 733 0 l 96 0 l 354 286 q 480 431 431 371 q 556 533 529 490 q 594 612 583 576 q 604 683 604 647 l 604 683 q 579 793 604 747 q 508 863 554 839 q 397 888 463 888 l 397 888 q 299 864 347 888 q 220 792 251 840 q 189 669 189 744 l 189 669 l 78 679 q 106 816 78 758 q 181 911 135 874 q 284 967 228 949 q 397 986 340 986 l 397 986 q 566 949 496 986 q 673 844 636 911 q 710 688 710 778 l 710 688 q 696 591 710 638 q 650 493 682 544 q 566 378 618 442 q 436 226 514 314 l 436 226 l 296 68 l 272 97 l 733 97 l 733 0 z "},"3":{"ha":833,"x_min":54,"x_max":731,"o":"m 404 -14 l 404 -14 q 276 3 340 -14 q 156 54 213 19 q 54 143 99 89 l 54 143 l 131 221 q 257 118 183 149 q 396 88 331 88 l 396 88 q 510 113 460 88 q 591 183 561 139 q 621 283 621 228 l 621 283 q 562 414 621 365 q 396 463 503 463 l 396 463 l 251 463 l 546 897 l 564 875 l 111 875 l 111 972 l 649 972 l 722 972 l 382 481 l 349 539 l 408 539 q 646 467 561 539 q 731 268 731 396 l 731 268 q 689 125 731 189 q 574 24 647 61 q 404 -14 500 -14 z "},"4":{"ha":833,"x_min":18,"x_max":786,"o":"m 786 250 l 18 250 l 414 972 l 529 972 l 163 321 l 153 344 l 593 344 l 786 344 l 786 250 z m 651 0 l 544 0 l 544 285 l 544 713 l 651 713 l 651 0 z "},"5":{"ha":833,"x_min":51,"x_max":740,"o":"m 396 -14 l 396 -14 q 272 3 336 -14 q 151 55 208 19 q 51 143 93 90 l 51 143 l 129 221 q 257 118 182 149 q 394 88 332 88 l 394 88 q 565 149 497 88 q 632 318 632 211 l 632 318 q 572 478 632 419 q 418 536 513 536 l 418 536 q 299 506 351 536 q 218 411 246 475 l 218 411 l 114 425 l 136 972 l 733 972 l 733 875 l 219 875 l 239 921 l 222 510 l 225 508 q 322 594 261 565 q 454 622 382 622 l 454 622 q 603 585 539 622 q 703 479 667 547 q 740 321 740 411 l 740 321 q 697 144 740 219 q 576 27 653 68 q 396 -14 499 -14 z "},"6":{"ha":833,"x_min":83,"x_max":764,"o":"m 440 -14 l 440 -14 q 248 40 328 -14 q 126 203 168 94 q 83 474 83 311 l 83 474 q 111 690 83 594 q 192 851 139 785 q 320 951 244 917 q 492 986 396 986 l 492 986 q 632 965 565 986 q 747 903 699 943 l 747 903 l 685 824 q 595 870 646 854 q 489 886 544 886 l 489 886 q 267 776 347 886 q 188 467 188 665 l 188 467 q 188 433 188 450 q 190 393 189 417 q 193 331 192 369 l 193 331 l 165 446 l 192 446 q 253 547 213 506 q 350 611 294 589 q 468 633 406 633 l 468 633 q 621 592 554 633 q 726 478 688 551 q 764 311 764 406 l 764 311 q 724 140 764 214 q 610 26 683 67 q 440 -14 538 -14 z m 443 85 l 443 85 q 558 112 511 85 q 631 189 606 139 q 656 310 656 239 l 656 310 q 630 431 656 381 q 556 509 604 482 q 440 536 508 536 l 440 536 q 323 509 372 536 q 247 431 274 482 q 219 310 219 381 l 219 310 q 247 189 219 239 q 324 112 274 139 q 443 85 374 85 z "},"7":{"ha":833,"x_min":122,"x_max":760,"o":"m 342 0 l 215 0 l 615 903 l 617 875 l 122 875 l 122 972 l 760 972 l 342 0 z "},"8":{"ha":833,"x_min":72,"x_max":761,"o":"m 417 -14 l 417 -14 q 236 20 314 -14 q 115 115 158 54 q 72 253 72 175 l 72 253 q 128 414 72 347 q 274 504 183 481 l 274 504 l 274 507 q 153 593 199 532 q 107 739 107 654 l 107 739 q 146 870 107 815 q 255 956 185 925 q 415 986 325 986 l 415 986 q 576 956 507 986 q 685 871 646 926 q 725 739 725 815 l 725 739 q 679 592 725 654 q 558 507 633 531 l 558 507 l 558 504 q 706 414 650 481 q 761 253 761 347 l 761 253 q 718 115 761 175 q 598 20 675 54 q 417 -14 521 -14 z m 417 83 l 417 83 q 589 133 525 83 q 653 268 653 182 l 653 268 q 589 403 653 354 q 417 453 525 453 l 417 453 q 244 403 308 453 q 181 268 181 354 l 181 268 q 244 133 181 182 q 417 83 308 83 z m 417 551 l 417 551 q 564 597 511 551 q 617 722 617 642 l 617 722 q 564 844 617 800 q 417 889 511 889 l 417 889 q 269 844 324 889 q 215 722 215 800 l 215 722 q 269 597 215 642 q 417 551 324 551 z "},"9":{"ha":833,"x_min":69,"x_max":750,"o":"m 342 -14 l 342 -14 q 202 8 269 -14 q 86 69 135 31 l 86 69 l 149 149 q 239 102 189 118 q 344 86 289 86 l 344 86 q 566 197 486 86 q 646 506 646 308 l 646 506 q 645 540 646 524 q 644 579 644 556 q 640 642 643 603 l 640 642 l 668 526 l 642 526 q 581 426 622 468 q 483 361 539 383 q 365 339 428 339 l 365 339 q 213 380 281 339 q 108 494 146 421 q 69 661 69 567 l 69 661 q 110 833 69 760 q 223 946 150 906 q 393 986 296 986 l 393 986 q 586 932 507 986 q 708 770 665 878 q 750 499 750 663 l 750 499 q 722 283 750 378 q 642 122 694 188 q 513 21 589 56 q 342 -14 438 -14 z m 393 436 l 393 436 q 510 463 461 436 q 587 541 560 490 q 614 663 614 592 l 614 663 q 587 784 614 733 q 510 861 560 835 q 390 888 460 888 l 390 888 q 276 861 324 888 q 203 784 228 835 q 178 663 178 733 l 178 663 q 203 541 178 592 q 277 463 229 490 q 393 436 325 436 z "},"A":{"ha":924,"x_min":25,"x_max":899,"o":"m 136 0 l 25 0 l 396 972 l 528 972 l 899 0 l 785 0 l 454 885 l 467 885 l 136 0 z m 743 300 l 194 300 l 226 399 l 706 399 l 743 300 z "},"Á":{"ha":924,"x_min":25,"x_max":899,"o":"m 136 0 l 25 0 l 396 972 l 528 972 l 899 0 l 785 0 l 454 885 l 467 885 l 136 0 z m 743 300 l 194 300 l 226 399 l 706 399 l 743 300 z m 504 1060 l 408 1060 l 497 1193 l 656 1193 l 504 1060 z "},"Ă":{"ha":924,"x_min":25,"x_max":899,"o":"m 136 0 l 25 0 l 396 972 l 528 972 l 899 0 l 785 0 l 454 885 l 467 885 l 136 0 z m 743 300 l 194 300 l 226 399 l 706 399 l 743 300 z m 463 1053 l 463 1053 q 365 1065 410 1053 q 294 1108 321 1078 q 267 1193 267 1139 l 267 1193 l 364 1193 q 387 1144 364 1160 q 463 1129 410 1129 l 463 1129 q 540 1144 517 1129 q 563 1193 563 1160 l 563 1193 l 658 1193 q 631 1108 658 1139 q 560 1065 604 1078 q 463 1053 515 1053 z "},"Ǎ":{"ha":924,"x_min":25,"x_max":899,"o":"m 136 0 l 25 0 l 396 972 l 528 972 l 899 0 l 785 0 l 454 885 l 467 885 l 136 0 z m 743 300 l 194 300 l 226 399 l 706 399 l 743 300 z m 514 1060 l 410 1060 l 258 1193 l 365 1193 l 493 1111 l 432 1111 l 560 1193 l 667 1193 l 514 1060 z "},"Â":{"ha":924,"x_min":25,"x_max":899,"o":"m 136 0 l 25 0 l 396 972 l 528 972 l 899 0 l 785 0 l 454 885 l 467 885 l 136 0 z m 743 300 l 194 300 l 226 399 l 706 399 l 743 300 z m 365 1060 l 258 1060 l 410 1193 l 514 1193 l 667 1060 l 560 1060 l 432 1142 l 493 1142 l 365 1060 z "},"Ä":{"ha":924,"x_min":25,"x_max":899,"o":"m 136 0 l 25 0 l 396 972 l 528 972 l 899 0 l 785 0 l 454 885 l 467 885 l 136 0 z m 743 300 l 194 300 l 226 399 l 706 399 l 743 300 z m 657 1060 l 543 1060 l 543 1164 l 657 1164 l 657 1060 z m 381 1060 l 267 1060 l 267 1164 l 381 1164 l 381 1060 z "},"À":{"ha":924,"x_min":25,"x_max":899,"o":"m 136 0 l 25 0 l 396 972 l 528 972 l 899 0 l 785 0 l 454 885 l 467 885 l 136 0 z m 743 300 l 194 300 l 226 399 l 706 399 l 743 300 z m 517 1060 l 421 1060 l 269 1193 l 428 1193 l 517 1060 z "},"Ā":{"ha":924,"x_min":25,"x_max":899,"o":"m 136 0 l 25 0 l 396 972 l 528 972 l 899 0 l 785 0 l 454 885 l 467 885 l 136 0 z m 743 300 l 194 300 l 226 399 l 706 399 l 743 300 z m 640 1079 l 285 1079 l 285 1167 l 640 1167 l 640 1079 z "},"Ą":{"ha":924,"x_min":25,"x_max":899,"o":"m 136 0 l 25 0 l 396 972 l 528 972 l 899 0 l 785 0 l 454 885 l 467 885 l 136 0 z m 743 300 l 194 300 l 226 399 l 706 399 l 743 300 z m 849 -292 l 726 -292 q 674 -281 696 -292 q 641 -251 651 -271 q 634 -206 631 -232 q 656 -150 638 -181 l 656 -150 l 776 43 l 849 0 l 703 -240 l 693 -208 l 849 -208 l 849 -292 z "},"Å":{"ha":924,"x_min":25,"x_max":899,"o":"m 136 0 l 25 0 l 396 972 l 528 972 l 899 0 l 785 0 l 454 885 l 467 885 l 136 0 z m 743 300 l 194 300 l 226 399 l 706 399 l 743 300 z m 463 1026 l 463 1026 q 362 1057 400 1026 q 324 1139 324 1088 l 324 1139 q 362 1221 324 1190 q 463 1251 400 1251 l 463 1251 q 563 1221 525 1251 q 601 1139 601 1190 l 601 1139 q 563 1057 601 1088 q 463 1026 525 1026 z m 463 1082 l 463 1082 q 526 1139 526 1082 l 526 1139 q 463 1194 526 1194 l 463 1194 q 399 1139 399 1194 l 399 1139 q 463 1082 399 1082 z "},"Ã":{"ha":924,"x_min":25,"x_max":899,"o":"m 136 0 l 25 0 l 396 972 l 528 972 l 899 0 l 785 0 l 454 885 l 467 885 l 136 0 z m 743 300 l 194 300 l 226 399 l 706 399 l 743 300 z m 556 1042 l 556 1042 q 478 1061 510 1042 q 423 1099 446 1081 q 379 1118 400 1118 l 379 1118 q 349 1107 361 1118 q 325 1064 336 1096 l 325 1064 l 249 1064 q 271 1139 256 1108 q 311 1186 286 1169 q 372 1203 336 1203 l 372 1203 q 448 1184 417 1203 q 504 1147 479 1165 q 550 1128 529 1128 l 550 1128 q 582 1140 569 1128 q 606 1186 594 1151 l 606 1186 l 681 1186 q 639 1075 671 1108 q 556 1042 607 1042 z "},"Æ":{"ha":1333,"x_min":-18,"x_max":1282,"o":"m 103 0 l -18 0 l 593 972 l 1269 972 l 1269 868 l 713 868 l 760 928 l 760 44 l 713 104 l 1282 104 l 1282 0 l 647 0 l 647 910 l 672 910 l 103 0 z m 1094 456 l 746 456 l 746 560 l 1094 560 l 1094 456 z m 703 300 l 256 300 l 315 399 l 703 399 l 703 300 z "},"Ǽ":{"ha":1333,"x_min":-18,"x_max":1282,"o":"m 103 0 l -18 0 l 593 972 l 1269 972 l 1269 868 l 713 868 l 760 928 l 760 44 l 713 104 l 1282 104 l 1282 0 l 647 0 l 647 910 l 672 910 l 103 0 z m 1094 456 l 746 456 l 746 560 l 1094 560 l 1094 456 z m 703 300 l 256 300 l 315 399 l 703 399 l 703 300 z m 974 1060 l 878 1060 l 967 1193 l 1125 1193 l 974 1060 z "},"B":{"ha":906,"x_min":131,"x_max":838,"o":"m 517 0 l 131 0 l 131 972 l 504 972 q 717 911 646 972 q 789 743 789 850 l 789 743 q 738 594 789 653 q 593 517 688 535 l 593 517 l 593 514 q 774 438 711 500 q 838 272 838 375 l 838 272 q 801 126 838 188 q 693 33 764 65 q 517 0 622 0 l 517 0 z m 242 928 l 242 44 l 196 104 l 507 104 q 668 151 617 104 q 719 278 719 197 l 719 278 q 672 399 719 354 q 532 443 625 443 l 532 443 l 199 443 l 199 546 l 518 546 q 632 589 592 546 q 672 713 672 632 l 672 713 q 626 831 672 794 q 489 868 581 868 l 489 868 l 196 868 l 242 928 z "},"C":{"ha":932,"x_min":72,"x_max":879,"o":"m 518 -14 l 518 -14 q 279 50 379 -14 q 126 226 179 114 q 72 485 72 339 l 72 485 q 126 745 72 632 q 279 922 179 858 q 518 986 379 986 l 518 986 q 738 931 646 986 q 878 778 831 875 l 878 778 l 779 732 q 678 842 744 803 q 518 882 611 882 l 518 882 q 340 832 414 882 q 228 693 267 782 q 190 485 190 604 l 190 485 q 228 278 190 367 q 340 140 267 189 q 518 90 414 90 l 518 90 q 679 131 613 90 q 781 243 746 171 l 781 243 l 879 197 q 740 43 832 100 q 518 -14 647 -14 z "},"Ć":{"ha":932,"x_min":72,"x_max":879,"o":"m 518 -14 l 518 -14 q 279 50 379 -14 q 126 226 179 114 q 72 485 72 339 l 72 485 q 126 745 72 632 q 279 922 179 858 q 518 986 379 986 l 518 986 q 738 931 646 986 q 878 778 831 875 l 878 778 l 779 732 q 678 842 744 803 q 518 882 611 882 l 518 882 q 340 832 414 882 q 228 693 267 782 q 190 485 190 604 l 190 485 q 228 278 190 367 q 340 140 267 189 q 518 90 414 90 l 518 90 q 679 131 613 90 q 781 243 746 171 l 781 243 l 879 197 q 740 43 832 100 q 518 -14 647 -14 z m 556 1060 l 460 1060 l 549 1193 l 707 1193 l 556 1060 z "},"Č":{"ha":932,"x_min":72,"x_max":879,"o":"m 518 -14 l 518 -14 q 279 50 379 -14 q 126 226 179 114 q 72 485 72 339 l 72 485 q 126 745 72 632 q 279 922 179 858 q 518 986 379 986 l 518 986 q 738 931 646 986 q 878 778 831 875 l 878 778 l 779 732 q 678 842 744 803 q 518 882 611 882 l 518 882 q 340 832 414 882 q 228 693 267 782 q 190 485 190 604 l 190 485 q 228 278 190 367 q 340 140 267 189 q 518 90 414 90 l 518 90 q 679 131 613 90 q 781 243 746 171 l 781 243 l 879 197 q 740 43 832 100 q 518 -14 647 -14 z m 565 1060 l 461 1060 l 310 1193 l 417 1193 l 544 1111 l 483 1111 l 611 1193 l 718 1193 l 565 1060 z "},"Ç":{"ha":932,"x_min":72,"x_max":879,"o":"m 518 -14 l 518 -14 q 279 50 379 -14 q 126 226 179 114 q 72 485 72 339 l 72 485 q 126 745 72 632 q 279 922 179 858 q 518 986 379 986 l 518 986 q 738 931 646 986 q 878 778 831 875 l 878 778 l 779 732 q 678 842 744 803 q 518 882 611 882 l 518 882 q 340 832 414 882 q 228 693 267 782 q 190 485 190 604 l 190 485 q 228 278 190 367 q 340 140 267 189 q 518 90 414 90 l 518 90 q 679 131 613 90 q 781 243 746 171 l 781 243 l 879 197 q 740 43 832 100 q 518 -14 647 -14 z m 497 -292 l 382 -292 l 382 -214 l 508 -214 q 549 -206 536 -214 q 563 -179 563 -197 l 563 -179 q 549 -151 563 -160 q 508 -143 536 -143 l 508 -143 l 438 -143 l 471 13 l 568 13 l 540 -121 l 503 -83 l 525 -83 q 629 -110 597 -83 q 661 -179 661 -137 l 661 -179 q 616 -261 661 -231 q 497 -292 571 -292 l 497 -292 z "},"Ĉ":{"ha":932,"x_min":72,"x_max":879,"o":"m 518 -14 l 518 -14 q 279 50 379 -14 q 126 226 179 114 q 72 485 72 339 l 72 485 q 126 745 72 632 q 279 922 179 858 q 518 986 379 986 l 518 986 q 738 931 646 986 q 878 778 831 875 l 878 778 l 779 732 q 678 842 744 803 q 518 882 611 882 l 518 882 q 340 832 414 882 q 228 693 267 782 q 190 485 190 604 l 190 485 q 228 278 190 367 q 340 140 267 189 q 518 90 414 90 l 518 90 q 679 131 613 90 q 781 243 746 171 l 781 243 l 879 197 q 740 43 832 100 q 518 -14 647 -14 z m 417 1060 l 310 1060 l 461 1193 l 565 1193 l 718 1060 l 611 1060 l 483 1142 l 544 1142 l 417 1060 z "},"Ċ":{"ha":932,"x_min":72,"x_max":879,"o":"m 518 -14 l 518 -14 q 279 50 379 -14 q 126 226 179 114 q 72 485 72 339 l 72 485 q 126 745 72 632 q 279 922 179 858 q 518 986 379 986 l 518 986 q 738 931 646 986 q 878 778 831 875 l 878 778 l 779 732 q 678 842 744 803 q 518 882 611 882 l 518 882 q 340 832 414 882 q 228 693 267 782 q 190 485 190 604 l 190 485 q 228 278 190 367 q 340 140 267 189 q 518 90 414 90 l 518 90 q 679 131 613 90 q 781 243 746 171 l 781 243 l 879 197 q 740 43 832 100 q 518 -14 647 -14 z m 571 1060 l 457 1060 l 457 1164 l 571 1164 l 571 1060 z "},"D":{"ha":1008,"x_min":131,"x_max":936,"o":"m 440 0 l 131 0 l 131 972 l 440 972 q 703 915 592 972 q 875 749 814 857 q 936 488 936 640 l 936 488 q 875 226 936 335 q 703 58 814 117 q 440 0 592 0 l 440 0 z m 242 925 l 242 47 l 196 104 l 454 104 q 645 150 564 104 q 772 282 726 196 q 818 488 818 368 l 818 488 q 772 692 818 607 q 645 823 726 778 q 454 868 564 868 l 454 868 l 196 868 l 242 925 z "},"Ď":{"ha":1008,"x_min":131,"x_max":936,"o":"m 440 0 l 131 0 l 131 972 l 440 972 q 703 915 592 972 q 875 749 814 857 q 936 488 936 640 l 936 488 q 875 226 936 335 q 703 58 814 117 q 440 0 592 0 l 440 0 z m 242 925 l 242 47 l 196 104 l 454 104 q 645 150 564 104 q 772 282 726 196 q 818 488 818 368 l 818 488 q 772 692 818 607 q 645 823 726 778 q 454 868 564 868 l 454 868 l 196 868 l 242 925 z m 544 1060 l 440 1060 l 289 1193 l 396 1193 l 524 1111 l 463 1111 l 590 1193 l 697 1193 l 544 1060 z "},"Đ":{"ha":1044,"x_min":54,"x_max":972,"o":"m 546 442 l 54 442 l 54 529 l 546 529 l 546 442 z m 476 0 l 167 0 l 167 972 l 476 972 q 739 915 628 972 q 911 749 850 857 q 972 488 972 640 l 972 488 q 911 226 972 335 q 739 58 850 117 q 476 0 628 0 l 476 0 z m 278 925 l 278 47 l 232 104 l 490 104 q 681 150 600 104 q 808 282 763 196 q 854 488 854 368 l 854 488 q 808 692 854 607 q 681 823 763 778 q 490 868 600 868 l 490 868 l 232 868 l 278 925 z "},"Ð":{"ha":1044,"x_min":54,"x_max":972,"o":"m 546 442 l 54 442 l 54 529 l 546 529 l 546 442 z m 476 0 l 167 0 l 167 972 l 476 972 q 739 915 628 972 q 911 749 850 857 q 972 488 972 640 l 972 488 q 911 226 972 335 q 739 58 850 117 q 476 0 628 0 l 476 0 z m 278 925 l 278 47 l 232 104 l 490 104 q 681 150 600 104 q 808 282 763 196 q 854 488 854 368 l 854 488 q 808 692 854 607 q 681 823 763 778 q 490 868 600 868 l 490 868 l 232 868 l 278 925 z "},"E":{"ha":869,"x_min":131,"x_max":818,"o":"m 806 868 l 196 868 l 242 929 l 242 43 l 196 104 l 818 104 l 818 0 l 131 0 l 131 972 l 806 972 l 806 868 z m 631 456 l 186 456 l 186 560 l 631 560 l 631 456 z "},"É":{"ha":869,"x_min":131,"x_max":818,"o":"m 806 868 l 196 868 l 242 929 l 242 43 l 196 104 l 818 104 l 818 0 l 131 0 l 131 972 l 806 972 l 806 868 z m 631 456 l 186 456 l 186 560 l 631 560 l 631 456 z m 510 1060 l 414 1060 l 503 1193 l 661 1193 l 510 1060 z "},"Ĕ":{"ha":869,"x_min":131,"x_max":818,"o":"m 806 868 l 196 868 l 242 929 l 242 43 l 196 104 l 818 104 l 818 0 l 131 0 l 131 972 l 806 972 l 806 868 z m 631 456 l 186 456 l 186 560 l 631 560 l 631 456 z m 468 1053 l 468 1053 q 371 1065 415 1053 q 299 1108 326 1078 q 272 1193 272 1139 l 272 1193 l 369 1193 q 392 1144 369 1160 q 468 1129 415 1129 l 468 1129 q 545 1144 522 1129 q 568 1193 568 1160 l 568 1193 l 664 1193 q 637 1108 664 1139 q 565 1065 610 1078 q 468 1053 521 1053 z "},"Ě":{"ha":869,"x_min":131,"x_max":818,"o":"m 806 868 l 196 868 l 242 929 l 242 43 l 196 104 l 818 104 l 818 0 l 131 0 l 131 972 l 806 972 l 806 868 z m 631 456 l 186 456 l 186 560 l 631 560 l 631 456 z m 519 1060 l 415 1060 l 264 1193 l 371 1193 l 499 1111 l 438 1111 l 565 1193 l 672 1193 l 519 1060 z "},"Ê":{"ha":869,"x_min":131,"x_max":818,"o":"m 806 868 l 196 868 l 242 929 l 242 43 l 196 104 l 818 104 l 818 0 l 131 0 l 131 972 l 806 972 l 806 868 z m 631 456 l 186 456 l 186 560 l 631 560 l 631 456 z m 371 1060 l 264 1060 l 415 1193 l 519 1193 l 672 1060 l 565 1060 l 438 1142 l 499 1142 l 371 1060 z "},"Ë":{"ha":869,"x_min":131,"x_max":818,"o":"m 806 868 l 196 868 l 242 929 l 242 43 l 196 104 l 818 104 l 818 0 l 131 0 l 131 972 l 806 972 l 806 868 z m 631 456 l 186 456 l 186 560 l 631 560 l 631 456 z m 663 1060 l 549 1060 l 549 1164 l 663 1164 l 663 1060 z m 386 1060 l 272 1060 l 272 1164 l 386 1164 l 386 1060 z "},"Ė":{"ha":869,"x_min":131,"x_max":818,"o":"m 806 868 l 196 868 l 242 929 l 242 43 l 196 104 l 818 104 l 818 0 l 131 0 l 131 972 l 806 972 l 806 868 z m 631 456 l 186 456 l 186 560 l 631 560 l 631 456 z m 525 1060 l 411 1060 l 411 1164 l 525 1164 l 525 1060 z "},"È":{"ha":869,"x_min":131,"x_max":818,"o":"m 806 868 l 196 868 l 242 929 l 242 43 l 196 104 l 818 104 l 818 0 l 131 0 l 131 972 l 806 972 l 806 868 z m 631 456 l 186 456 l 186 560 l 631 560 l 631 456 z m 522 1060 l 426 1060 l 275 1193 l 433 1193 l 522 1060 z "},"Ē":{"ha":869,"x_min":131,"x_max":818,"o":"m 806 868 l 196 868 l 242 929 l 242 43 l 196 104 l 818 104 l 818 0 l 131 0 l 131 972 l 806 972 l 806 868 z m 631 456 l 186 456 l 186 560 l 631 560 l 631 456 z m 646 1079 l 290 1079 l 290 1167 l 646 1167 l 646 1079 z "},"Ę":{"ha":869,"x_min":131,"x_max":818,"o":"m 806 868 l 196 868 l 242 929 l 242 43 l 196 104 l 818 104 l 818 0 l 131 0 l 131 972 l 806 972 l 806 868 z m 631 456 l 186 456 l 186 560 l 631 560 l 631 456 z m 818 -292 l 696 -292 q 643 -281 665 -292 q 610 -251 621 -271 q 603 -206 600 -232 q 625 -150 607 -181 l 625 -150 l 746 43 l 818 0 l 672 -240 l 663 -208 l 818 -208 l 818 -292 z "},"Ẽ":{"ha":869,"x_min":131,"x_max":818,"o":"m 806 868 l 196 868 l 242 929 l 242 43 l 196 104 l 818 104 l 818 0 l 131 0 l 131 972 l 806 972 l 806 868 z m 631 456 l 186 456 l 186 560 l 631 560 l 631 456 z m 561 1042 l 561 1042 q 483 1061 515 1042 q 428 1099 451 1081 q 385 1118 406 1118 l 385 1118 q 354 1107 367 1118 q 331 1064 342 1096 l 331 1064 l 254 1064 q 276 1139 261 1108 q 317 1186 292 1169 q 378 1203 342 1203 l 378 1203 q 453 1184 422 1203 q 510 1147 485 1165 q 556 1128 535 1128 l 556 1128 q 588 1140 575 1128 q 611 1186 600 1151 l 611 1186 l 686 1186 q 644 1075 676 1108 q 561 1042 613 1042 z "},"Ə":{"ha":992,"x_min":63,"x_max":918,"o":"m 488 -14 l 488 -14 q 265 43 361 -14 q 116 204 169 100 q 63 449 63 308 l 63 449 l 63 489 l 847 489 l 847 389 l 151 389 l 176 408 q 216 238 176 308 q 326 128 256 167 q 488 90 396 90 l 488 90 q 660 136 590 90 q 765 272 729 182 q 800 490 800 361 l 800 490 q 768 694 800 606 q 667 832 736 782 q 488 882 599 882 l 488 882 q 308 838 386 882 q 189 714 231 794 l 189 714 l 96 771 q 251 928 147 869 q 488 986 356 986 l 488 986 q 726 924 631 986 q 869 750 821 861 q 918 490 918 639 l 918 490 q 866 223 918 336 q 717 48 814 110 q 488 -14 621 -14 z "},"F":{"ha":821,"x_min":131,"x_max":792,"o":"m 242 0 l 131 0 l 131 972 l 792 972 l 792 868 l 196 868 l 242 929 l 242 0 z m 649 418 l 190 418 l 190 522 l 649 522 l 649 418 z "},"G":{"ha":994,"x_min":72,"x_max":906,"o":"m 485 -14 l 485 -14 q 268 47 361 -14 q 124 221 175 108 q 72 485 72 333 l 72 485 q 128 746 72 633 q 288 922 183 858 q 539 986 392 986 l 539 986 q 753 935 660 986 q 893 797 846 885 l 893 797 l 797 739 q 699 843 764 804 q 540 882 635 882 l 540 882 q 346 833 424 882 q 229 694 268 783 q 190 485 190 606 l 190 485 q 226 274 190 363 q 330 138 261 185 q 499 90 399 90 l 499 90 q 655 128 588 90 q 760 246 722 167 q 793 449 797 325 l 793 449 l 840 406 l 485 406 l 485 506 l 906 506 l 906 0 l 799 0 l 799 193 l 792 193 q 727 83 771 129 q 622 11 683 36 q 485 -14 560 -14 z "},"Ğ":{"ha":994,"x_min":72,"x_max":906,"o":"m 485 -14 l 485 -14 q 268 47 361 -14 q 124 221 175 108 q 72 485 72 333 l 72 485 q 128 746 72 633 q 288 922 183 858 q 539 986 392 986 l 539 986 q 753 935 660 986 q 893 797 846 885 l 893 797 l 797 739 q 699 843 764 804 q 540 882 635 882 l 540 882 q 346 833 424 882 q 229 694 268 783 q 190 485 190 606 l 190 485 q 226 274 190 363 q 330 138 261 185 q 499 90 399 90 l 499 90 q 655 128 588 90 q 760 246 722 167 q 793 449 797 325 l 793 449 l 840 406 l 485 406 l 485 506 l 906 506 l 906 0 l 799 0 l 799 193 l 792 193 q 727 83 771 129 q 622 11 683 36 q 485 -14 560 -14 z m 522 1053 l 522 1053 q 425 1065 469 1053 q 353 1108 381 1078 q 326 1193 326 1139 l 326 1193 l 424 1193 q 447 1144 424 1160 q 522 1129 469 1129 l 522 1129 q 599 1144 576 1129 q 622 1193 622 1160 l 622 1193 l 718 1193 q 691 1108 718 1139 q 619 1065 664 1078 q 522 1053 575 1053 z "},"Ĝ":{"ha":994,"x_min":72,"x_max":906,"o":"m 485 -14 l 485 -14 q 268 47 361 -14 q 124 221 175 108 q 72 485 72 333 l 72 485 q 128 746 72 633 q 288 922 183 858 q 539 986 392 986 l 539 986 q 753 935 660 986 q 893 797 846 885 l 893 797 l 797 739 q 699 843 764 804 q 540 882 635 882 l 540 882 q 346 833 424 882 q 229 694 268 783 q 190 485 190 606 l 190 485 q 226 274 190 363 q 330 138 261 185 q 499 90 399 90 l 499 90 q 655 128 588 90 q 760 246 722 167 q 793 449 797 325 l 793 449 l 840 406 l 485 406 l 485 506 l 906 506 l 906 0 l 799 0 l 799 193 l 792 193 q 727 83 771 129 q 622 11 683 36 q 485 -14 560 -14 z m 425 1060 l 318 1060 l 469 1193 l 574 1193 l 726 1060 l 619 1060 l 492 1142 l 553 1142 l 425 1060 z "},"Ģ":{"ha":994,"x_min":72,"x_max":906,"o":"m 485 -14 l 485 -14 q 268 47 361 -14 q 124 221 175 108 q 72 485 72 333 l 72 485 q 128 746 72 633 q 288 922 183 858 q 539 986 392 986 l 539 986 q 753 935 660 986 q 893 797 846 885 l 893 797 l 797 739 q 699 843 764 804 q 540 882 635 882 l 540 882 q 346 833 424 882 q 229 694 268 783 q 190 485 190 606 l 190 485 q 226 274 190 363 q 330 138 261 185 q 499 90 399 90 l 499 90 q 655 128 588 90 q 760 246 722 167 q 793 449 797 325 l 793 449 l 840 406 l 485 406 l 485 506 l 906 506 l 906 0 l 799 0 l 799 193 l 792 193 q 727 83 771 129 q 622 11 683 36 q 485 -14 560 -14 z m 456 -292 l 433 -292 l 433 -239 l 497 -239 l 497 -115 l 540 -183 l 436 -183 l 436 -92 l 564 -92 l 564 -200 q 559 -242 564 -221 q 531 -278 554 -264 q 456 -292 508 -292 l 456 -292 z "},"Ġ":{"ha":994,"x_min":72,"x_max":906,"o":"m 485 -14 l 485 -14 q 268 47 361 -14 q 124 221 175 108 q 72 485 72 333 l 72 485 q 128 746 72 633 q 288 922 183 858 q 539 986 392 986 l 539 986 q 753 935 660 986 q 893 797 846 885 l 893 797 l 797 739 q 699 843 764 804 q 540 882 635 882 l 540 882 q 346 833 424 882 q 229 694 268 783 q 190 485 190 606 l 190 485 q 226 274 190 363 q 330 138 261 185 q 499 90 399 90 l 499 90 q 655 128 588 90 q 760 246 722 167 q 793 449 797 325 l 793 449 l 840 406 l 485 406 l 485 506 l 906 506 l 906 0 l 799 0 l 799 193 l 792 193 q 727 83 771 129 q 622 11 683 36 q 485 -14 560 -14 z m 579 1060 l 465 1060 l 465 1164 l 579 1164 l 579 1060 z "},"H":{"ha":1010,"x_min":131,"x_max":879,"o":"m 879 0 l 768 0 l 768 972 l 879 972 l 879 0 z m 242 0 l 131 0 l 131 972 l 242 972 l 242 0 z m 817 443 l 186 443 l 186 547 l 817 547 l 817 443 z "},"Ħ":{"ha":1063,"x_min":47,"x_max":1015,"o":"m 1015 714 l 47 714 l 47 794 l 1015 794 l 1015 714 z m 906 0 l 794 0 l 794 972 l 906 972 l 906 0 z m 268 0 l 157 0 l 157 972 l 268 972 l 268 0 z m 843 415 l 213 415 l 213 519 l 843 519 l 843 415 z "},"Ĥ":{"ha":1010,"x_min":131,"x_max":879,"o":"m 879 0 l 768 0 l 768 972 l 879 972 l 879 0 z m 242 0 l 131 0 l 131 972 l 242 972 l 242 0 z m 817 443 l 186 443 l 186 547 l 817 547 l 817 443 z m 408 1060 l 301 1060 l 453 1193 l 557 1193 l 710 1060 l 603 1060 l 475 1142 l 536 1142 l 408 1060 z "},"I":{"ha":372,"x_min":131,"x_max":242,"o":"m 242 0 l 131 0 l 131 972 l 242 972 l 242 0 z "},"Í":{"ha":372,"x_min":131,"x_max":379,"o":"m 242 0 l 131 0 l 131 972 l 242 972 l 242 0 z m 228 1060 l 132 1060 l 221 1193 l 379 1193 l 228 1060 z "},"Ĭ":{"ha":372,"x_min":-10,"x_max":382,"o":"m 242 0 l 131 0 l 131 972 l 242 972 l 242 0 z m 186 1053 l 186 1053 q 89 1065 133 1053 q 17 1108 44 1078 q -10 1193 -10 1139 l -10 1193 l 88 1193 q 110 1144 88 1160 q 186 1129 133 1129 l 186 1129 q 263 1144 240 1129 q 286 1193 286 1160 l 286 1193 l 382 1193 q 355 1108 382 1139 q 283 1065 328 1078 q 186 1053 239 1053 z "},"Î":{"ha":372,"x_min":-18,"x_max":390,"o":"m 242 0 l 131 0 l 131 972 l 242 972 l 242 0 z m 89 1060 l -18 1060 l 133 1193 l 238 1193 l 390 1060 l 283 1060 l 156 1142 l 217 1142 l 89 1060 z "},"Ï":{"ha":372,"x_min":-10,"x_max":381,"o":"m 242 0 l 131 0 l 131 972 l 242 972 l 242 0 z m 381 1060 l 267 1060 l 267 1164 l 381 1164 l 381 1060 z m 104 1060 l -10 1060 l -10 1164 l 104 1164 l 104 1060 z "},"İ":{"ha":372,"x_min":129,"x_max":243,"o":"m 242 0 l 131 0 l 131 972 l 242 972 l 242 0 z m 243 1060 l 129 1060 l 129 1164 l 243 1164 l 243 1060 z "},"Ì":{"ha":372,"x_min":-7,"x_max":242,"o":"m 242 0 l 131 0 l 131 972 l 242 972 l 242 0 z m 240 1060 l 144 1060 l -7 1193 l 151 1193 l 240 1060 z "},"Ī":{"ha":372,"x_min":8,"x_max":364,"o":"m 242 0 l 131 0 l 131 972 l 242 972 l 242 0 z m 364 1079 l 8 1079 l 8 1167 l 364 1167 l 364 1079 z "},"Į":{"ha":372,"x_min":24,"x_max":242,"o":"m 242 0 l 131 0 l 131 972 l 242 972 l 242 0 z m 242 -292 l 119 -292 q 67 -281 89 -292 q 34 -251 44 -271 q 27 -206 24 -232 q 49 -150 31 -181 l 49 -150 l 169 43 l 242 0 l 96 -240 l 86 -208 l 242 -208 l 242 -292 z "},"Ĩ":{"ha":372,"x_min":-28,"x_max":404,"o":"m 242 0 l 131 0 l 131 972 l 242 972 l 242 0 z m 279 1042 l 279 1042 q 201 1061 233 1042 q 147 1099 169 1081 q 103 1118 124 1118 l 103 1118 q 72 1107 85 1118 q 49 1064 60 1096 l 49 1064 l -28 1064 q -6 1139 -21 1108 q 35 1186 10 1169 q 96 1203 60 1203 l 96 1203 q 172 1184 140 1203 q 228 1147 203 1165 q 274 1128 253 1128 l 274 1128 q 306 1140 293 1128 q 329 1186 318 1151 l 329 1186 l 404 1186 q 363 1075 394 1108 q 279 1042 331 1042 z "},"J":{"ha":831,"x_min":49,"x_max":708,"o":"m 379 -14 l 379 -14 q 202 23 276 -14 q 88 129 128 60 q 49 294 49 199 l 49 294 l 49 422 l 160 450 l 160 294 q 218 144 160 199 q 379 90 276 90 l 379 90 q 540 144 482 90 q 597 296 597 199 l 597 296 l 597 972 l 708 972 l 708 297 q 669 131 708 200 q 557 24 631 61 q 379 -14 483 -14 z "},"Ĵ":{"ha":831,"x_min":49,"x_max":857,"o":"m 379 -14 l 379 -14 q 202 23 276 -14 q 88 129 128 60 q 49 294 49 199 l 49 294 l 49 422 l 160 450 l 160 294 q 218 144 160 199 q 379 90 276 90 l 379 90 q 540 144 482 90 q 597 296 597 199 l 597 296 l 597 972 l 708 972 l 708 297 q 669 131 708 200 q 557 24 631 61 q 379 -14 483 -14 z m 556 1060 l 449 1060 l 600 1193 l 704 1193 l 857 1060 l 750 1060 l 622 1142 l 683 1142 l 556 1060 z "},"K":{"ha":922,"x_min":131,"x_max":924,"o":"m 881 972 l 217 318 l 217 443 l 749 972 l 881 972 z m 242 0 l 131 0 l 131 972 l 242 972 l 242 428 l 242 429 l 242 0 z m 924 0 l 782 0 l 408 547 l 485 625 l 924 0 z "},"Ķ":{"ha":922,"x_min":131,"x_max":924,"o":"m 881 972 l 217 318 l 217 443 l 749 972 l 881 972 z m 242 0 l 131 0 l 131 972 l 242 972 l 242 428 l 242 429 l 242 0 z m 924 0 l 782 0 l 408 547 l 485 625 l 924 0 z m 421 -292 l 399 -292 l 399 -239 l 463 -239 l 463 -115 l 506 -183 l 401 -183 l 401 -92 l 529 -92 l 529 -200 q 524 -242 529 -221 q 497 -278 519 -264 q 421 -292 474 -292 l 421 -292 z "},"L":{"ha":760,"x_min":131,"x_max":736,"o":"m 736 0 l 131 0 l 131 972 l 242 972 l 242 47 l 196 104 l 736 104 l 736 0 z "},"Ĺ":{"ha":760,"x_min":129,"x_max":736,"o":"m 736 0 l 131 0 l 131 972 l 242 972 l 242 47 l 196 104 l 736 104 l 736 0 z m 225 1060 l 129 1060 l 218 1193 l 376 1193 l 225 1060 z "},"Ľ":{"ha":761,"x_min":131,"x_max":736,"o":"m 736 0 l 131 0 l 131 972 l 242 972 l 242 47 l 196 104 l 736 104 l 736 0 z m 514 735 l 426 735 l 426 972 l 536 972 l 514 735 z "},"Ļ":{"ha":760,"x_min":131,"x_max":736,"o":"m 736 0 l 131 0 l 131 972 l 242 972 l 242 47 l 196 104 l 736 104 l 736 0 z m 392 -292 l 369 -292 l 369 -239 l 433 -239 l 433 -115 l 476 -183 l 372 -183 l 372 -92 l 500 -92 l 500 -200 q 495 -242 500 -221 q 467 -278 490 -264 q 392 -292 444 -292 l 392 -292 z "},"Ŀ":{"ha":763,"x_min":131,"x_max":736,"o":"m 736 0 l 131 0 l 131 972 l 242 972 l 242 47 l 196 104 l 736 104 l 736 0 z m 619 475 l 492 475 l 492 603 l 619 603 l 619 475 z "},"Ł":{"ha":810,"x_min":53,"x_max":786,"o":"m 513 558 l 53 313 l 53 414 l 513 660 l 513 558 z m 786 0 l 181 0 l 181 972 l 292 972 l 292 47 l 246 104 l 786 104 l 786 0 z "},"M":{"ha":1201,"x_min":131,"x_max":1071,"o":"m 954 844 l 597 -14 l 242 844 l 236 844 l 236 0 l 131 0 l 131 972 l 300 972 l 622 189 l 579 189 l 901 972 l 1071 972 l 1071 0 l 960 0 l 960 844 l 954 844 z "},"N":{"ha":1017,"x_min":131,"x_max":886,"o":"m 236 0 l 131 0 l 131 972 l 297 972 l 775 251 l 781 251 l 781 972 l 886 972 l 886 0 l 814 0 l 240 864 l 236 864 l 236 0 z "},"Ń":{"ha":1017,"x_min":131,"x_max":886,"o":"m 236 0 l 131 0 l 131 972 l 297 972 l 775 251 l 781 251 l 781 972 l 886 972 l 886 0 l 814 0 l 240 864 l 236 864 l 236 0 z m 551 1060 l 456 1060 l 544 1193 l 703 1193 l 551 1060 z "},"Ň":{"ha":1017,"x_min":131,"x_max":886,"o":"m 236 0 l 131 0 l 131 972 l 297 972 l 775 251 l 781 251 l 781 972 l 886 972 l 886 0 l 814 0 l 240 864 l 236 864 l 236 0 z m 561 1060 l 457 1060 l 306 1193 l 413 1193 l 540 1111 l 479 1111 l 607 1193 l 714 1193 l 561 1060 z "},"Ņ":{"ha":1017,"x_min":131,"x_max":886,"o":"m 236 0 l 131 0 l 131 972 l 297 972 l 775 251 l 781 251 l 781 972 l 886 972 l 886 0 l 814 0 l 240 864 l 236 864 l 236 0 z m 451 -292 l 429 -292 l 429 -239 l 493 -239 l 493 -115 l 536 -183 l 432 -183 l 432 -92 l 560 -92 l 560 -200 q 555 -242 560 -221 q 527 -278 550 -264 q 451 -292 504 -292 l 451 -292 z "},"Ñ":{"ha":1017,"x_min":131,"x_max":886,"o":"m 236 0 l 131 0 l 131 972 l 297 972 l 775 251 l 781 251 l 781 972 l 886 972 l 886 0 l 814 0 l 240 864 l 236 864 l 236 0 z m 603 1042 l 603 1042 q 525 1061 557 1042 q 470 1099 493 1081 q 426 1118 447 1118 l 426 1118 q 396 1107 408 1118 q 372 1064 383 1096 l 372 1064 l 296 1064 q 318 1139 303 1108 q 358 1186 333 1169 q 419 1203 383 1203 l 419 1203 q 495 1184 464 1203 q 551 1147 526 1165 q 597 1128 576 1128 l 597 1128 q 629 1140 617 1128 q 653 1186 642 1151 l 653 1186 l 728 1186 q 686 1075 718 1108 q 603 1042 654 1042 z "},"Ŋ":{"ha":1017,"x_min":131,"x_max":886,"o":"m 240 792 l 236 792 l 236 0 l 131 0 l 131 972 l 247 972 l 776 213 l 839 213 l 839 -37 l 813 -37 l 240 792 z m 726 -278 l 594 -278 l 594 -187 l 781 -187 l 781 972 l 886 972 l 886 -131 q 849 -236 886 -194 q 726 -278 811 -278 l 726 -278 z "},"O":{"ha":1036,"x_min":72,"x_max":964,"o":"m 518 -14 l 518 -14 q 281 50 381 -14 q 126 226 181 114 q 72 486 72 339 l 72 486 q 126 746 72 633 q 281 922 181 858 q 518 986 381 986 l 518 986 q 756 922 656 986 q 910 746 856 858 q 964 486 964 633 l 964 486 q 910 226 964 339 q 756 50 856 114 q 518 -14 656 -14 z m 518 90 l 518 90 q 696 140 622 90 q 808 278 769 189 q 846 486 846 367 l 846 486 q 808 694 846 606 q 696 833 769 783 q 518 882 622 882 l 518 882 q 341 833 414 882 q 229 694 268 783 q 190 486 190 606 l 190 486 q 229 278 190 367 q 341 140 268 189 q 518 90 414 90 z "},"Ó":{"ha":1036,"x_min":72,"x_max":964,"o":"m 518 -14 l 518 -14 q 281 50 381 -14 q 126 226 181 114 q 72 486 72 339 l 72 486 q 126 746 72 633 q 281 922 181 858 q 518 986 381 986 l 518 986 q 756 922 656 986 q 910 746 856 858 q 964 486 964 633 l 964 486 q 910 226 964 339 q 756 50 856 114 q 518 -14 656 -14 z m 518 90 l 518 90 q 696 140 622 90 q 808 278 769 189 q 846 486 846 367 l 846 486 q 808 694 846 606 q 696 833 769 783 q 518 882 622 882 l 518 882 q 341 833 414 882 q 229 694 268 783 q 190 486 190 606 l 190 486 q 229 278 190 367 q 341 140 268 189 q 518 90 414 90 z m 560 1060 l 464 1060 l 553 1193 l 711 1193 l 560 1060 z "},"Ŏ":{"ha":1036,"x_min":72,"x_max":964,"o":"m 518 -14 l 518 -14 q 281 50 381 -14 q 126 226 181 114 q 72 486 72 339 l 72 486 q 126 746 72 633 q 281 922 181 858 q 518 986 381 986 l 518 986 q 756 922 656 986 q 910 746 856 858 q 964 486 964 633 l 964 486 q 910 226 964 339 q 756 50 856 114 q 518 -14 656 -14 z m 518 90 l 518 90 q 696 140 622 90 q 808 278 769 189 q 846 486 846 367 l 846 486 q 808 694 846 606 q 696 833 769 783 q 518 882 622 882 l 518 882 q 341 833 414 882 q 229 694 268 783 q 190 486 190 606 l 190 486 q 229 278 190 367 q 341 140 268 189 q 518 90 414 90 z m 518 1053 l 518 1053 q 421 1065 465 1053 q 349 1108 376 1078 q 322 1193 322 1139 l 322 1193 l 419 1193 q 442 1144 419 1160 q 518 1129 465 1129 l 518 1129 q 595 1144 572 1129 q 618 1193 618 1160 l 618 1193 l 714 1193 q 687 1108 714 1139 q 615 1065 660 1078 q 518 1053 571 1053 z "},"Ǒ":{"ha":1036,"x_min":72,"x_max":964,"o":"m 518 -14 l 518 -14 q 281 50 381 -14 q 126 226 181 114 q 72 486 72 339 l 72 486 q 126 746 72 633 q 281 922 181 858 q 518 986 381 986 l 518 986 q 756 922 656 986 q 910 746 856 858 q 964 486 964 633 l 964 486 q 910 226 964 339 q 756 50 856 114 q 518 -14 656 -14 z m 518 90 l 518 90 q 696 140 622 90 q 808 278 769 189 q 846 486 846 367 l 846 486 q 808 694 846 606 q 696 833 769 783 q 518 882 622 882 l 518 882 q 341 833 414 882 q 229 694 268 783 q 190 486 190 606 l 190 486 q 229 278 190 367 q 341 140 268 189 q 518 90 414 90 z m 569 1060 l 465 1060 l 314 1193 l 421 1193 l 549 1111 l 488 1111 l 615 1193 l 722 1193 l 569 1060 z "},"Ô":{"ha":1036,"x_min":72,"x_max":964,"o":"m 518 -14 l 518 -14 q 281 50 381 -14 q 126 226 181 114 q 72 486 72 339 l 72 486 q 126 746 72 633 q 281 922 181 858 q 518 986 381 986 l 518 986 q 756 922 656 986 q 910 746 856 858 q 964 486 964 633 l 964 486 q 910 226 964 339 q 756 50 856 114 q 518 -14 656 -14 z m 518 90 l 518 90 q 696 140 622 90 q 808 278 769 189 q 846 486 846 367 l 846 486 q 808 694 846 606 q 696 833 769 783 q 518 882 622 882 l 518 882 q 341 833 414 882 q 229 694 268 783 q 190 486 190 606 l 190 486 q 229 278 190 367 q 341 140 268 189 q 518 90 414 90 z m 421 1060 l 314 1060 l 465 1193 l 569 1193 l 722 1060 l 615 1060 l 488 1142 l 549 1142 l 421 1060 z "},"Ö":{"ha":1036,"x_min":72,"x_max":964,"o":"m 518 -14 l 518 -14 q 281 50 381 -14 q 126 226 181 114 q 72 486 72 339 l 72 486 q 126 746 72 633 q 281 922 181 858 q 518 986 381 986 l 518 986 q 756 922 656 986 q 910 746 856 858 q 964 486 964 633 l 964 486 q 910 226 964 339 q 756 50 856 114 q 518 -14 656 -14 z m 518 90 l 518 90 q 696 140 622 90 q 808 278 769 189 q 846 486 846 367 l 846 486 q 808 694 846 606 q 696 833 769 783 q 518 882 622 882 l 518 882 q 341 833 414 882 q 229 694 268 783 q 190 486 190 606 l 190 486 q 229 278 190 367 q 341 140 268 189 q 518 90 414 90 z m 713 1060 l 599 1060 l 599 1164 l 713 1164 l 713 1060 z m 436 1060 l 322 1060 l 322 1164 l 436 1164 l 436 1060 z "},"Ò":{"ha":1036,"x_min":72,"x_max":964,"o":"m 518 -14 l 518 -14 q 281 50 381 -14 q 126 226 181 114 q 72 486 72 339 l 72 486 q 126 746 72 633 q 281 922 181 858 q 518 986 381 986 l 518 986 q 756 922 656 986 q 910 746 856 858 q 964 486 964 633 l 964 486 q 910 226 964 339 q 756 50 856 114 q 518 -14 656 -14 z m 518 90 l 518 90 q 696 140 622 90 q 808 278 769 189 q 846 486 846 367 l 846 486 q 808 694 846 606 q 696 833 769 783 q 518 882 622 882 l 518 882 q 341 833 414 882 q 229 694 268 783 q 190 486 190 606 l 190 486 q 229 278 190 367 q 341 140 268 189 q 518 90 414 90 z m 572 1060 l 476 1060 l 325 1193 l 483 1193 l 572 1060 z "},"Ő":{"ha":1036,"x_min":72,"x_max":964,"o":"m 518 -14 l 518 -14 q 281 50 381 -14 q 126 226 181 114 q 72 486 72 339 l 72 486 q 126 746 72 633 q 281 922 181 858 q 518 986 381 986 l 518 986 q 756 922 656 986 q 910 746 856 858 q 964 486 964 633 l 964 486 q 910 226 964 339 q 756 50 856 114 q 518 -14 656 -14 z m 518 90 l 518 90 q 696 140 622 90 q 808 278 769 189 q 846 486 846 367 l 846 486 q 808 694 846 606 q 696 833 769 783 q 518 882 622 882 l 518 882 q 341 833 414 882 q 229 694 268 783 q 190 486 190 606 l 190 486 q 229 278 190 367 q 341 140 268 189 q 518 90 414 90 z m 665 1060 l 578 1060 l 676 1193 l 826 1193 l 665 1060 z m 439 1060 l 351 1060 l 450 1193 l 600 1193 l 439 1060 z "},"Ō":{"ha":1036,"x_min":72,"x_max":964,"o":"m 518 -14 l 518 -14 q 281 50 381 -14 q 126 226 181 114 q 72 486 72 339 l 72 486 q 126 746 72 633 q 281 922 181 858 q 518 986 381 986 l 518 986 q 756 922 656 986 q 910 746 856 858 q 964 486 964 633 l 964 486 q 910 226 964 339 q 756 50 856 114 q 518 -14 656 -14 z m 518 90 l 518 90 q 696 140 622 90 q 808 278 769 189 q 846 486 846 367 l 846 486 q 808 694 846 606 q 696 833 769 783 q 518 882 622 882 l 518 882 q 341 833 414 882 q 229 694 268 783 q 190 486 190 606 l 190 486 q 229 278 190 367 q 341 140 268 189 q 518 90 414 90 z m 696 1079 l 340 1079 l 340 1167 l 696 1167 l 696 1079 z "},"Ø":{"ha":1053,"x_min":81,"x_max":972,"o":"m 953 960 l 169 -44 l 101 15 l 885 1018 l 953 960 z m 526 -14 l 526 -14 q 289 50 389 -14 q 135 226 189 114 q 81 486 81 339 l 81 486 q 135 746 81 633 q 289 922 189 858 q 526 986 389 986 l 526 986 q 764 922 664 986 q 918 746 864 858 q 972 486 972 633 l 972 486 q 918 226 972 339 q 764 50 864 114 q 526 -14 664 -14 z m 526 90 l 526 90 q 704 140 631 90 q 816 278 778 189 q 854 486 854 367 l 854 486 q 816 694 854 606 q 704 833 778 783 q 526 882 631 882 l 526 882 q 349 833 422 882 q 238 694 276 783 q 199 486 199 606 l 199 486 q 238 278 199 367 q 349 140 276 189 q 526 90 422 90 z "},"Ǿ":{"ha":1053,"x_min":81,"x_max":972,"o":"m 953 960 l 169 -44 l 101 15 l 885 1018 l 953 960 z m 526 -14 l 526 -14 q 289 50 389 -14 q 135 226 189 114 q 81 486 81 339 l 81 486 q 135 746 81 633 q 289 922 189 858 q 526 986 389 986 l 526 986 q 764 922 664 986 q 918 746 864 858 q 972 486 972 633 l 972 486 q 918 226 972 339 q 764 50 864 114 q 526 -14 664 -14 z m 526 90 l 526 90 q 704 140 631 90 q 816 278 778 189 q 854 486 854 367 l 854 486 q 816 694 854 606 q 704 833 778 783 q 526 882 631 882 l 526 882 q 349 833 422 882 q 238 694 276 783 q 199 486 199 606 l 199 486 q 238 278 199 367 q 349 140 276 189 q 526 90 422 90 z m 568 1060 l 472 1060 l 561 1193 l 719 1193 l 568 1060 z "},"Õ":{"ha":1036,"x_min":72,"x_max":964,"o":"m 518 -14 l 518 -14 q 281 50 381 -14 q 126 226 181 114 q 72 486 72 339 l 72 486 q 126 746 72 633 q 281 922 181 858 q 518 986 381 986 l 518 986 q 756 922 656 986 q 910 746 856 858 q 964 486 964 633 l 964 486 q 910 226 964 339 q 756 50 856 114 q 518 -14 656 -14 z m 518 90 l 518 90 q 696 140 622 90 q 808 278 769 189 q 846 486 846 367 l 846 486 q 808 694 846 606 q 696 833 769 783 q 518 882 622 882 l 518 882 q 341 833 414 882 q 229 694 268 783 q 190 486 190 606 l 190 486 q 229 278 190 367 q 341 140 268 189 q 518 90 414 90 z m 611 1042 l 611 1042 q 533 1061 565 1042 q 478 1099 501 1081 q 435 1118 456 1118 l 435 1118 q 404 1107 417 1118 q 381 1064 392 1096 l 381 1064 l 304 1064 q 326 1139 311 1108 q 367 1186 342 1169 q 428 1203 392 1203 l 428 1203 q 503 1184 472 1203 q 560 1147 535 1165 q 606 1128 585 1128 l 606 1128 q 638 1140 625 1128 q 661 1186 650 1151 l 661 1186 l 736 1186 q 694 1075 726 1108 q 611 1042 663 1042 z "},"Œ":{"ha":1371,"x_min":72,"x_max":1319,"o":"m 1319 0 l 553 0 q 296 61 404 0 q 130 232 188 122 q 72 488 72 342 l 72 488 q 130 742 72 633 q 296 912 188 851 q 553 972 404 972 l 553 972 l 1307 972 l 1307 868 l 553 868 q 356 820 438 868 q 233 687 275 772 q 190 488 190 601 l 190 488 q 233 287 190 374 q 356 152 275 200 q 553 104 438 104 l 553 104 l 1319 104 l 1319 0 z m 806 69 l 693 69 l 693 903 l 806 903 l 806 69 z m 1132 456 l 779 456 l 779 560 l 1132 560 l 1132 456 z "},"P":{"ha":886,"x_min":131,"x_max":843,"o":"m 514 424 l 190 424 l 190 528 l 508 528 q 669 570 613 528 q 725 700 725 613 l 725 700 q 669 831 725 794 q 508 868 613 868 l 508 868 l 196 868 l 242 925 l 242 0 l 131 0 l 131 972 l 514 972 q 690 944 617 972 q 803 856 764 917 q 843 700 843 796 l 843 700 q 803 548 843 610 q 690 455 764 486 q 514 424 617 424 l 514 424 z "},"Þ":{"ha":900,"x_min":131,"x_max":843,"o":"m 514 213 l 190 213 l 190 317 l 508 317 q 669 359 613 317 q 725 489 725 401 l 725 489 q 669 620 725 583 q 508 657 613 657 l 508 657 l 190 657 l 190 761 l 514 761 q 690 733 617 761 q 803 644 764 704 q 843 489 843 585 l 843 489 q 803 337 843 399 q 690 244 764 275 q 514 213 617 213 l 514 213 z m 242 0 l 131 0 l 131 972 l 242 972 l 242 0 z "},"Q":{"ha":1046,"x_min":72,"x_max":964,"o":"m 943 49 l 943 -85 l 560 232 l 560 361 l 943 49 z m 518 -14 l 518 -14 q 281 50 381 -14 q 126 226 181 114 q 72 486 72 339 l 72 486 q 126 746 72 633 q 281 922 181 858 q 518 986 381 986 l 518 986 q 756 922 656 986 q 910 746 856 858 q 964 486 964 633 l 964 486 q 910 226 964 339 q 756 50 856 114 q 518 -14 656 -14 z m 518 90 l 518 90 q 696 140 622 90 q 808 278 769 189 q 846 486 846 367 l 846 486 q 808 694 846 606 q 696 833 769 783 q 518 882 622 882 l 518 882 q 341 833 414 882 q 229 694 268 783 q 190 486 190 606 l 190 486 q 229 278 190 367 q 341 140 268 189 q 518 90 414 90 z "},"R":{"ha":938,"x_min":131,"x_max":832,"o":"m 242 0 l 131 0 l 131 972 l 518 972 q 747 913 663 972 q 831 736 831 854 l 831 736 q 794 611 831 668 q 692 521 757 554 l 692 521 l 692 517 l 703 517 q 799 484 765 517 q 832 388 832 451 l 832 388 l 832 0 l 721 0 l 721 475 l 768 428 l 192 428 l 192 532 l 511 532 q 667 575 614 532 q 719 704 719 618 l 719 704 q 667 828 719 789 q 511 868 614 868 l 511 868 l 194 868 l 242 915 l 242 0 z "},"Ŕ":{"ha":938,"x_min":131,"x_max":832,"o":"m 242 0 l 131 0 l 131 972 l 518 972 q 747 913 663 972 q 831 736 831 854 l 831 736 q 794 611 831 668 q 692 521 757 554 l 692 521 l 692 517 l 703 517 q 799 484 765 517 q 832 388 832 451 l 832 388 l 832 0 l 721 0 l 721 475 l 768 428 l 192 428 l 192 532 l 511 532 q 667 575 614 532 q 719 704 719 618 l 719 704 q 667 828 719 789 q 511 868 614 868 l 511 868 l 194 868 l 242 915 l 242 0 z m 522 1060 l 426 1060 l 515 1193 l 674 1193 l 522 1060 z "},"Ř":{"ha":938,"x_min":131,"x_max":832,"o":"m 242 0 l 131 0 l 131 972 l 518 972 q 747 913 663 972 q 831 736 831 854 l 831 736 q 794 611 831 668 q 692 521 757 554 l 692 521 l 692 517 l 703 517 q 799 484 765 517 q 832 388 832 451 l 832 388 l 832 0 l 721 0 l 721 475 l 768 428 l 192 428 l 192 532 l 511 532 q 667 575 614 532 q 719 704 719 618 l 719 704 q 667 828 719 789 q 511 868 614 868 l 511 868 l 194 868 l 242 915 l 242 0 z m 532 1060 l 428 1060 l 276 1193 l 383 1193 l 511 1111 l 450 1111 l 578 1193 l 685 1193 l 532 1060 z "},"Ŗ":{"ha":938,"x_min":131,"x_max":832,"o":"m 242 0 l 131 0 l 131 972 l 518 972 q 747 913 663 972 q 831 736 831 854 l 831 736 q 794 611 831 668 q 692 521 757 554 l 692 521 l 692 517 l 703 517 q 799 484 765 517 q 832 388 832 451 l 832 388 l 832 0 l 721 0 l 721 475 l 768 428 l 192 428 l 192 532 l 511 532 q 667 575 614 532 q 719 704 719 618 l 719 704 q 667 828 719 789 q 511 868 614 868 l 511 868 l 194 868 l 242 915 l 242 0 z m 440 -292 l 418 -292 l 418 -239 l 482 -239 l 482 -115 l 525 -183 l 421 -183 l 421 -92 l 549 -92 l 549 -200 q 544 -242 549 -221 q 516 -278 539 -264 q 440 -292 493 -292 l 440 -292 z "},"S":{"ha":879,"x_min":54,"x_max":818,"o":"m 443 -14 l 443 -14 q 264 15 343 -14 q 131 99 185 44 q 54 229 78 153 l 54 229 l 161 265 q 260 135 186 181 q 453 90 335 90 l 453 90 q 638 133 568 90 q 707 260 707 176 l 707 260 q 681 345 707 313 q 610 397 654 378 q 510 426 565 415 q 397 448 456 438 q 283 474 338 458 q 183 518 228 490 q 113 592 139 546 q 86 710 86 638 l 86 710 q 131 856 86 794 q 257 952 176 918 q 443 986 338 986 l 443 986 q 599 963 531 986 q 714 896 667 940 q 783 785 761 851 l 783 785 l 679 750 q 594 849 656 817 q 443 882 533 882 l 443 882 q 267 842 338 882 q 196 719 196 801 l 196 719 q 222 635 196 667 q 293 586 249 604 q 393 558 338 568 q 508 537 449 547 q 622 511 567 526 q 721 467 676 496 q 792 392 765 439 q 818 274 818 346 l 818 274 q 773 117 818 182 q 644 19 728 53 q 443 -14 560 -14 z "},"Ś":{"ha":879,"x_min":54,"x_max":818,"o":"m 443 -14 l 443 -14 q 264 15 343 -14 q 131 99 185 44 q 54 229 78 153 l 54 229 l 161 265 q 260 135 186 181 q 453 90 335 90 l 453 90 q 638 133 568 90 q 707 260 707 176 l 707 260 q 681 345 707 313 q 610 397 654 378 q 510 426 565 415 q 397 448 456 438 q 283 474 338 458 q 183 518 228 490 q 113 592 139 546 q 86 710 86 638 l 86 710 q 131 856 86 794 q 257 952 176 918 q 443 986 338 986 l 443 986 q 599 963 531 986 q 714 896 667 940 q 783 785 761 851 l 783 785 l 679 750 q 594 849 656 817 q 443 882 533 882 l 443 882 q 267 842 338 882 q 196 719 196 801 l 196 719 q 222 635 196 667 q 293 586 249 604 q 393 558 338 568 q 508 537 449 547 q 622 511 567 526 q 721 467 676 496 q 792 392 765 439 q 818 274 818 346 l 818 274 q 773 117 818 182 q 644 19 728 53 q 443 -14 560 -14 z m 479 1060 l 383 1060 l 472 1193 l 631 1193 l 479 1060 z "},"Š":{"ha":879,"x_min":54,"x_max":818,"o":"m 443 -14 l 443 -14 q 264 15 343 -14 q 131 99 185 44 q 54 229 78 153 l 54 229 l 161 265 q 260 135 186 181 q 453 90 335 90 l 453 90 q 638 133 568 90 q 707 260 707 176 l 707 260 q 681 345 707 313 q 610 397 654 378 q 510 426 565 415 q 397 448 456 438 q 283 474 338 458 q 183 518 228 490 q 113 592 139 546 q 86 710 86 638 l 86 710 q 131 856 86 794 q 257 952 176 918 q 443 986 338 986 l 443 986 q 599 963 531 986 q 714 896 667 940 q 783 785 761 851 l 783 785 l 679 750 q 594 849 656 817 q 443 882 533 882 l 443 882 q 267 842 338 882 q 196 719 196 801 l 196 719 q 222 635 196 667 q 293 586 249 604 q 393 558 338 568 q 508 537 449 547 q 622 511 567 526 q 721 467 676 496 q 792 392 765 439 q 818 274 818 346 l 818 274 q 773 117 818 182 q 644 19 728 53 q 443 -14 560 -14 z m 489 1060 l 385 1060 l 233 1193 l 340 1193 l 468 1111 l 407 1111 l 535 1193 l 642 1193 l 489 1060 z "},"Ş":{"ha":879,"x_min":54,"x_max":818,"o":"m 443 -14 l 443 -14 q 264 15 343 -14 q 131 99 185 44 q 54 229 78 153 l 54 229 l 161 265 q 260 135 186 181 q 453 90 335 90 l 453 90 q 638 133 568 90 q 707 260 707 176 l 707 260 q 681 345 707 313 q 610 397 654 378 q 510 426 565 415 q 397 448 456 438 q 283 474 338 458 q 183 518 228 490 q 113 592 139 546 q 86 710 86 638 l 86 710 q 131 856 86 794 q 257 952 176 918 q 443 986 338 986 l 443 986 q 599 963 531 986 q 714 896 667 940 q 783 785 761 851 l 783 785 l 679 750 q 594 849 656 817 q 443 882 533 882 l 443 882 q 267 842 338 882 q 196 719 196 801 l 196 719 q 222 635 196 667 q 293 586 249 604 q 393 558 338 568 q 508 537 449 547 q 622 511 567 526 q 721 467 676 496 q 792 392 765 439 q 818 274 818 346 l 818 274 q 773 117 818 182 q 644 19 728 53 q 443 -14 560 -14 z m 404 -292 l 289 -292 l 289 -214 l 415 -214 q 456 -206 443 -214 q 469 -179 469 -197 l 469 -179 q 456 -151 469 -160 q 415 -143 443 -143 l 415 -143 l 344 -143 l 378 13 l 475 13 l 447 -121 l 410 -83 l 432 -83 q 536 -110 504 -83 q 568 -179 568 -137 l 568 -179 q 523 -261 568 -231 q 404 -292 478 -292 l 404 -292 z "},"Ŝ":{"ha":879,"x_min":54,"x_max":818,"o":"m 443 -14 l 443 -14 q 264 15 343 -14 q 131 99 185 44 q 54 229 78 153 l 54 229 l 161 265 q 260 135 186 181 q 453 90 335 90 l 453 90 q 638 133 568 90 q 707 260 707 176 l 707 260 q 681 345 707 313 q 610 397 654 378 q 510 426 565 415 q 397 448 456 438 q 283 474 338 458 q 183 518 228 490 q 113 592 139 546 q 86 710 86 638 l 86 710 q 131 856 86 794 q 257 952 176 918 q 443 986 338 986 l 443 986 q 599 963 531 986 q 714 896 667 940 q 783 785 761 851 l 783 785 l 679 750 q 594 849 656 817 q 443 882 533 882 l 443 882 q 267 842 338 882 q 196 719 196 801 l 196 719 q 222 635 196 667 q 293 586 249 604 q 393 558 338 568 q 508 537 449 547 q 622 511 567 526 q 721 467 676 496 q 792 392 765 439 q 818 274 818 346 l 818 274 q 773 117 818 182 q 644 19 728 53 q 443 -14 560 -14 z m 340 1060 l 233 1060 l 385 1193 l 489 1193 l 642 1060 l 535 1060 l 407 1142 l 468 1142 l 340 1060 z "},"Ș":{"ha":879,"x_min":54,"x_max":818,"o":"m 443 -14 l 443 -14 q 264 15 343 -14 q 131 99 185 44 q 54 229 78 153 l 54 229 l 161 265 q 260 135 186 181 q 453 90 335 90 l 453 90 q 638 133 568 90 q 707 260 707 176 l 707 260 q 681 345 707 313 q 610 397 654 378 q 510 426 565 415 q 397 448 456 438 q 283 474 338 458 q 183 518 228 490 q 113 592 139 546 q 86 710 86 638 l 86 710 q 131 856 86 794 q 257 952 176 918 q 443 986 338 986 l 443 986 q 599 963 531 986 q 714 896 667 940 q 783 785 761 851 l 783 785 l 679 750 q 594 849 656 817 q 443 882 533 882 l 443 882 q 267 842 338 882 q 196 719 196 801 l 196 719 q 222 635 196 667 q 293 586 249 604 q 393 558 338 568 q 508 537 449 547 q 622 511 567 526 q 721 467 676 496 q 792 392 765 439 q 818 274 818 346 l 818 274 q 773 117 818 182 q 644 19 728 53 q 443 -14 560 -14 z m 382 -292 l 360 -292 l 360 -239 l 424 -239 l 424 -115 l 467 -183 l 363 -183 l 363 -92 l 490 -92 l 490 -200 q 485 -242 490 -221 q 458 -278 481 -264 q 382 -292 435 -292 l 382 -292 z "},"ẞ":{"ha":1010,"x_min":131,"x_max":936,"o":"m 633 -14 l 633 -14 q 549 -8 590 -14 q 472 9 507 -1 q 414 32 436 19 l 414 32 l 451 135 q 508 113 478 124 q 572 97 539 103 q 638 90 606 90 l 638 90 q 780 144 735 90 q 825 272 825 197 l 825 272 q 772 404 825 354 q 589 493 718 454 l 589 493 l 786 925 l 817 882 l 194 882 l 242 929 l 242 0 l 131 0 l 131 972 l 928 972 l 711 504 l 690 561 q 878 449 821 519 q 936 272 936 379 l 936 272 q 900 122 936 186 q 796 22 864 57 q 633 -14 728 -14 z "},"T":{"ha":799,"x_min":24,"x_max":775,"o":"m 456 0 l 344 0 l 344 933 l 456 933 l 456 0 z m 775 868 l 24 868 l 24 972 l 775 972 l 775 868 z "},"Ŧ":{"ha":815,"x_min":32,"x_max":783,"o":"m 651 447 l 160 447 l 160 535 l 651 535 l 651 447 z m 464 0 l 353 0 l 353 933 l 464 933 l 464 0 z m 783 868 l 32 868 l 32 972 l 783 972 l 783 868 z "},"Ť":{"ha":799,"x_min":24,"x_max":775,"o":"m 456 0 l 344 0 l 344 933 l 456 933 l 456 0 z m 775 868 l 24 868 l 24 972 l 775 972 l 775 868 z m 451 1060 l 347 1060 l 196 1193 l 303 1193 l 431 1111 l 369 1111 l 497 1193 l 604 1193 l 451 1060 z "},"Ţ":{"ha":799,"x_min":24,"x_max":775,"o":"m 456 0 l 344 0 l 344 933 l 456 933 l 456 0 z m 775 868 l 24 868 l 24 972 l 775 972 l 775 868 z m 381 -292 l 265 -292 l 265 -214 l 392 -214 q 433 -206 419 -214 q 446 -179 446 -197 l 446 -179 q 433 -151 446 -160 q 392 -143 419 -143 l 392 -143 l 321 -143 l 354 13 l 451 13 l 424 -121 l 386 -83 l 408 -83 q 513 -110 481 -83 q 544 -179 544 -137 l 544 -179 q 499 -261 544 -231 q 381 -292 454 -292 l 381 -292 z "},"Ț":{"ha":799,"x_min":24,"x_max":775,"o":"m 456 0 l 344 0 l 344 933 l 456 933 l 456 0 z m 775 868 l 24 868 l 24 972 l 775 972 l 775 868 z m 358 -292 l 336 -292 l 336 -239 l 400 -239 l 400 -115 l 443 -183 l 339 -183 l 339 -92 l 467 -92 l 467 -200 q 462 -242 467 -221 q 434 -278 457 -264 q 358 -292 411 -292 l 358 -292 z "},"U":{"ha":989,"x_min":121,"x_max":868,"o":"m 494 -14 l 494 -14 q 299 31 383 -14 q 167 158 214 75 q 121 357 121 240 l 121 357 l 121 972 l 232 972 l 232 358 q 265 213 232 272 q 357 122 297 153 q 494 90 417 90 l 494 90 q 633 122 574 90 q 724 213 692 153 q 757 358 757 272 l 757 358 l 757 972 l 868 972 l 868 357 q 822 158 868 240 q 691 31 775 75 q 494 -14 607 -14 z "},"Ú":{"ha":989,"x_min":121,"x_max":868,"o":"m 494 -14 l 494 -14 q 299 31 383 -14 q 167 158 214 75 q 121 357 121 240 l 121 357 l 121 972 l 232 972 l 232 358 q 265 213 232 272 q 357 122 297 153 q 494 90 417 90 l 494 90 q 633 122 574 90 q 724 213 692 153 q 757 358 757 272 l 757 358 l 757 972 l 868 972 l 868 357 q 822 158 868 240 q 691 31 775 75 q 494 -14 607 -14 z m 536 1060 l 440 1060 l 529 1193 l 688 1193 l 536 1060 z "},"Ŭ":{"ha":989,"x_min":121,"x_max":868,"o":"m 494 -14 l 494 -14 q 299 31 383 -14 q 167 158 214 75 q 121 357 121 240 l 121 357 l 121 972 l 232 972 l 232 358 q 265 213 232 272 q 357 122 297 153 q 494 90 417 90 l 494 90 q 633 122 574 90 q 724 213 692 153 q 757 358 757 272 l 757 358 l 757 972 l 868 972 l 868 357 q 822 158 868 240 q 691 31 775 75 q 494 -14 607 -14 z m 494 1053 l 494 1053 q 397 1065 442 1053 q 326 1108 353 1078 q 299 1193 299 1139 l 299 1193 l 396 1193 q 419 1144 396 1160 q 494 1129 442 1129 l 494 1129 q 572 1144 549 1129 q 594 1193 594 1160 l 594 1193 l 690 1193 q 663 1108 690 1139 q 592 1065 636 1078 q 494 1053 547 1053 z "},"Û":{"ha":989,"x_min":121,"x_max":868,"o":"m 494 -14 l 494 -14 q 299 31 383 -14 q 167 158 214 75 q 121 357 121 240 l 121 357 l 121 972 l 232 972 l 232 358 q 265 213 232 272 q 357 122 297 153 q 494 90 417 90 l 494 90 q 633 122 574 90 q 724 213 692 153 q 757 358 757 272 l 757 358 l 757 972 l 868 972 l 868 357 q 822 158 868 240 q 691 31 775 75 q 494 -14 607 -14 z m 397 1060 l 290 1060 l 442 1193 l 546 1193 l 699 1060 l 592 1060 l 464 1142 l 525 1142 l 397 1060 z "},"Ü":{"ha":989,"x_min":121,"x_max":868,"o":"m 494 -14 l 494 -14 q 299 31 383 -14 q 167 158 214 75 q 121 357 121 240 l 121 357 l 121 972 l 232 972 l 232 358 q 265 213 232 272 q 357 122 297 153 q 494 90 417 90 l 494 90 q 633 122 574 90 q 724 213 692 153 q 757 358 757 272 l 757 358 l 757 972 l 868 972 l 868 357 q 822 158 868 240 q 691 31 775 75 q 494 -14 607 -14 z m 689 1060 l 575 1060 l 575 1164 l 689 1164 l 689 1060 z m 413 1060 l 299 1060 l 299 1164 l 413 1164 l 413 1060 z "},"Ù":{"ha":989,"x_min":121,"x_max":868,"o":"m 494 -14 l 494 -14 q 299 31 383 -14 q 167 158 214 75 q 121 357 121 240 l 121 357 l 121 972 l 232 972 l 232 358 q 265 213 232 272 q 357 122 297 153 q 494 90 417 90 l 494 90 q 633 122 574 90 q 724 213 692 153 q 757 358 757 272 l 757 358 l 757 972 l 868 972 l 868 357 q 822 158 868 240 q 691 31 775 75 q 494 -14 607 -14 z m 549 1060 l 453 1060 l 301 1193 l 460 1193 l 549 1060 z "},"Ű":{"ha":989,"x_min":121,"x_max":868,"o":"m 494 -14 l 494 -14 q 299 31 383 -14 q 167 158 214 75 q 121 357 121 240 l 121 357 l 121 972 l 232 972 l 232 358 q 265 213 232 272 q 357 122 297 153 q 494 90 417 90 l 494 90 q 633 122 574 90 q 724 213 692 153 q 757 358 757 272 l 757 358 l 757 972 l 868 972 l 868 357 q 822 158 868 240 q 691 31 775 75 q 494 -14 607 -14 z m 642 1060 l 554 1060 l 653 1193 l 803 1193 l 642 1060 z m 415 1060 l 328 1060 l 426 1193 l 576 1193 l 415 1060 z "},"Ū":{"ha":989,"x_min":121,"x_max":868,"o":"m 494 -14 l 494 -14 q 299 31 383 -14 q 167 158 214 75 q 121 357 121 240 l 121 357 l 121 972 l 232 972 l 232 358 q 265 213 232 272 q 357 122 297 153 q 494 90 417 90 l 494 90 q 633 122 574 90 q 724 213 692 153 q 757 358 757 272 l 757 358 l 757 972 l 868 972 l 868 357 q 822 158 868 240 q 691 31 775 75 q 494 -14 607 -14 z m 672 1079 l 317 1079 l 317 1167 l 672 1167 l 672 1079 z "},"Ų":{"ha":989,"x_min":121,"x_max":868,"o":"m 494 -14 l 494 -14 q 299 31 383 -14 q 167 158 214 75 q 121 357 121 240 l 121 357 l 121 972 l 232 972 l 232 358 q 265 213 232 272 q 357 122 297 153 q 494 90 417 90 l 494 90 q 633 122 574 90 q 724 213 692 153 q 757 358 757 272 l 757 358 l 757 972 l 868 972 l 868 357 q 822 158 868 240 q 691 31 775 75 q 494 -14 607 -14 z m 636 -278 l 514 -278 q 461 -267 483 -278 q 428 -237 439 -257 q 422 -192 418 -218 q 443 -136 425 -167 l 443 -136 l 564 57 l 636 14 l 490 -226 l 481 -194 l 636 -194 l 636 -278 z "},"Ů":{"ha":989,"x_min":121,"x_max":868,"o":"m 494 -14 l 494 -14 q 299 31 383 -14 q 167 158 214 75 q 121 357 121 240 l 121 357 l 121 972 l 232 972 l 232 358 q 265 213 232 272 q 357 122 297 153 q 494 90 417 90 l 494 90 q 633 122 574 90 q 724 213 692 153 q 757 358 757 272 l 757 358 l 757 972 l 868 972 l 868 357 q 822 158 868 240 q 691 31 775 75 q 494 -14 607 -14 z m 494 1026 l 494 1026 q 394 1057 432 1026 q 356 1139 356 1088 l 356 1139 q 394 1221 356 1190 q 494 1251 432 1251 l 494 1251 q 595 1221 557 1251 q 633 1139 633 1190 l 633 1139 q 595 1057 633 1088 q 494 1026 557 1026 z m 494 1082 l 494 1082 q 558 1139 558 1082 l 558 1139 q 494 1194 558 1194 l 494 1194 q 431 1139 431 1194 l 431 1139 q 494 1082 431 1082 z "},"Ũ":{"ha":989,"x_min":121,"x_max":868,"o":"m 494 -14 l 494 -14 q 299 31 383 -14 q 167 158 214 75 q 121 357 121 240 l 121 357 l 121 972 l 232 972 l 232 358 q 265 213 232 272 q 357 122 297 153 q 494 90 417 90 l 494 90 q 633 122 574 90 q 724 213 692 153 q 757 358 757 272 l 757 358 l 757 972 l 868 972 l 868 357 q 822 158 868 240 q 691 31 775 75 q 494 -14 607 -14 z m 588 1042 l 588 1042 q 510 1061 542 1042 q 455 1099 478 1081 q 411 1118 432 1118 l 411 1118 q 381 1107 393 1118 q 357 1064 368 1096 l 357 1064 l 281 1064 q 303 1139 288 1108 q 343 1186 318 1169 q 404 1203 368 1203 l 404 1203 q 480 1184 449 1203 q 536 1147 511 1165 q 582 1128 561 1128 l 582 1128 q 614 1140 601 1128 q 638 1186 626 1151 l 638 1186 l 713 1186 q 671 1075 703 1108 q 588 1042 639 1042 z "},"V":{"ha":885,"x_min":25,"x_max":860,"o":"m 490 0 l 393 0 l 25 972 l 140 972 l 440 182 l 446 182 l 744 972 l 860 972 l 490 0 z "},"W":{"ha":1356,"x_min":36,"x_max":1319,"o":"m 410 0 l 307 0 l 36 972 l 150 972 l 365 181 l 369 181 l 615 972 l 750 972 l 996 181 l 1000 181 l 1215 972 l 1319 972 l 1049 0 l 947 0 l 681 847 l 676 847 l 410 0 z "},"Ẃ":{"ha":1356,"x_min":36,"x_max":1319,"o":"m 410 0 l 307 0 l 36 972 l 150 972 l 365 181 l 369 181 l 615 972 l 750 972 l 996 181 l 1000 181 l 1215 972 l 1319 972 l 1049 0 l 947 0 l 681 847 l 676 847 l 410 0 z m 725 1060 l 629 1060 l 718 1193 l 876 1193 l 725 1060 z "},"Ŵ":{"ha":1356,"x_min":36,"x_max":1319,"o":"m 410 0 l 307 0 l 36 972 l 150 972 l 365 181 l 369 181 l 615 972 l 750 972 l 996 181 l 1000 181 l 1215 972 l 1319 972 l 1049 0 l 947 0 l 681 847 l 676 847 l 410 0 z m 586 1060 l 479 1060 l 631 1193 l 735 1193 l 888 1060 l 781 1060 l 653 1142 l 714 1142 l 586 1060 z "},"Ẅ":{"ha":1356,"x_min":36,"x_max":1319,"o":"m 410 0 l 307 0 l 36 972 l 150 972 l 365 181 l 369 181 l 615 972 l 750 972 l 996 181 l 1000 181 l 1215 972 l 1319 972 l 1049 0 l 947 0 l 681 847 l 676 847 l 410 0 z m 878 1060 l 764 1060 l 764 1164 l 878 1164 l 878 1060 z m 601 1060 l 488 1060 l 488 1164 l 601 1164 l 601 1060 z "},"Ẁ":{"ha":1356,"x_min":36,"x_max":1319,"o":"m 410 0 l 307 0 l 36 972 l 150 972 l 365 181 l 369 181 l 615 972 l 750 972 l 996 181 l 1000 181 l 1215 972 l 1319 972 l 1049 0 l 947 0 l 681 847 l 676 847 l 410 0 z m 738 1060 l 642 1060 l 490 1193 l 649 1193 l 738 1060 z "},"X":{"ha":838,"x_min":19,"x_max":818,"o":"m 151 0 l 19 0 l 344 497 l 38 972 l 172 972 l 447 525 l 392 525 l 668 972 l 799 972 l 493 497 l 818 0 l 685 0 l 390 468 l 444 468 l 151 0 z "},"Y":{"ha":869,"x_min":21,"x_max":847,"o":"m 490 0 l 379 0 l 379 410 l 21 972 l 146 972 l 457 482 l 413 482 l 721 972 l 847 972 l 490 411 l 490 0 z "},"Ý":{"ha":869,"x_min":21,"x_max":847,"o":"m 490 0 l 379 0 l 379 410 l 21 972 l 146 972 l 457 482 l 413 482 l 721 972 l 847 972 l 490 411 l 490 0 z m 475 1060 l 379 1060 l 468 1193 l 626 1193 l 475 1060 z "},"Ŷ":{"ha":869,"x_min":21,"x_max":847,"o":"m 490 0 l 379 0 l 379 410 l 21 972 l 146 972 l 457 482 l 413 482 l 721 972 l 847 972 l 490 411 l 490 0 z m 336 1060 l 229 1060 l 381 1193 l 485 1193 l 638 1060 l 531 1060 l 403 1142 l 464 1142 l 336 1060 z "},"Ÿ":{"ha":869,"x_min":21,"x_max":847,"o":"m 490 0 l 379 0 l 379 410 l 21 972 l 146 972 l 457 482 l 413 482 l 721 972 l 847 972 l 490 411 l 490 0 z m 628 1060 l 514 1060 l 514 1164 l 628 1164 l 628 1060 z m 351 1060 l 238 1060 l 238 1164 l 351 1164 l 351 1060 z "},"Ỳ":{"ha":869,"x_min":21,"x_max":847,"o":"m 490 0 l 379 0 l 379 410 l 21 972 l 146 972 l 457 482 l 413 482 l 721 972 l 847 972 l 490 411 l 490 0 z m 488 1060 l 392 1060 l 240 1193 l 399 1193 l 488 1060 z "},"Ỹ":{"ha":869,"x_min":21,"x_max":847,"o":"m 490 0 l 379 0 l 379 410 l 21 972 l 146 972 l 457 482 l 413 482 l 721 972 l 847 972 l 490 411 l 490 0 z m 526 1042 l 526 1042 q 449 1061 481 1042 q 394 1099 417 1081 q 350 1118 371 1118 l 350 1118 q 319 1107 332 1118 q 296 1064 307 1096 l 296 1064 l 219 1064 q 242 1139 226 1108 q 282 1186 257 1169 q 343 1203 307 1203 l 343 1203 q 419 1184 388 1203 q 475 1147 450 1165 q 521 1128 500 1128 l 521 1128 q 553 1140 540 1128 q 576 1186 565 1151 l 576 1186 l 651 1186 q 610 1075 642 1108 q 526 1042 578 1042 z "},"Z":{"ha":832,"x_min":38,"x_max":790,"o":"m 626 914 l 660 874 l 51 874 l 51 972 l 790 972 l 200 58 l 167 99 l 783 99 l 783 0 l 38 0 l 626 914 z "},"Ź":{"ha":832,"x_min":38,"x_max":790,"o":"m 626 914 l 660 874 l 51 874 l 51 972 l 790 972 l 200 58 l 167 99 l 783 99 l 783 0 l 38 0 l 626 914 z m 463 1060 l 367 1060 l 456 1193 l 614 1193 l 463 1060 z "},"Ž":{"ha":832,"x_min":38,"x_max":790,"o":"m 626 914 l 660 874 l 51 874 l 51 972 l 790 972 l 200 58 l 167 99 l 783 99 l 783 0 l 38 0 l 626 914 z m 472 1060 l 368 1060 l 217 1193 l 324 1193 l 451 1111 l 390 1111 l 518 1193 l 625 1193 l 472 1060 z "},"Ż":{"ha":832,"x_min":38,"x_max":790,"o":"m 626 914 l 660 874 l 51 874 l 51 972 l 790 972 l 200 58 l 167 99 l 783 99 l 783 0 l 38 0 l 626 914 z m 478 1060 l 364 1060 l 364 1164 l 478 1164 l 478 1060 z "},"a":{"ha":779,"x_min":68,"x_max":758,"o":"m 297 -14 l 297 -14 q 185 7 238 -14 q 100 69 132 28 q 68 174 68 111 l 68 174 q 100 285 68 236 q 194 369 132 335 q 346 415 256 403 l 346 415 l 554 446 l 554 365 l 346 332 q 256 303 293 324 q 199 253 218 283 q 179 185 179 224 l 179 185 q 210 107 179 138 q 308 76 240 76 l 308 76 q 424 102 372 76 q 505 172 475 128 q 535 272 535 217 l 535 272 l 535 486 q 496 594 535 560 q 375 629 457 629 l 375 629 q 289 617 324 629 q 232 577 254 604 q 196 506 210 550 l 196 506 l 93 506 q 143 623 104 575 q 244 697 182 671 q 382 722 306 722 l 382 722 q 520 696 463 722 q 609 616 578 669 q 640 482 640 563 l 640 482 l 640 43 l 593 90 l 758 90 l 758 0 l 692 0 q 613 14 647 0 q 558 56 578 28 q 539 126 539 83 l 539 126 l 539 179 l 586 132 l 533 132 q 440 25 501 64 q 297 -14 379 -14 z "},"á":{"ha":779,"x_min":68,"x_max":758,"o":"m 297 -14 l 297 -14 q 185 7 238 -14 q 100 69 132 28 q 68 174 68 111 l 68 174 q 100 285 68 236 q 194 369 132 335 q 346 415 256 403 l 346 415 l 554 446 l 554 365 l 346 332 q 256 303 293 324 q 199 253 218 283 q 179 185 179 224 l 179 185 q 210 107 179 138 q 308 76 240 76 l 308 76 q 424 102 372 76 q 505 172 475 128 q 535 272 535 217 l 535 272 l 535 486 q 496 594 535 560 q 375 629 457 629 l 375 629 q 289 617 324 629 q 232 577 254 604 q 196 506 210 550 l 196 506 l 93 506 q 143 623 104 575 q 244 697 182 671 q 382 722 306 722 l 382 722 q 520 696 463 722 q 609 616 578 669 q 640 482 640 563 l 640 482 l 640 43 l 593 90 l 758 90 l 758 0 l 692 0 q 613 14 647 0 q 558 56 578 28 q 539 126 539 83 l 539 126 l 539 179 l 586 132 l 533 132 q 440 25 501 64 q 297 -14 379 -14 z m 560 1010 l 408 829 l 313 829 l 429 1010 l 560 1010 z "},"ă":{"ha":779,"x_min":68,"x_max":758,"o":"m 297 -14 l 297 -14 q 185 7 238 -14 q 100 69 132 28 q 68 174 68 111 l 68 174 q 100 285 68 236 q 194 369 132 335 q 346 415 256 403 l 346 415 l 554 446 l 554 365 l 346 332 q 256 303 293 324 q 199 253 218 283 q 179 185 179 224 l 179 185 q 210 107 179 138 q 308 76 240 76 l 308 76 q 424 102 372 76 q 505 172 475 128 q 535 272 535 217 l 535 272 l 535 486 q 496 594 535 560 q 375 629 457 629 l 375 629 q 289 617 324 629 q 232 577 254 604 q 196 506 210 550 l 196 506 l 93 506 q 143 623 104 575 q 244 697 182 671 q 382 722 306 722 l 382 722 q 520 696 463 722 q 609 616 578 669 q 640 482 640 563 l 640 482 l 640 43 l 593 90 l 758 90 l 758 0 l 692 0 q 613 14 647 0 q 558 56 578 28 q 539 126 539 83 l 539 126 l 539 179 l 586 132 l 533 132 q 440 25 501 64 q 297 -14 379 -14 z m 367 822 l 367 822 q 274 840 318 822 q 204 898 231 857 q 178 1010 178 939 l 178 1010 l 268 1010 q 294 933 268 963 q 367 903 319 903 l 367 903 q 441 933 415 903 q 467 1010 467 963 l 467 1010 l 556 1010 q 528 898 556 939 q 458 840 501 857 q 367 822 415 822 z "},"ǎ":{"ha":779,"x_min":68,"x_max":758,"o":"m 297 -14 l 297 -14 q 185 7 238 -14 q 100 69 132 28 q 68 174 68 111 l 68 174 q 100 285 68 236 q 194 369 132 335 q 346 415 256 403 l 346 415 l 554 446 l 554 365 l 346 332 q 256 303 293 324 q 199 253 218 283 q 179 185 179 224 l 179 185 q 210 107 179 138 q 308 76 240 76 l 308 76 q 424 102 372 76 q 505 172 475 128 q 535 272 535 217 l 535 272 l 535 486 q 496 594 535 560 q 375 629 457 629 l 375 629 q 289 617 324 629 q 232 577 254 604 q 196 506 210 550 l 196 506 l 93 506 q 143 623 104 575 q 244 697 182 671 q 382 722 306 722 l 382 722 q 520 696 463 722 q 609 616 578 669 q 640 482 640 563 l 640 482 l 640 43 l 593 90 l 758 90 l 758 0 l 692 0 q 613 14 647 0 q 558 56 578 28 q 539 126 539 83 l 539 126 l 539 179 l 586 132 l 533 132 q 440 25 501 64 q 297 -14 379 -14 z m 411 829 l 321 829 l 163 1010 l 269 1010 l 397 881 l 336 881 l 464 1010 l 571 1010 l 411 829 z "},"â":{"ha":779,"x_min":68,"x_max":758,"o":"m 297 -14 l 297 -14 q 185 7 238 -14 q 100 69 132 28 q 68 174 68 111 l 68 174 q 100 285 68 236 q 194 369 132 335 q 346 415 256 403 l 346 415 l 554 446 l 554 365 l 346 332 q 256 303 293 324 q 199 253 218 283 q 179 185 179 224 l 179 185 q 210 107 179 138 q 308 76 240 76 l 308 76 q 424 102 372 76 q 505 172 475 128 q 535 272 535 217 l 535 272 l 535 486 q 496 594 535 560 q 375 629 457 629 l 375 629 q 289 617 324 629 q 232 577 254 604 q 196 506 210 550 l 196 506 l 93 506 q 143 623 104 575 q 244 697 182 671 q 382 722 306 722 l 382 722 q 520 696 463 722 q 609 616 578 669 q 640 482 640 563 l 640 482 l 640 43 l 593 90 l 758 90 l 758 0 l 692 0 q 613 14 647 0 q 558 56 578 28 q 539 126 539 83 l 539 126 l 539 179 l 586 132 l 533 132 q 440 25 501 64 q 297 -14 379 -14 z m 269 829 l 163 829 l 321 1010 l 411 1010 l 571 829 l 464 829 l 336 958 l 397 958 l 269 829 z "},"ä":{"ha":779,"x_min":68,"x_max":758,"o":"m 297 -14 l 297 -14 q 185 7 238 -14 q 100 69 132 28 q 68 174 68 111 l 68 174 q 100 285 68 236 q 194 369 132 335 q 346 415 256 403 l 346 415 l 554 446 l 554 365 l 346 332 q 256 303 293 324 q 199 253 218 283 q 179 185 179 224 l 179 185 q 210 107 179 138 q 308 76 240 76 l 308 76 q 424 102 372 76 q 505 172 475 128 q 535 272 535 217 l 535 272 l 535 486 q 496 594 535 560 q 375 629 457 629 l 375 629 q 289 617 324 629 q 232 577 254 604 q 196 506 210 550 l 196 506 l 93 506 q 143 623 104 575 q 244 697 182 671 q 382 722 306 722 l 382 722 q 520 696 463 722 q 609 616 578 669 q 640 482 640 563 l 640 482 l 640 43 l 593 90 l 758 90 l 758 0 l 692 0 q 613 14 647 0 q 558 56 578 28 q 539 126 539 83 l 539 126 l 539 179 l 586 132 l 533 132 q 440 25 501 64 q 297 -14 379 -14 z m 561 829 l 447 829 l 447 972 l 561 972 l 561 829 z m 285 829 l 171 829 l 171 972 l 285 972 l 285 829 z "},"à":{"ha":779,"x_min":68,"x_max":758,"o":"m 297 -14 l 297 -14 q 185 7 238 -14 q 100 69 132 28 q 68 174 68 111 l 68 174 q 100 285 68 236 q 194 369 132 335 q 346 415 256 403 l 346 415 l 554 446 l 554 365 l 346 332 q 256 303 293 324 q 199 253 218 283 q 179 185 179 224 l 179 185 q 210 107 179 138 q 308 76 240 76 l 308 76 q 424 102 372 76 q 505 172 475 128 q 535 272 535 217 l 535 272 l 535 486 q 496 594 535 560 q 375 629 457 629 l 375 629 q 289 617 324 629 q 232 577 254 604 q 196 506 210 550 l 196 506 l 93 506 q 143 623 104 575 q 244 697 182 671 q 382 722 306 722 l 382 722 q 520 696 463 722 q 609 616 578 669 q 640 482 640 563 l 640 482 l 640 43 l 593 90 l 758 90 l 758 0 l 692 0 q 613 14 647 0 q 558 56 578 28 q 539 126 539 83 l 539 126 l 539 179 l 586 132 l 533 132 q 440 25 501 64 q 297 -14 379 -14 z m 421 829 l 325 829 l 174 1010 l 304 1010 l 421 829 z "},"ā":{"ha":779,"x_min":68,"x_max":758,"o":"m 297 -14 l 297 -14 q 185 7 238 -14 q 100 69 132 28 q 68 174 68 111 l 68 174 q 100 285 68 236 q 194 369 132 335 q 346 415 256 403 l 346 415 l 554 446 l 554 365 l 346 332 q 256 303 293 324 q 199 253 218 283 q 179 185 179 224 l 179 185 q 210 107 179 138 q 308 76 240 76 l 308 76 q 424 102 372 76 q 505 172 475 128 q 535 272 535 217 l 535 272 l 535 486 q 496 594 535 560 q 375 629 457 629 l 375 629 q 289 617 324 629 q 232 577 254 604 q 196 506 210 550 l 196 506 l 93 506 q 143 623 104 575 q 244 697 182 671 q 382 722 306 722 l 382 722 q 520 696 463 722 q 609 616 578 669 q 640 482 640 563 l 640 482 l 640 43 l 593 90 l 758 90 l 758 0 l 692 0 q 613 14 647 0 q 558 56 578 28 q 539 126 539 83 l 539 126 l 539 179 l 586 132 l 533 132 q 440 25 501 64 q 297 -14 379 -14 z m 544 840 l 189 840 l 189 931 l 544 931 l 544 840 z "},"ą":{"ha":779,"x_min":68,"x_max":758,"o":"m 297 -14 l 297 -14 q 185 7 238 -14 q 100 69 132 28 q 68 174 68 111 l 68 174 q 100 285 68 236 q 194 369 132 335 q 346 415 256 403 l 346 415 l 554 446 l 554 365 l 346 332 q 256 303 293 324 q 199 253 218 283 q 179 185 179 224 l 179 185 q 210 107 179 138 q 308 76 240 76 l 308 76 q 424 102 372 76 q 505 172 475 128 q 535 272 535 217 l 535 272 l 535 486 q 496 594 535 560 q 375 629 457 629 l 375 629 q 289 617 324 629 q 232 577 254 604 q 196 506 210 550 l 196 506 l 93 506 q 143 623 104 575 q 244 697 182 671 q 382 722 306 722 l 382 722 q 520 696 463 722 q 609 616 578 669 q 640 482 640 563 l 640 482 l 640 43 l 593 90 l 758 90 l 758 0 l 692 0 q 613 14 647 0 q 558 56 578 28 q 539 126 539 83 l 539 126 l 539 179 l 586 132 l 533 132 q 440 25 501 64 q 297 -14 379 -14 z m 758 -292 l 636 -292 q 583 -281 606 -292 q 551 -251 561 -271 q 544 -206 540 -232 q 565 -150 547 -181 l 565 -150 l 686 43 l 758 0 l 613 -240 l 603 -208 l 758 -208 l 758 -292 z "},"å":{"ha":779,"x_min":68,"x_max":758,"o":"m 297 -14 l 297 -14 q 185 7 238 -14 q 100 69 132 28 q 68 174 68 111 l 68 174 q 100 285 68 236 q 194 369 132 335 q 346 415 256 403 l 346 415 l 554 446 l 554 365 l 346 332 q 256 303 293 324 q 199 253 218 283 q 179 185 179 224 l 179 185 q 210 107 179 138 q 308 76 240 76 l 308 76 q 424 102 372 76 q 505 172 475 128 q 535 272 535 217 l 535 272 l 535 486 q 496 594 535 560 q 375 629 457 629 l 375 629 q 289 617 324 629 q 232 577 254 604 q 196 506 210 550 l 196 506 l 93 506 q 143 623 104 575 q 244 697 182 671 q 382 722 306 722 l 382 722 q 520 696 463 722 q 609 616 578 669 q 640 482 640 563 l 640 482 l 640 43 l 593 90 l 758 90 l 758 0 l 692 0 q 613 14 647 0 q 558 56 578 28 q 539 126 539 83 l 539 126 l 539 179 l 586 132 l 533 132 q 440 25 501 64 q 297 -14 379 -14 z m 367 803 l 367 803 q 266 838 304 803 q 228 929 228 872 l 228 929 q 266 1021 228 986 q 367 1056 304 1056 l 367 1056 q 467 1021 429 1056 q 506 929 506 986 l 506 929 q 467 838 506 872 q 367 803 429 803 z m 367 865 l 367 865 q 414 882 397 865 q 431 929 431 899 l 431 929 q 414 975 431 958 q 367 992 397 992 l 367 992 q 319 975 336 992 q 303 929 303 958 l 303 929 q 319 882 303 899 q 367 865 336 865 z "},"ã":{"ha":779,"x_min":68,"x_max":758,"o":"m 297 -14 l 297 -14 q 185 7 238 -14 q 100 69 132 28 q 68 174 68 111 l 68 174 q 100 285 68 236 q 194 369 132 335 q 346 415 256 403 l 346 415 l 554 446 l 554 365 l 346 332 q 256 303 293 324 q 199 253 218 283 q 179 185 179 224 l 179 185 q 210 107 179 138 q 308 76 240 76 l 308 76 q 424 102 372 76 q 505 172 475 128 q 535 272 535 217 l 535 272 l 535 486 q 496 594 535 560 q 375 629 457 629 l 375 629 q 289 617 324 629 q 232 577 254 604 q 196 506 210 550 l 196 506 l 93 506 q 143 623 104 575 q 244 697 182 671 q 382 722 306 722 l 382 722 q 520 696 463 722 q 609 616 578 669 q 640 482 640 563 l 640 482 l 640 43 l 593 90 l 758 90 l 758 0 l 692 0 q 613 14 647 0 q 558 56 578 28 q 539 126 539 83 l 539 126 l 539 179 l 586 132 l 533 132 q 440 25 501 64 q 297 -14 379 -14 z m 460 822 l 460 822 q 399 837 425 822 q 352 870 372 851 q 315 903 332 889 q 283 918 299 918 l 283 918 q 253 902 265 918 q 229 854 240 886 l 229 854 l 153 854 q 193 961 164 919 q 276 1003 222 1003 l 276 1003 q 335 988 310 1003 q 382 956 361 974 q 420 923 403 938 q 454 908 438 908 l 454 908 q 486 925 474 908 q 510 976 499 942 l 510 976 l 585 976 q 561 890 578 925 q 519 839 544 856 q 460 822 494 822 z "},"æ":{"ha":1193,"x_min":69,"x_max":1131,"o":"m 310 -14 l 310 -14 q 136 33 203 -14 q 69 174 69 81 l 69 174 q 103 285 69 236 q 208 365 138 333 q 392 406 279 396 l 392 406 l 542 419 l 542 335 l 400 322 q 273 297 321 315 q 203 251 225 279 q 182 185 182 224 l 182 185 q 212 107 182 138 q 306 76 242 76 l 306 76 q 465 128 408 76 q 522 272 522 179 l 522 272 l 522 486 q 485 594 522 560 q 369 629 447 629 l 369 629 q 256 601 296 629 q 197 506 217 572 l 197 506 l 93 506 q 140 623 103 575 q 238 697 178 671 q 372 722 297 722 l 372 722 q 524 687 465 722 q 606 578 583 651 l 606 578 l 582 578 q 684 683 618 643 q 832 722 750 722 l 832 722 q 998 678 932 722 q 1097 549 1064 635 q 1131 338 1131 464 l 1131 338 l 593 338 l 593 424 l 1068 424 l 1024 376 q 1004 515 1025 458 q 941 599 983 571 q 833 628 899 628 l 833 628 q 726 598 771 628 q 658 507 682 568 q 635 353 635 446 l 635 353 q 687 148 635 215 q 851 81 739 81 l 851 81 q 957 108 910 81 q 1031 190 1004 135 l 1031 190 l 1115 150 q 1013 30 1082 74 q 849 -14 944 -14 l 849 -14 q 712 13 771 -14 q 614 90 653 40 q 554 206 575 139 l 554 206 l 592 206 q 533 87 574 136 q 437 12 493 38 q 310 -14 381 -14 z "},"ǽ":{"ha":1193,"x_min":69,"x_max":1131,"o":"m 310 -14 l 310 -14 q 136 33 203 -14 q 69 174 69 81 l 69 174 q 103 285 69 236 q 208 365 138 333 q 392 406 279 396 l 392 406 l 542 419 l 542 335 l 400 322 q 273 297 321 315 q 203 251 225 279 q 182 185 182 224 l 182 185 q 212 107 182 138 q 306 76 242 76 l 306 76 q 465 128 408 76 q 522 272 522 179 l 522 272 l 522 486 q 485 594 522 560 q 369 629 447 629 l 369 629 q 256 601 296 629 q 197 506 217 572 l 197 506 l 93 506 q 140 623 103 575 q 238 697 178 671 q 372 722 297 722 l 372 722 q 524 687 465 722 q 606 578 583 651 l 606 578 l 582 578 q 684 683 618 643 q 832 722 750 722 l 832 722 q 998 678 932 722 q 1097 549 1064 635 q 1131 338 1131 464 l 1131 338 l 593 338 l 593 424 l 1068 424 l 1024 376 q 1004 515 1025 458 q 941 599 983 571 q 833 628 899 628 l 833 628 q 726 598 771 628 q 658 507 682 568 q 635 353 635 446 l 635 353 q 687 148 635 215 q 851 81 739 81 l 851 81 q 957 108 910 81 q 1031 190 1004 135 l 1031 190 l 1115 150 q 1013 30 1082 74 q 849 -14 944 -14 l 849 -14 q 712 13 771 -14 q 614 90 653 40 q 554 206 575 139 l 554 206 l 592 206 q 533 87 574 136 q 437 12 493 38 q 310 -14 381 -14 z m 790 1010 l 639 829 l 543 829 l 660 1010 l 790 1010 z "},"b":{"ha":824,"x_min":118,"x_max":756,"o":"m 222 0 l 118 0 l 118 972 l 222 972 l 222 561 l 229 561 q 321 682 261 642 q 465 722 381 722 l 465 722 q 617 676 551 722 q 719 547 682 629 q 756 354 756 464 l 756 354 q 719 161 756 244 q 617 32 682 78 q 465 -14 551 -14 l 465 -14 q 363 3 408 -14 q 285 56 318 21 q 231 142 253 90 l 231 142 l 222 142 l 222 0 z m 436 83 l 436 83 q 590 156 535 83 q 644 354 644 228 l 644 354 q 590 553 644 482 q 436 625 535 625 l 436 625 q 276 553 333 625 q 219 354 219 482 l 219 354 q 276 156 219 228 q 436 83 333 83 z "},"c":{"ha":724,"x_min":67,"x_max":669,"o":"m 390 -14 l 390 -14 q 222 32 294 -14 q 108 160 149 78 q 67 353 67 243 l 67 353 q 108 547 67 464 q 222 676 149 629 q 390 722 294 722 l 390 722 q 558 675 486 722 q 665 546 631 628 l 665 546 l 565 513 q 498 596 543 567 q 390 625 453 625 l 390 625 q 234 553 290 625 q 178 353 178 481 l 178 353 q 234 155 178 226 q 390 83 290 83 l 390 83 q 503 116 457 83 q 571 208 550 149 l 571 208 l 669 174 q 564 36 638 86 q 390 -14 490 -14 z "},"ć":{"ha":724,"x_min":67,"x_max":669,"o":"m 390 -14 l 390 -14 q 222 32 294 -14 q 108 160 149 78 q 67 353 67 243 l 67 353 q 108 547 67 464 q 222 676 149 629 q 390 722 294 722 l 390 722 q 558 675 486 722 q 665 546 631 628 l 665 546 l 565 513 q 498 596 543 567 q 390 625 453 625 l 390 625 q 234 553 290 625 q 178 353 178 481 l 178 353 q 234 155 178 226 q 390 83 290 83 l 390 83 q 503 116 457 83 q 571 208 550 149 l 571 208 l 669 174 q 564 36 638 86 q 390 -14 490 -14 z m 578 1010 l 426 829 l 331 829 l 447 1010 l 578 1010 z "},"č":{"ha":724,"x_min":67,"x_max":669,"o":"m 390 -14 l 390 -14 q 222 32 294 -14 q 108 160 149 78 q 67 353 67 243 l 67 353 q 108 547 67 464 q 222 676 149 629 q 390 722 294 722 l 390 722 q 558 675 486 722 q 665 546 631 628 l 665 546 l 565 513 q 498 596 543 567 q 390 625 453 625 l 390 625 q 234 553 290 625 q 178 353 178 481 l 178 353 q 234 155 178 226 q 390 83 290 83 l 390 83 q 503 116 457 83 q 571 208 550 149 l 571 208 l 669 174 q 564 36 638 86 q 390 -14 490 -14 z m 429 829 l 339 829 l 181 1010 l 288 1010 l 415 881 l 354 881 l 482 1010 l 589 1010 l 429 829 z "},"ç":{"ha":724,"x_min":67,"x_max":669,"o":"m 390 -14 l 390 -14 q 222 32 294 -14 q 108 160 149 78 q 67 353 67 243 l 67 353 q 108 547 67 464 q 222 676 149 629 q 390 722 294 722 l 390 722 q 558 675 486 722 q 665 546 631 628 l 665 546 l 565 513 q 498 596 543 567 q 390 625 453 625 l 390 625 q 234 553 290 625 q 178 353 178 481 l 178 353 q 234 155 178 226 q 390 83 290 83 l 390 83 q 503 116 457 83 q 571 208 550 149 l 571 208 l 669 174 q 564 36 638 86 q 390 -14 490 -14 z m 356 -292 l 240 -292 l 240 -214 l 367 -214 q 408 -206 394 -214 q 421 -179 421 -197 l 421 -179 q 408 -151 421 -160 q 367 -143 394 -143 l 367 -143 l 296 -143 l 329 13 l 426 13 l 399 -121 l 361 -83 l 383 -83 q 488 -110 456 -83 q 519 -179 519 -137 l 519 -179 q 474 -261 519 -231 q 356 -292 429 -292 l 356 -292 z "},"ĉ":{"ha":724,"x_min":67,"x_max":669,"o":"m 390 -14 l 390 -14 q 222 32 294 -14 q 108 160 149 78 q 67 353 67 243 l 67 353 q 108 547 67 464 q 222 676 149 629 q 390 722 294 722 l 390 722 q 558 675 486 722 q 665 546 631 628 l 665 546 l 565 513 q 498 596 543 567 q 390 625 453 625 l 390 625 q 234 553 290 625 q 178 353 178 481 l 178 353 q 234 155 178 226 q 390 83 290 83 l 390 83 q 503 116 457 83 q 571 208 550 149 l 571 208 l 669 174 q 564 36 638 86 q 390 -14 490 -14 z m 288 829 l 181 829 l 339 1010 l 429 1010 l 589 829 l 482 829 l 354 958 l 415 958 l 288 829 z "},"ċ":{"ha":724,"x_min":67,"x_max":669,"o":"m 390 -14 l 390 -14 q 222 32 294 -14 q 108 160 149 78 q 67 353 67 243 l 67 353 q 108 547 67 464 q 222 676 149 629 q 390 722 294 722 l 390 722 q 558 675 486 722 q 665 546 631 628 l 665 546 l 565 513 q 498 596 543 567 q 390 625 453 625 l 390 625 q 234 553 290 625 q 178 353 178 481 l 178 353 q 234 155 178 226 q 390 83 290 83 l 390 83 q 503 116 457 83 q 571 208 550 149 l 571 208 l 669 174 q 564 36 638 86 q 390 -14 490 -14 z m 442 829 l 328 829 l 328 972 l 442 972 l 442 829 z "},"d":{"ha":824,"x_min":68,"x_max":706,"o":"m 706 972 l 706 0 l 601 0 l 601 142 l 593 142 q 539 56 572 90 q 460 3 506 21 q 358 -14 415 -14 l 358 -14 q 207 32 272 -14 q 105 161 142 78 q 68 354 68 244 l 68 354 q 105 547 68 464 q 207 676 142 629 q 358 722 272 722 l 358 722 q 504 682 444 722 q 594 561 564 642 l 594 561 l 601 561 l 601 972 l 706 972 z m 388 83 l 388 83 q 547 156 490 83 q 604 354 604 228 l 604 354 q 547 553 604 482 q 388 625 490 625 l 388 625 q 235 553 290 625 q 179 354 179 482 l 179 354 q 235 156 179 228 q 388 83 290 83 z "},"ď":{"ha":910,"x_min":68,"x_max":926,"o":"m 706 972 l 706 0 l 601 0 l 601 142 l 593 142 q 539 56 572 90 q 460 3 506 21 q 358 -14 415 -14 l 358 -14 q 207 32 272 -14 q 105 161 142 78 q 68 354 68 244 l 68 354 q 105 547 68 464 q 207 676 142 629 q 358 722 272 722 l 358 722 q 504 682 444 722 q 594 561 564 642 l 594 561 l 601 561 l 601 972 l 706 972 z m 388 83 l 388 83 q 547 156 490 83 q 604 354 604 228 l 604 354 q 547 553 604 482 q 388 625 490 625 l 388 625 q 235 553 290 625 q 179 354 179 482 l 179 354 q 235 156 179 228 q 388 83 290 83 z m 904 735 l 817 735 l 817 972 l 926 972 l 904 735 z "},"đ":{"ha":824,"x_min":68,"x_max":800,"o":"m 800 807 l 399 807 l 399 888 l 800 888 l 800 807 z m 706 972 l 706 0 l 601 0 l 601 142 l 593 142 q 539 56 572 90 q 460 3 506 21 q 358 -14 415 -14 l 358 -14 q 207 32 272 -14 q 105 161 142 78 q 68 354 68 244 l 68 354 q 105 547 68 464 q 207 676 142 629 q 358 722 272 722 l 358 722 q 504 682 444 722 q 594 561 564 642 l 594 561 l 601 561 l 601 972 l 706 972 z m 388 83 l 388 83 q 547 156 490 83 q 604 354 604 228 l 604 354 q 547 553 604 482 q 388 625 490 625 l 388 625 q 235 553 290 625 q 179 354 179 482 l 179 354 q 235 156 179 228 q 388 83 290 83 z "},"ð":{"ha":782,"x_min":65,"x_max":711,"o":"m 394 -14 l 394 -14 q 222 27 296 -14 q 106 143 147 68 q 65 317 65 218 l 65 317 q 104 483 65 410 q 212 600 143 557 q 371 643 281 643 l 371 643 q 499 613 440 643 q 596 529 557 583 l 596 529 l 600 533 q 501 711 567 635 q 344 844 436 788 q 138 939 253 901 l 138 939 l 254 986 q 446 883 361 946 q 590 739 531 819 q 680 563 649 658 q 711 364 711 468 l 711 364 q 674 160 711 244 q 565 31 636 75 q 394 -14 494 -14 z m 392 83 l 392 83 q 549 147 490 83 q 607 319 607 211 l 607 319 q 548 487 607 425 q 388 549 489 549 l 388 549 q 231 487 289 549 q 172 319 172 425 l 172 319 q 231 147 172 211 q 392 83 290 83 z m 628 874 l 188 700 l 158 774 l 600 949 l 628 874 z "},"e":{"ha":753,"x_min":68,"x_max":690,"o":"m 403 -14 l 403 -14 q 222 31 297 -14 q 108 158 147 75 q 68 353 68 240 l 68 353 q 108 547 68 464 q 219 676 147 629 q 385 722 290 722 l 385 722 q 554 678 486 722 q 656 546 622 633 q 690 329 690 458 l 690 329 l 129 329 l 129 418 l 631 418 l 585 360 q 539 560 588 493 q 386 628 490 628 l 386 628 q 274 598 321 628 q 203 507 228 568 q 179 353 179 446 l 179 353 q 233 148 179 215 q 404 81 288 81 l 404 81 q 515 108 465 81 q 592 190 564 135 l 592 190 l 675 150 q 571 30 640 74 q 403 -14 501 -14 z "},"é":{"ha":753,"x_min":68,"x_max":690,"o":"m 403 -14 l 403 -14 q 222 31 297 -14 q 108 158 147 75 q 68 353 68 240 l 68 353 q 108 547 68 464 q 219 676 147 629 q 385 722 290 722 l 385 722 q 554 678 486 722 q 656 546 622 633 q 690 329 690 458 l 690 329 l 129 329 l 129 418 l 631 418 l 585 360 q 539 560 588 493 q 386 628 490 628 l 386 628 q 274 598 321 628 q 203 507 228 568 q 179 353 179 446 l 179 353 q 233 148 179 215 q 404 81 288 81 l 404 81 q 515 108 465 81 q 592 190 564 135 l 592 190 l 675 150 q 571 30 640 74 q 403 -14 501 -14 z m 578 1010 l 426 829 l 331 829 l 447 1010 l 578 1010 z "},"ĕ":{"ha":753,"x_min":68,"x_max":690,"o":"m 403 -14 l 403 -14 q 222 31 297 -14 q 108 158 147 75 q 68 353 68 240 l 68 353 q 108 547 68 464 q 219 676 147 629 q 385 722 290 722 l 385 722 q 554 678 486 722 q 656 546 622 633 q 690 329 690 458 l 690 329 l 129 329 l 129 418 l 631 418 l 585 360 q 539 560 588 493 q 386 628 490 628 l 386 628 q 274 598 321 628 q 203 507 228 568 q 179 353 179 446 l 179 353 q 233 148 179 215 q 404 81 288 81 l 404 81 q 515 108 465 81 q 592 190 564 135 l 592 190 l 675 150 q 571 30 640 74 q 403 -14 501 -14 z m 385 822 l 385 822 q 292 840 336 822 q 222 898 249 857 q 196 1010 196 939 l 196 1010 l 286 1010 q 312 933 286 963 q 385 903 338 903 l 385 903 q 459 933 433 903 q 485 1010 485 963 l 485 1010 l 574 1010 q 547 898 574 939 q 476 840 519 857 q 385 822 433 822 z "},"ě":{"ha":753,"x_min":68,"x_max":690,"o":"m 403 -14 l 403 -14 q 222 31 297 -14 q 108 158 147 75 q 68 353 68 240 l 68 353 q 108 547 68 464 q 219 676 147 629 q 385 722 290 722 l 385 722 q 554 678 486 722 q 656 546 622 633 q 690 329 690 458 l 690 329 l 129 329 l 129 418 l 631 418 l 585 360 q 539 560 588 493 q 386 628 490 628 l 386 628 q 274 598 321 628 q 203 507 228 568 q 179 353 179 446 l 179 353 q 233 148 179 215 q 404 81 288 81 l 404 81 q 515 108 465 81 q 592 190 564 135 l 592 190 l 675 150 q 571 30 640 74 q 403 -14 501 -14 z m 429 829 l 339 829 l 181 1010 l 288 1010 l 415 881 l 354 881 l 482 1010 l 589 1010 l 429 829 z "},"ê":{"ha":753,"x_min":68,"x_max":690,"o":"m 403 -14 l 403 -14 q 222 31 297 -14 q 108 158 147 75 q 68 353 68 240 l 68 353 q 108 547 68 464 q 219 676 147 629 q 385 722 290 722 l 385 722 q 554 678 486 722 q 656 546 622 633 q 690 329 690 458 l 690 329 l 129 329 l 129 418 l 631 418 l 585 360 q 539 560 588 493 q 386 628 490 628 l 386 628 q 274 598 321 628 q 203 507 228 568 q 179 353 179 446 l 179 353 q 233 148 179 215 q 404 81 288 81 l 404 81 q 515 108 465 81 q 592 190 564 135 l 592 190 l 675 150 q 571 30 640 74 q 403 -14 501 -14 z m 288 829 l 181 829 l 339 1010 l 429 1010 l 589 829 l 482 829 l 354 958 l 415 958 l 288 829 z "},"ë":{"ha":753,"x_min":68,"x_max":690,"o":"m 403 -14 l 403 -14 q 222 31 297 -14 q 108 158 147 75 q 68 353 68 240 l 68 353 q 108 547 68 464 q 219 676 147 629 q 385 722 290 722 l 385 722 q 554 678 486 722 q 656 546 622 633 q 690 329 690 458 l 690 329 l 129 329 l 129 418 l 631 418 l 585 360 q 539 560 588 493 q 386 628 490 628 l 386 628 q 274 598 321 628 q 203 507 228 568 q 179 353 179 446 l 179 353 q 233 148 179 215 q 404 81 288 81 l 404 81 q 515 108 465 81 q 592 190 564 135 l 592 190 l 675 150 q 571 30 640 74 q 403 -14 501 -14 z m 579 829 l 465 829 l 465 972 l 579 972 l 579 829 z m 303 829 l 189 829 l 189 972 l 303 972 l 303 829 z "},"ė":{"ha":753,"x_min":68,"x_max":690,"o":"m 403 -14 l 403 -14 q 222 31 297 -14 q 108 158 147 75 q 68 353 68 240 l 68 353 q 108 547 68 464 q 219 676 147 629 q 385 722 290 722 l 385 722 q 554 678 486 722 q 656 546 622 633 q 690 329 690 458 l 690 329 l 129 329 l 129 418 l 631 418 l 585 360 q 539 560 588 493 q 386 628 490 628 l 386 628 q 274 598 321 628 q 203 507 228 568 q 179 353 179 446 l 179 353 q 233 148 179 215 q 404 81 288 81 l 404 81 q 515 108 465 81 q 592 190 564 135 l 592 190 l 675 150 q 571 30 640 74 q 403 -14 501 -14 z m 442 829 l 328 829 l 328 972 l 442 972 l 442 829 z "},"è":{"ha":753,"x_min":68,"x_max":690,"o":"m 403 -14 l 403 -14 q 222 31 297 -14 q 108 158 147 75 q 68 353 68 240 l 68 353 q 108 547 68 464 q 219 676 147 629 q 385 722 290 722 l 385 722 q 554 678 486 722 q 656 546 622 633 q 690 329 690 458 l 690 329 l 129 329 l 129 418 l 631 418 l 585 360 q 539 560 588 493 q 386 628 490 628 l 386 628 q 274 598 321 628 q 203 507 228 568 q 179 353 179 446 l 179 353 q 233 148 179 215 q 404 81 288 81 l 404 81 q 515 108 465 81 q 592 190 564 135 l 592 190 l 675 150 q 571 30 640 74 q 403 -14 501 -14 z m 439 829 l 343 829 l 192 1010 l 322 1010 l 439 829 z "},"ē":{"ha":753,"x_min":68,"x_max":690,"o":"m 403 -14 l 403 -14 q 222 31 297 -14 q 108 158 147 75 q 68 353 68 240 l 68 353 q 108 547 68 464 q 219 676 147 629 q 385 722 290 722 l 385 722 q 554 678 486 722 q 656 546 622 633 q 690 329 690 458 l 690 329 l 129 329 l 129 418 l 631 418 l 585 360 q 539 560 588 493 q 386 628 490 628 l 386 628 q 274 598 321 628 q 203 507 228 568 q 179 353 179 446 l 179 353 q 233 148 179 215 q 404 81 288 81 l 404 81 q 515 108 465 81 q 592 190 564 135 l 592 190 l 675 150 q 571 30 640 74 q 403 -14 501 -14 z m 563 840 l 207 840 l 207 931 l 563 931 l 563 840 z "},"ę":{"ha":753,"x_min":68,"x_max":690,"o":"m 582 -292 l 460 -292 q 407 -281 429 -292 q 374 -251 385 -271 q 367 -206 364 -232 q 389 -150 371 -181 l 389 -150 l 504 35 l 510 10 q 457 -8 483 -3 q 403 -14 431 -14 l 403 -14 q 222 31 297 -14 q 108 158 147 75 q 68 353 68 240 l 68 353 q 108 547 68 464 q 219 676 147 629 q 385 722 290 722 l 385 722 q 554 678 486 722 q 656 546 622 633 q 690 329 690 458 l 690 329 l 135 329 l 135 418 l 631 418 l 585 376 q 564 515 586 458 q 497 599 542 571 q 386 628 453 628 l 386 628 q 274 598 321 628 q 203 507 228 568 q 179 353 179 446 l 179 353 q 233 148 179 215 q 404 81 288 81 l 404 81 q 515 108 465 81 q 592 190 564 135 l 592 190 l 675 150 q 664 126 671 140 q 629 68 657 113 l 629 68 l 431 -249 l 408 -208 l 582 -208 l 582 -292 z "},"ẽ":{"ha":753,"x_min":68,"x_max":690,"o":"m 403 -14 l 403 -14 q 222 31 297 -14 q 108 158 147 75 q 68 353 68 240 l 68 353 q 108 547 68 464 q 219 676 147 629 q 385 722 290 722 l 385 722 q 554 678 486 722 q 656 546 622 633 q 690 329 690 458 l 690 329 l 129 329 l 129 418 l 631 418 l 585 360 q 539 560 588 493 q 386 628 490 628 l 386 628 q 274 598 321 628 q 203 507 228 568 q 179 353 179 446 l 179 353 q 233 148 179 215 q 404 81 288 81 l 404 81 q 515 108 465 81 q 592 190 564 135 l 592 190 l 675 150 q 571 30 640 74 q 403 -14 501 -14 z m 478 822 l 478 822 q 417 837 443 822 q 370 870 390 851 q 333 903 350 889 q 301 918 317 918 l 301 918 q 271 902 283 918 q 247 854 258 886 l 247 854 l 171 854 q 211 961 182 919 q 294 1003 240 1003 l 294 1003 q 353 988 328 1003 q 400 956 379 974 q 438 923 421 938 q 472 908 456 908 l 472 908 q 504 925 492 908 q 528 976 517 942 l 528 976 l 603 976 q 579 890 596 925 q 538 839 563 856 q 478 822 513 822 z "},"ə":{"ha":757,"x_min":60,"x_max":689,"o":"m 378 -14 l 378 -14 q 204 30 276 -14 q 96 161 132 74 q 67 379 60 249 l 67 379 l 628 379 l 628 290 l 126 290 l 172 349 q 215 147 158 213 q 376 81 272 81 l 376 81 q 526 149 475 81 q 578 356 578 217 l 578 356 q 531 560 578 493 q 367 628 483 628 l 367 628 q 249 601 306 628 q 165 518 193 575 l 165 518 l 82 558 q 194 678 117 635 q 368 722 271 722 l 368 722 q 546 678 475 722 q 653 551 617 633 q 689 356 689 468 l 689 356 q 651 163 689 246 q 542 33 613 79 q 378 -14 472 -14 z "},"f":{"ha":435,"x_min":39,"x_max":424,"o":"m 257 0 l 153 0 l 153 822 q 195 940 153 894 q 331 986 238 986 l 331 986 l 424 986 l 424 896 l 257 896 l 257 0 z m 406 615 l 39 615 l 39 708 l 406 708 l 406 615 z "},"g":{"ha":824,"x_min":68,"x_max":706,"o":"m 393 -292 l 393 -292 q 202 -247 282 -292 q 94 -121 122 -203 l 94 -121 l 189 -82 q 265 -171 214 -142 q 393 -200 317 -200 l 393 -200 q 505 -178 458 -200 q 576 -119 551 -157 q 601 -32 601 -82 l 601 -32 l 601 143 l 593 143 q 503 42 561 79 q 358 6 444 6 l 358 6 q 207 50 272 6 q 105 175 142 94 q 68 363 68 256 l 68 363 q 105 549 68 469 q 207 674 142 629 q 358 719 272 719 l 358 719 q 504 682 444 719 q 594 576 564 644 l 594 576 l 601 576 l 601 708 l 706 708 l 706 -31 q 684 -138 706 -90 q 622 -221 663 -186 q 523 -274 581 -256 q 393 -292 465 -292 z m 388 100 l 388 100 q 547 170 490 100 q 604 363 604 240 l 604 363 q 547 556 604 486 q 388 625 490 625 l 388 625 q 235 556 290 625 q 179 363 179 486 l 179 363 q 235 170 179 240 q 388 100 290 100 z "},"ğ":{"ha":824,"x_min":68,"x_max":706,"o":"m 393 -292 l 393 -292 q 202 -247 282 -292 q 94 -121 122 -203 l 94 -121 l 189 -82 q 265 -171 214 -142 q 393 -200 317 -200 l 393 -200 q 505 -178 458 -200 q 576 -119 551 -157 q 601 -32 601 -82 l 601 -32 l 601 143 l 593 143 q 503 42 561 79 q 358 6 444 6 l 358 6 q 207 50 272 6 q 105 175 142 94 q 68 363 68 256 l 68 363 q 105 549 68 469 q 207 674 142 629 q 358 719 272 719 l 358 719 q 504 682 444 719 q 594 576 564 644 l 594 576 l 601 576 l 601 708 l 706 708 l 706 -31 q 684 -138 706 -90 q 622 -221 663 -186 q 523 -274 581 -256 q 393 -292 465 -292 z m 388 100 l 388 100 q 547 170 490 100 q 604 363 604 240 l 604 363 q 547 556 604 486 q 388 625 490 625 l 388 625 q 235 556 290 625 q 179 363 179 486 l 179 363 q 235 170 179 240 q 388 100 290 100 z m 399 822 l 399 822 q 306 840 350 822 q 236 898 263 857 q 210 1010 210 939 l 210 1010 l 300 1010 q 326 933 300 963 q 399 903 351 903 l 399 903 q 473 933 447 903 q 499 1010 499 963 l 499 1010 l 588 1010 q 560 898 588 939 q 490 840 533 857 q 399 822 447 822 z "},"ĝ":{"ha":824,"x_min":68,"x_max":706,"o":"m 393 -292 l 393 -292 q 202 -247 282 -292 q 94 -121 122 -203 l 94 -121 l 189 -82 q 265 -171 214 -142 q 393 -200 317 -200 l 393 -200 q 505 -178 458 -200 q 576 -119 551 -157 q 601 -32 601 -82 l 601 -32 l 601 143 l 593 143 q 503 42 561 79 q 358 6 444 6 l 358 6 q 207 50 272 6 q 105 175 142 94 q 68 363 68 256 l 68 363 q 105 549 68 469 q 207 674 142 629 q 358 719 272 719 l 358 719 q 504 682 444 719 q 594 576 564 644 l 594 576 l 601 576 l 601 708 l 706 708 l 706 -31 q 684 -138 706 -90 q 622 -221 663 -186 q 523 -274 581 -256 q 393 -292 465 -292 z m 388 100 l 388 100 q 547 170 490 100 q 604 363 604 240 l 604 363 q 547 556 604 486 q 388 625 490 625 l 388 625 q 235 556 290 625 q 179 363 179 486 l 179 363 q 235 170 179 240 q 388 100 290 100 z m 301 829 l 194 829 l 353 1010 l 443 1010 l 603 829 l 496 829 l 368 958 l 429 958 l 301 829 z "},"ģ":{"ha":824,"x_min":68,"x_max":706,"o":"m 393 -292 l 393 -292 q 202 -247 282 -292 q 94 -121 122 -203 l 94 -121 l 189 -82 q 265 -171 214 -142 q 393 -200 317 -200 l 393 -200 q 505 -178 458 -200 q 576 -119 551 -157 q 601 -32 601 -82 l 601 -32 l 601 143 l 593 143 q 503 42 561 79 q 358 6 444 6 l 358 6 q 207 50 272 6 q 105 175 142 94 q 68 363 68 256 l 68 363 q 105 549 68 469 q 207 674 142 629 q 358 719 272 719 l 358 719 q 504 682 444 719 q 594 576 564 644 l 594 576 l 601 576 l 601 708 l 706 708 l 706 -31 q 684 -138 706 -90 q 622 -221 663 -186 q 523 -274 581 -256 q 393 -292 465 -292 z m 388 100 l 388 100 q 547 170 490 100 q 604 363 604 240 l 604 363 q 547 556 604 486 q 388 625 490 625 l 388 625 q 235 556 290 625 q 179 363 179 486 l 179 363 q 235 170 179 240 q 388 100 290 100 z m 440 1028 l 463 1028 l 463 975 l 399 975 l 399 851 l 356 919 l 460 919 l 460 828 l 332 828 l 332 936 q 337 979 332 958 q 365 1014 342 1000 q 440 1028 388 1028 l 440 1028 z "},"ġ":{"ha":824,"x_min":68,"x_max":706,"o":"m 393 -292 l 393 -292 q 202 -247 282 -292 q 94 -121 122 -203 l 94 -121 l 189 -82 q 265 -171 214 -142 q 393 -200 317 -200 l 393 -200 q 505 -178 458 -200 q 576 -119 551 -157 q 601 -32 601 -82 l 601 -32 l 601 143 l 593 143 q 503 42 561 79 q 358 6 444 6 l 358 6 q 207 50 272 6 q 105 175 142 94 q 68 363 68 256 l 68 363 q 105 549 68 469 q 207 674 142 629 q 358 719 272 719 l 358 719 q 504 682 444 719 q 594 576 564 644 l 594 576 l 601 576 l 601 708 l 706 708 l 706 -31 q 684 -138 706 -90 q 622 -221 663 -186 q 523 -274 581 -256 q 393 -292 465 -292 z m 388 100 l 388 100 q 547 170 490 100 q 604 363 604 240 l 604 363 q 547 556 604 486 q 388 625 490 625 l 388 625 q 235 556 290 625 q 179 363 179 486 l 179 363 q 235 170 179 240 q 388 100 290 100 z m 456 829 l 342 829 l 342 972 l 456 972 l 456 829 z "},"h":{"ha":792,"x_min":118,"x_max":683,"o":"m 222 0 l 118 0 l 118 972 l 222 972 l 222 574 l 229 574 q 326 689 263 656 q 458 722 390 722 l 458 722 q 579 692 529 722 q 656 605 629 663 q 683 461 683 547 l 683 461 l 683 0 l 579 0 l 579 439 q 538 581 579 536 q 419 625 497 625 l 419 625 q 320 601 365 625 q 249 526 275 578 q 222 389 222 475 l 222 389 l 222 0 z "},"ħ":{"ha":792,"x_min":24,"x_max":683,"o":"m 425 807 l 24 807 l 24 888 l 425 888 l 425 807 z m 222 0 l 118 0 l 118 972 l 222 972 l 222 574 l 229 574 q 326 689 263 656 q 458 722 390 722 l 458 722 q 579 692 529 722 q 656 605 629 663 q 683 461 683 547 l 683 461 l 683 0 l 579 0 l 579 439 q 538 581 579 536 q 419 625 497 625 l 419 625 q 320 601 365 625 q 249 526 275 578 q 222 389 222 475 l 222 389 l 222 0 z "},"ĥ":{"ha":792,"x_min":-29,"x_max":683,"o":"m 222 0 l 118 0 l 118 972 l 222 972 l 222 574 l 229 574 q 326 689 263 656 q 458 722 390 722 l 458 722 q 579 692 529 722 q 656 605 629 663 q 683 461 683 547 l 683 461 l 683 0 l 579 0 l 579 439 q 538 581 579 536 q 419 625 497 625 l 419 625 q 320 601 365 625 q 249 526 275 578 q 222 389 222 475 l 222 389 l 222 0 z m 78 1060 l -29 1060 l 122 1193 l 226 1193 l 379 1060 l 272 1060 l 144 1142 l 206 1142 l 78 1060 z "},"i":{"ha":340,"x_min":114,"x_max":228,"o":"m 222 0 l 118 0 l 118 708 l 222 708 l 222 0 z m 228 829 l 114 829 l 114 972 l 228 972 l 228 829 z "},"ı":{"ha":340,"x_min":118,"x_max":222,"o":"m 222 0 l 118 0 l 118 708 l 222 708 l 222 0 z "},"í":{"ha":340,"x_min":117,"x_max":364,"o":"m 222 0 l 118 0 l 118 708 l 222 708 l 222 0 z m 364 1010 l 213 829 l 117 829 l 233 1010 l 364 1010 z "},"ĭ":{"ha":340,"x_min":-18,"x_max":360,"o":"m 222 0 l 118 0 l 118 708 l 222 708 l 222 0 z m 171 822 l 171 822 q 78 840 122 822 q 8 898 35 857 q -18 1010 -18 939 l -18 1010 l 72 1010 q 98 933 72 963 q 171 903 124 903 l 171 903 q 245 933 219 903 q 271 1010 271 963 l 271 1010 l 360 1010 q 333 898 360 939 q 263 840 306 857 q 171 822 219 822 z "},"î":{"ha":340,"x_min":-33,"x_max":375,"o":"m 222 0 l 118 0 l 118 708 l 222 708 l 222 0 z m 74 829 l -33 829 l 125 1010 l 215 1010 l 375 829 l 268 829 l 140 958 l 201 958 l 74 829 z "},"ï":{"ha":340,"x_min":-25,"x_max":365,"o":"m 222 0 l 118 0 l 118 708 l 222 708 l 222 0 z m 365 829 l 251 829 l 251 972 l 365 972 l 365 829 z m 89 829 l -25 829 l -25 972 l 89 972 l 89 829 z "},"ì":{"ha":340,"x_min":-22,"x_max":225,"o":"m 222 0 l 118 0 l 118 708 l 222 708 l 222 0 z m 225 829 l 129 829 l -22 1010 l 108 1010 l 225 829 z "},"ī":{"ha":340,"x_min":-7,"x_max":349,"o":"m 222 0 l 118 0 l 118 708 l 222 708 l 222 0 z m 349 840 l -7 840 l -7 931 l 349 931 l 349 840 z "},"į":{"ha":340,"x_min":4,"x_max":228,"o":"m 222 0 l 118 0 l 118 708 l 222 708 l 222 0 z m 228 829 l 114 829 l 114 972 l 228 972 l 228 829 z m 222 -292 l 100 -292 q 47 -281 69 -292 q 15 -251 25 -271 q 8 -206 4 -232 q 29 -150 11 -181 l 29 -150 l 150 43 l 222 0 l 76 -240 l 67 -208 l 222 -208 l 222 -292 z "},"ĩ":{"ha":340,"x_min":-43,"x_max":389,"o":"m 222 0 l 118 0 l 118 708 l 222 708 l 222 0 z m 264 822 l 264 822 q 203 837 229 822 q 156 870 176 851 q 119 903 136 889 q 88 918 103 918 l 88 918 q 57 902 69 918 q 33 854 44 886 l 33 854 l -43 854 q -3 961 -32 919 q 81 1003 26 1003 l 81 1003 q 140 988 114 1003 q 186 956 165 974 q 224 923 207 938 q 258 908 242 908 l 258 908 q 290 925 278 908 q 314 976 303 942 l 314 976 l 389 976 q 365 890 382 925 q 324 839 349 856 q 264 822 299 822 z "},"j":{"ha":340,"x_min":-28,"x_max":226,"o":"m 44 -278 l 44 -278 l -28 -278 l -28 -187 l 165 -187 l 118 -235 l 118 708 l 222 708 l 222 -114 q 181 -232 222 -186 q 44 -278 139 -278 z m 226 829 l 113 829 l 113 972 l 226 972 l 226 829 z "},"ȷ":{"ha":340,"x_min":-28,"x_max":222,"o":"m 44 -278 l 44 -278 l -28 -278 l -28 -187 l 165 -187 l 118 -235 l 118 708 l 222 708 l 222 -114 q 181 -232 222 -186 q 44 -278 139 -278 z "},"ĵ":{"ha":340,"x_min":-35,"x_max":374,"o":"m 44 -278 l 44 -278 l -28 -278 l -28 -187 l 165 -187 l 118 -235 l 118 708 l 222 708 l 222 -114 q 181 -232 222 -186 q 44 -278 139 -278 z m 72 829 l -35 829 l 124 1010 l 214 1010 l 374 829 l 267 829 l 139 958 l 200 958 l 72 829 z "},"k":{"ha":707,"x_min":118,"x_max":700,"o":"m 667 708 l 185 264 l 185 388 l 539 708 l 667 708 z m 700 0 l 575 0 l 299 418 l 376 483 l 700 0 z m 222 0 l 118 0 l 118 972 l 222 972 l 222 376 l 222 376 l 222 0 z "},"ķ":{"ha":707,"x_min":118,"x_max":700,"o":"m 667 708 l 185 264 l 185 388 l 539 708 l 667 708 z m 700 0 l 575 0 l 299 418 l 376 483 l 700 0 z m 222 0 l 118 0 l 118 972 l 222 972 l 222 376 l 222 376 l 222 0 z m 338 -292 l 315 -292 l 315 -239 l 379 -239 l 379 -115 l 422 -183 l 318 -183 l 318 -92 l 446 -92 l 446 -200 q 441 -242 446 -221 q 413 -278 436 -264 q 338 -292 390 -292 l 338 -292 z "},"l":{"ha":418,"x_min":111,"x_max":403,"o":"m 403 0 l 271 0 q 149 42 186 0 q 111 147 111 83 l 111 147 l 111 972 l 215 972 l 215 43 l 168 90 l 403 90 l 403 0 z "},"ĺ":{"ha":418,"x_min":110,"x_max":403,"o":"m 403 0 l 271 0 q 149 42 186 0 q 111 147 111 83 l 111 147 l 111 972 l 215 972 l 215 43 l 168 90 l 403 90 l 403 0 z m 206 1060 l 110 1060 l 199 1193 l 357 1193 l 206 1060 z "},"ľ":{"ha":435,"x_min":111,"x_max":422,"o":"m 403 0 l 271 0 q 149 42 186 0 q 111 147 111 83 l 111 147 l 111 972 l 215 972 l 215 43 l 168 90 l 403 90 l 403 0 z m 400 735 l 313 735 l 313 972 l 422 972 l 400 735 z "},"ļ":{"ha":418,"x_min":111,"x_max":403,"o":"m 403 0 l 271 0 q 149 42 186 0 q 111 147 111 83 l 111 147 l 111 972 l 215 972 l 215 43 l 168 90 l 403 90 l 403 0 z m 193 -292 l 171 -292 l 171 -239 l 235 -239 l 235 -115 l 278 -183 l 174 -183 l 174 -92 l 301 -92 l 301 -200 q 297 -242 301 -221 q 269 -278 292 -264 q 193 -292 246 -292 l 193 -292 z "},"ŀ":{"ha":463,"x_min":111,"x_max":458,"o":"m 403 0 l 271 0 q 149 42 186 0 q 111 147 111 83 l 111 147 l 111 972 l 215 972 l 215 43 l 168 90 l 403 90 l 403 0 z m 458 396 l 331 396 l 331 524 l 458 524 l 458 396 z "},"ł":{"ha":469,"x_min":56,"x_max":439,"o":"m 374 503 l 56 321 l 56 419 l 374 601 l 374 503 z m 439 0 l 307 0 q 185 42 222 0 q 147 147 147 83 l 147 147 l 147 972 l 251 972 l 251 43 l 204 90 l 439 90 l 439 0 z "},"m":{"ha":1253,"x_min":118,"x_max":1144,"o":"m 222 0 l 118 0 l 118 708 l 222 708 l 222 574 l 229 574 q 325 689 265 656 q 453 722 385 722 l 453 722 q 590 682 535 722 q 668 564 646 642 l 668 564 l 675 564 q 778 687 713 651 q 914 722 844 722 l 914 722 q 1036 692 985 722 q 1116 605 1088 663 q 1144 461 1144 547 l 1144 461 l 1144 0 l 1040 0 l 1040 439 q 999 581 1040 536 q 881 625 958 625 l 881 625 q 781 601 826 625 q 710 526 736 578 q 683 389 683 475 l 683 389 l 683 0 l 579 0 l 579 439 q 538 581 579 536 q 419 625 497 625 l 419 625 q 320 601 365 625 q 249 526 275 578 q 222 389 222 475 l 222 389 l 222 0 z "},"n":{"ha":792,"x_min":118,"x_max":683,"o":"m 222 0 l 118 0 l 118 708 l 222 708 l 222 574 l 229 574 q 326 689 263 656 q 458 722 390 722 l 458 722 q 579 692 529 722 q 656 605 629 663 q 683 461 683 547 l 683 461 l 683 0 l 579 0 l 579 439 q 538 581 579 536 q 419 625 497 625 l 419 625 q 320 601 365 625 q 249 526 275 578 q 222 389 222 475 l 222 389 l 222 0 z "},"ń":{"ha":792,"x_min":118,"x_max":683,"o":"m 222 0 l 118 0 l 118 708 l 222 708 l 222 574 l 229 574 q 326 689 263 656 q 458 722 390 722 l 458 722 q 579 692 529 722 q 656 605 629 663 q 683 461 683 547 l 683 461 l 683 0 l 579 0 l 579 439 q 538 581 579 536 q 419 625 497 625 l 419 625 q 320 601 365 625 q 249 526 275 578 q 222 389 222 475 l 222 389 l 222 0 z m 600 1010 l 449 829 l 353 829 l 469 1010 l 600 1010 z "},"ň":{"ha":792,"x_min":118,"x_max":683,"o":"m 222 0 l 118 0 l 118 708 l 222 708 l 222 574 l 229 574 q 326 689 263 656 q 458 722 390 722 l 458 722 q 579 692 529 722 q 656 605 629 663 q 683 461 683 547 l 683 461 l 683 0 l 579 0 l 579 439 q 538 581 579 536 q 419 625 497 625 l 419 625 q 320 601 365 625 q 249 526 275 578 q 222 389 222 475 l 222 389 l 222 0 z m 451 829 l 361 829 l 203 1010 l 310 1010 l 438 881 l 376 881 l 504 1010 l 611 1010 l 451 829 z "},"ņ":{"ha":792,"x_min":118,"x_max":683,"o":"m 222 0 l 118 0 l 118 708 l 222 708 l 222 574 l 229 574 q 326 689 263 656 q 458 722 390 722 l 458 722 q 579 692 529 722 q 656 605 629 663 q 683 461 683 547 l 683 461 l 683 0 l 579 0 l 579 439 q 538 581 579 536 q 419 625 497 625 l 419 625 q 320 601 365 625 q 249 526 275 578 q 222 389 222 475 l 222 389 l 222 0 z m 360 -292 l 338 -292 l 338 -239 l 401 -239 l 401 -115 l 444 -183 l 340 -183 l 340 -92 l 468 -92 l 468 -200 q 463 -242 468 -221 q 435 -278 458 -264 q 360 -292 413 -292 l 360 -292 z "},"ñ":{"ha":792,"x_min":118,"x_max":683,"o":"m 222 0 l 118 0 l 118 708 l 222 708 l 222 574 l 229 574 q 326 689 263 656 q 458 722 390 722 l 458 722 q 579 692 529 722 q 656 605 629 663 q 683 461 683 547 l 683 461 l 683 0 l 579 0 l 579 439 q 538 581 579 536 q 419 625 497 625 l 419 625 q 320 601 365 625 q 249 526 275 578 q 222 389 222 475 l 222 389 l 222 0 z m 500 822 l 500 822 q 439 837 465 822 q 392 870 413 851 q 356 903 372 889 q 324 918 339 918 l 324 918 q 293 902 306 918 q 269 854 281 886 l 269 854 l 193 854 q 233 961 204 919 q 317 1003 263 1003 l 317 1003 q 376 988 350 1003 q 422 956 401 974 q 460 923 443 938 q 494 908 478 908 l 494 908 q 526 925 514 908 q 550 976 539 942 l 550 976 l 625 976 q 601 890 618 925 q 560 839 585 856 q 500 822 535 822 z "},"ŋ":{"ha":792,"x_min":118,"x_max":683,"o":"m 222 0 l 118 0 l 118 708 l 222 708 l 222 574 l 229 574 q 326 689 263 656 q 458 722 390 722 l 458 722 q 579 692 529 722 q 656 605 629 663 q 683 461 683 547 l 683 461 l 683 -114 q 642 -232 683 -186 q 506 -278 600 -278 l 506 -278 l 433 -278 l 433 -187 l 626 -187 l 579 -235 l 579 439 q 538 581 579 536 q 419 625 497 625 l 419 625 q 320 601 365 625 q 249 526 275 578 q 222 389 222 475 l 222 389 l 222 0 z "},"o":{"ha":781,"x_min":67,"x_max":714,"o":"m 390 -14 l 390 -14 q 222 32 294 -14 q 108 160 149 78 q 67 353 67 243 l 67 353 q 108 547 67 464 q 222 676 149 629 q 390 722 294 722 l 390 722 q 560 676 488 722 q 673 547 632 629 q 714 353 714 464 l 714 353 q 673 160 714 243 q 560 32 632 78 q 390 -14 488 -14 z m 390 83 l 390 83 q 547 155 490 83 q 603 353 603 226 l 603 353 q 547 553 603 481 q 390 625 490 625 l 390 625 q 234 553 290 625 q 178 353 178 481 l 178 353 q 234 155 178 226 q 390 83 290 83 z "},"ó":{"ha":781,"x_min":67,"x_max":714,"o":"m 390 -14 l 390 -14 q 222 32 294 -14 q 108 160 149 78 q 67 353 67 243 l 67 353 q 108 547 67 464 q 222 676 149 629 q 390 722 294 722 l 390 722 q 560 676 488 722 q 673 547 632 629 q 714 353 714 464 l 714 353 q 673 160 714 243 q 560 32 632 78 q 390 -14 488 -14 z m 390 83 l 390 83 q 547 155 490 83 q 603 353 603 226 l 603 353 q 547 553 603 481 q 390 625 490 625 l 390 625 q 234 553 290 625 q 178 353 178 481 l 178 353 q 234 155 178 226 q 390 83 290 83 z m 583 1010 l 432 829 l 336 829 l 453 1010 l 583 1010 z "},"ŏ":{"ha":781,"x_min":67,"x_max":714,"o":"m 390 -14 l 390 -14 q 222 32 294 -14 q 108 160 149 78 q 67 353 67 243 l 67 353 q 108 547 67 464 q 222 676 149 629 q 390 722 294 722 l 390 722 q 560 676 488 722 q 673 547 632 629 q 714 353 714 464 l 714 353 q 673 160 714 243 q 560 32 632 78 q 390 -14 488 -14 z m 390 83 l 390 83 q 547 155 490 83 q 603 353 603 226 l 603 353 q 547 553 603 481 q 390 625 490 625 l 390 625 q 234 553 290 625 q 178 353 178 481 l 178 353 q 234 155 178 226 q 390 83 290 83 z m 390 822 l 390 822 q 298 840 342 822 q 228 898 254 857 q 201 1010 201 939 l 201 1010 l 292 1010 q 317 933 292 963 q 390 903 343 903 l 390 903 q 465 933 439 903 q 490 1010 490 963 l 490 1010 l 579 1010 q 552 898 579 939 q 482 840 525 857 q 390 822 439 822 z "},"ǒ":{"ha":781,"x_min":67,"x_max":714,"o":"m 390 -14 l 390 -14 q 222 32 294 -14 q 108 160 149 78 q 67 353 67 243 l 67 353 q 108 547 67 464 q 222 676 149 629 q 390 722 294 722 l 390 722 q 560 676 488 722 q 673 547 632 629 q 714 353 714 464 l 714 353 q 673 160 714 243 q 560 32 632 78 q 390 -14 488 -14 z m 390 83 l 390 83 q 547 155 490 83 q 603 353 603 226 l 603 353 q 547 553 603 481 q 390 625 490 625 l 390 625 q 234 553 290 625 q 178 353 178 481 l 178 353 q 234 155 178 226 q 390 83 290 83 z m 435 829 l 344 829 l 186 1010 l 293 1010 l 421 881 l 360 881 l 488 1010 l 594 1010 l 435 829 z "},"ô":{"ha":781,"x_min":67,"x_max":714,"o":"m 390 -14 l 390 -14 q 222 32 294 -14 q 108 160 149 78 q 67 353 67 243 l 67 353 q 108 547 67 464 q 222 676 149 629 q 390 722 294 722 l 390 722 q 560 676 488 722 q 673 547 632 629 q 714 353 714 464 l 714 353 q 673 160 714 243 q 560 32 632 78 q 390 -14 488 -14 z m 390 83 l 390 83 q 547 155 490 83 q 603 353 603 226 l 603 353 q 547 553 603 481 q 390 625 490 625 l 390 625 q 234 553 290 625 q 178 353 178 481 l 178 353 q 234 155 178 226 q 390 83 290 83 z m 293 829 l 186 829 l 344 1010 l 435 1010 l 594 829 l 488 829 l 360 958 l 421 958 l 293 829 z "},"ö":{"ha":781,"x_min":67,"x_max":714,"o":"m 390 -14 l 390 -14 q 222 32 294 -14 q 108 160 149 78 q 67 353 67 243 l 67 353 q 108 547 67 464 q 222 676 149 629 q 390 722 294 722 l 390 722 q 560 676 488 722 q 673 547 632 629 q 714 353 714 464 l 714 353 q 673 160 714 243 q 560 32 632 78 q 390 -14 488 -14 z m 390 83 l 390 83 q 547 155 490 83 q 603 353 603 226 l 603 353 q 547 553 603 481 q 390 625 490 625 l 390 625 q 234 553 290 625 q 178 353 178 481 l 178 353 q 234 155 178 226 q 390 83 290 83 z m 585 829 l 471 829 l 471 972 l 585 972 l 585 829 z m 308 829 l 194 829 l 194 972 l 308 972 l 308 829 z "},"ò":{"ha":781,"x_min":67,"x_max":714,"o":"m 390 -14 l 390 -14 q 222 32 294 -14 q 108 160 149 78 q 67 353 67 243 l 67 353 q 108 547 67 464 q 222 676 149 629 q 390 722 294 722 l 390 722 q 560 676 488 722 q 673 547 632 629 q 714 353 714 464 l 714 353 q 673 160 714 243 q 560 32 632 78 q 390 -14 488 -14 z m 390 83 l 390 83 q 547 155 490 83 q 603 353 603 226 l 603 353 q 547 553 603 481 q 390 625 490 625 l 390 625 q 234 553 290 625 q 178 353 178 481 l 178 353 q 234 155 178 226 q 390 83 290 83 z m 444 829 l 349 829 l 197 1010 l 328 1010 l 444 829 z "},"ő":{"ha":781,"x_min":67,"x_max":714,"o":"m 390 -14 l 390 -14 q 222 32 294 -14 q 108 160 149 78 q 67 353 67 243 l 67 353 q 108 547 67 464 q 222 676 149 629 q 390 722 294 722 l 390 722 q 560 676 488 722 q 673 547 632 629 q 714 353 714 464 l 714 353 q 673 160 714 243 q 560 32 632 78 q 390 -14 488 -14 z m 390 83 l 390 83 q 547 155 490 83 q 603 353 603 226 l 603 353 q 547 553 603 481 q 390 625 490 625 l 390 625 q 234 553 290 625 q 178 353 178 481 l 178 353 q 234 155 178 226 q 390 83 290 83 z m 538 829 l 450 829 l 572 1010 l 703 1010 l 538 829 z m 311 829 l 224 829 l 346 1010 l 476 1010 l 311 829 z "},"ō":{"ha":781,"x_min":67,"x_max":714,"o":"m 390 -14 l 390 -14 q 222 32 294 -14 q 108 160 149 78 q 67 353 67 243 l 67 353 q 108 547 67 464 q 222 676 149 629 q 390 722 294 722 l 390 722 q 560 676 488 722 q 673 547 632 629 q 714 353 714 464 l 714 353 q 673 160 714 243 q 560 32 632 78 q 390 -14 488 -14 z m 390 83 l 390 83 q 547 155 490 83 q 603 353 603 226 l 603 353 q 547 553 603 481 q 390 625 490 625 l 390 625 q 234 553 290 625 q 178 353 178 481 l 178 353 q 234 155 178 226 q 390 83 290 83 z m 568 840 l 213 840 l 213 931 l 568 931 l 568 840 z "},"ø":{"ha":801,"x_min":76,"x_max":725,"o":"m 725 682 l 135 -29 l 76 24 l 664 736 l 725 682 z m 400 -14 l 400 -14 q 231 32 304 -14 q 117 160 158 78 q 76 353 76 243 l 76 353 q 117 547 76 464 q 231 676 158 629 q 400 722 304 722 l 400 722 q 569 676 497 722 q 683 547 642 629 q 724 353 724 464 l 724 353 q 683 160 724 243 q 569 32 642 78 q 400 -14 497 -14 z m 400 83 l 400 83 q 556 155 500 83 q 613 353 613 226 l 613 353 q 556 553 613 481 q 400 625 500 625 l 400 625 q 244 553 300 625 q 188 353 188 481 l 188 353 q 244 155 188 226 q 400 83 300 83 z "},"ǿ":{"ha":801,"x_min":76,"x_max":725,"o":"m 725 682 l 135 -29 l 76 24 l 664 736 l 725 682 z m 400 -14 l 400 -14 q 231 32 304 -14 q 117 160 158 78 q 76 353 76 243 l 76 353 q 117 547 76 464 q 231 676 158 629 q 400 722 304 722 l 400 722 q 569 676 497 722 q 683 547 642 629 q 724 353 724 464 l 724 353 q 683 160 724 243 q 569 32 642 78 q 400 -14 497 -14 z m 400 83 l 400 83 q 556 155 500 83 q 613 353 613 226 l 613 353 q 556 553 613 481 q 400 625 500 625 l 400 625 q 244 553 300 625 q 188 353 188 481 l 188 353 q 244 155 188 226 q 400 83 300 83 z m 593 1010 l 442 829 l 346 829 l 463 1010 l 593 1010 z "},"õ":{"ha":781,"x_min":67,"x_max":714,"o":"m 390 -14 l 390 -14 q 222 32 294 -14 q 108 160 149 78 q 67 353 67 243 l 67 353 q 108 547 67 464 q 222 676 149 629 q 390 722 294 722 l 390 722 q 560 676 488 722 q 673 547 632 629 q 714 353 714 464 l 714 353 q 673 160 714 243 q 560 32 632 78 q 390 -14 488 -14 z m 390 83 l 390 83 q 547 155 490 83 q 603 353 603 226 l 603 353 q 547 553 603 481 q 390 625 490 625 l 390 625 q 234 553 290 625 q 178 353 178 481 l 178 353 q 234 155 178 226 q 390 83 290 83 z m 483 822 l 483 822 q 422 837 449 822 q 376 870 396 851 q 339 903 356 889 q 307 918 322 918 l 307 918 q 276 902 289 918 q 253 854 264 886 l 253 854 l 176 854 q 217 961 188 919 q 300 1003 246 1003 l 300 1003 q 359 988 333 1003 q 406 956 385 974 q 444 923 426 938 q 478 908 461 908 l 478 908 q 510 925 497 908 q 533 976 522 942 l 533 976 l 608 976 q 585 890 601 925 q 543 839 568 856 q 483 822 518 822 z "},"œ":{"ha":1258,"x_min":67,"x_max":1194,"o":"m 381 -14 l 381 -14 q 217 32 288 -14 q 106 160 146 78 q 67 353 67 243 l 67 353 q 106 547 67 464 q 217 676 146 629 q 381 722 288 722 l 381 722 q 548 674 475 722 q 660 536 621 626 l 660 536 l 629 536 q 733 672 664 621 q 894 722 801 722 l 894 722 q 1061 678 994 722 q 1161 546 1128 633 q 1194 329 1194 458 l 1194 329 l 658 329 l 658 418 l 1135 418 l 1088 376 q 1068 515 1089 458 q 1004 599 1047 571 q 896 628 961 628 l 896 628 q 788 598 832 628 q 719 507 743 568 q 696 353 696 446 l 696 353 q 748 149 696 217 q 914 81 800 81 l 914 81 q 1021 108 974 81 q 1094 190 1068 135 l 1094 190 l 1179 150 q 1077 30 1146 74 q 911 -14 1008 -14 l 911 -14 q 735 35 807 -14 q 628 167 663 83 l 628 167 l 657 168 q 547 34 619 82 q 381 -14 475 -14 z m 385 83 l 385 83 q 536 155 482 83 q 590 353 590 226 l 590 353 q 536 553 590 481 q 385 625 482 625 l 385 625 q 233 553 288 625 q 179 353 179 481 l 179 353 q 233 155 179 226 q 385 83 288 83 z "},"p":{"ha":824,"x_min":118,"x_max":756,"o":"m 222 -278 l 118 -278 l 118 708 l 222 708 l 222 561 l 229 561 q 321 682 261 642 q 465 722 381 722 l 465 722 q 617 676 551 722 q 719 547 682 629 q 756 354 756 464 l 756 354 q 719 161 756 244 q 617 32 682 78 q 465 -14 551 -14 l 465 -14 q 363 3 408 -14 q 285 56 318 21 q 231 142 253 90 l 231 142 l 222 142 l 222 -278 z m 436 83 l 436 83 q 590 156 535 83 q 644 354 644 228 l 644 354 q 590 553 644 482 q 436 625 535 625 l 436 625 q 276 553 333 625 q 219 354 219 482 l 219 354 q 276 156 219 228 q 436 83 333 83 z "},"þ":{"ha":824,"x_min":118,"x_max":756,"o":"m 222 -278 l 118 -278 l 118 972 l 222 972 l 222 561 l 229 561 q 321 682 261 642 q 465 722 381 722 l 465 722 q 617 676 551 722 q 719 547 682 629 q 756 354 756 464 l 756 354 q 719 161 756 244 q 617 32 682 78 q 465 -14 551 -14 l 465 -14 q 363 3 408 -14 q 285 56 318 21 q 231 142 253 90 l 231 142 l 222 142 l 222 -278 z m 436 83 l 436 83 q 590 156 535 83 q 644 354 644 228 l 644 354 q 590 553 644 482 q 436 625 535 625 l 436 625 q 276 553 333 625 q 219 354 219 482 l 219 354 q 276 156 219 228 q 436 83 333 83 z "},"q":{"ha":824,"x_min":68,"x_max":706,"o":"m 706 708 l 706 -278 l 601 -278 l 601 142 l 593 142 q 539 56 572 90 q 460 3 506 21 q 358 -14 415 -14 l 358 -14 q 207 32 272 -14 q 105 161 142 78 q 68 354 68 244 l 68 354 q 105 547 68 464 q 207 676 142 629 q 358 722 272 722 l 358 722 q 504 682 444 722 q 594 561 564 642 l 594 561 l 601 561 l 601 708 l 706 708 z m 388 83 l 388 83 q 547 156 490 83 q 604 354 604 228 l 604 354 q 547 553 604 482 q 388 625 490 625 l 388 625 q 235 553 290 625 q 179 354 179 482 l 179 354 q 235 156 179 228 q 388 83 290 83 z "},"r":{"ha":528,"x_min":118,"x_max":494,"o":"m 222 0 l 118 0 l 118 708 l 222 708 l 222 600 l 229 600 q 269 663 244 639 q 325 697 293 686 q 394 708 357 708 l 394 708 l 494 708 l 494 611 l 385 611 q 300 595 332 611 q 251 551 268 579 q 228 486 235 524 q 222 404 222 449 l 222 404 l 222 0 z "},"ŕ":{"ha":528,"x_min":118,"x_max":506,"o":"m 222 0 l 118 0 l 118 708 l 222 708 l 222 600 l 229 600 q 269 663 244 639 q 325 697 293 686 q 394 708 357 708 l 394 708 l 494 708 l 494 611 l 385 611 q 300 595 332 611 q 251 551 268 579 q 228 486 235 524 q 222 404 222 449 l 222 404 l 222 0 z m 506 1010 l 354 829 l 258 829 l 375 1010 l 506 1010 z "},"ř":{"ha":528,"x_min":108,"x_max":517,"o":"m 222 0 l 118 0 l 118 708 l 222 708 l 222 600 l 229 600 q 269 663 244 639 q 325 697 293 686 q 394 708 357 708 l 394 708 l 494 708 l 494 611 l 385 611 q 300 595 332 611 q 251 551 268 579 q 228 486 235 524 q 222 404 222 449 l 222 404 l 222 0 z m 357 829 l 267 829 l 108 1010 l 215 1010 l 343 881 l 282 881 l 410 1010 l 517 1010 l 357 829 z "},"ŗ":{"ha":528,"x_min":107,"x_max":494,"o":"m 222 0 l 118 0 l 118 708 l 222 708 l 222 600 l 229 600 q 269 663 244 639 q 325 697 293 686 q 394 708 357 708 l 394 708 l 494 708 l 494 611 l 385 611 q 300 595 332 611 q 251 551 268 579 q 228 486 235 524 q 222 404 222 449 l 222 404 l 222 0 z m 129 -292 l 107 -292 l 107 -239 l 171 -239 l 171 -115 l 214 -183 l 110 -183 l 110 -92 l 238 -92 l 238 -200 q 233 -242 238 -221 q 205 -278 228 -264 q 129 -292 182 -292 l 129 -292 z "},"s":{"ha":688,"x_min":53,"x_max":628,"o":"m 357 -14 l 357 -14 q 160 31 238 -14 q 53 156 83 75 l 53 156 l 146 200 q 219 109 165 142 q 361 76 272 76 l 361 76 q 477 107 438 76 q 517 193 517 138 l 517 193 q 493 255 517 233 q 431 288 469 276 q 345 307 392 299 q 251 326 299 315 q 165 357 204 336 q 103 415 126 378 q 79 514 79 453 l 79 514 q 149 667 79 613 q 340 722 218 722 l 340 722 q 506 685 438 722 q 610 579 575 647 l 610 579 l 518 535 q 449 606 496 581 q 338 632 403 632 l 338 632 q 228 602 265 632 q 190 519 190 572 l 190 519 q 214 460 190 481 q 276 428 238 439 q 363 409 315 417 q 456 391 410 401 q 542 360 503 381 q 604 301 581 339 q 628 203 628 264 l 628 203 q 595 86 628 135 q 502 12 563 38 q 357 -14 442 -14 z "},"ś":{"ha":688,"x_min":53,"x_max":628,"o":"m 357 -14 l 357 -14 q 160 31 238 -14 q 53 156 83 75 l 53 156 l 146 200 q 219 109 165 142 q 361 76 272 76 l 361 76 q 477 107 438 76 q 517 193 517 138 l 517 193 q 493 255 517 233 q 431 288 469 276 q 345 307 392 299 q 251 326 299 315 q 165 357 204 336 q 103 415 126 378 q 79 514 79 453 l 79 514 q 149 667 79 613 q 340 722 218 722 l 340 722 q 506 685 438 722 q 610 579 575 647 l 610 579 l 518 535 q 449 606 496 581 q 338 632 403 632 l 338 632 q 228 602 265 632 q 190 519 190 572 l 190 519 q 214 460 190 481 q 276 428 238 439 q 363 409 315 417 q 456 391 410 401 q 542 360 503 381 q 604 301 581 339 q 628 203 628 264 l 628 203 q 595 86 628 135 q 502 12 563 38 q 357 -14 442 -14 z m 542 1010 l 390 829 l 294 829 l 411 1010 l 542 1010 z "},"š":{"ha":688,"x_min":53,"x_max":628,"o":"m 357 -14 l 357 -14 q 160 31 238 -14 q 53 156 83 75 l 53 156 l 146 200 q 219 109 165 142 q 361 76 272 76 l 361 76 q 477 107 438 76 q 517 193 517 138 l 517 193 q 493 255 517 233 q 431 288 469 276 q 345 307 392 299 q 251 326 299 315 q 165 357 204 336 q 103 415 126 378 q 79 514 79 453 l 79 514 q 149 667 79 613 q 340 722 218 722 l 340 722 q 506 685 438 722 q 610 579 575 647 l 610 579 l 518 535 q 449 606 496 581 q 338 632 403 632 l 338 632 q 228 602 265 632 q 190 519 190 572 l 190 519 q 214 460 190 481 q 276 428 238 439 q 363 409 315 417 q 456 391 410 401 q 542 360 503 381 q 604 301 581 339 q 628 203 628 264 l 628 203 q 595 86 628 135 q 502 12 563 38 q 357 -14 442 -14 z m 393 829 l 303 829 l 144 1010 l 251 1010 l 379 881 l 318 881 l 446 1010 l 553 1010 l 393 829 z "},"ş":{"ha":688,"x_min":53,"x_max":628,"o":"m 357 -14 l 357 -14 q 160 31 238 -14 q 53 156 83 75 l 53 156 l 146 200 q 219 109 165 142 q 361 76 272 76 l 361 76 q 477 107 438 76 q 517 193 517 138 l 517 193 q 493 255 517 233 q 431 288 469 276 q 345 307 392 299 q 251 326 299 315 q 165 357 204 336 q 103 415 126 378 q 79 514 79 453 l 79 514 q 149 667 79 613 q 340 722 218 722 l 340 722 q 506 685 438 722 q 610 579 575 647 l 610 579 l 518 535 q 449 606 496 581 q 338 632 403 632 l 338 632 q 228 602 265 632 q 190 519 190 572 l 190 519 q 214 460 190 481 q 276 428 238 439 q 363 409 315 417 q 456 391 410 401 q 542 360 503 381 q 604 301 581 339 q 628 203 628 264 l 628 203 q 595 86 628 135 q 502 12 563 38 q 357 -14 442 -14 z m 318 -292 l 203 -292 l 203 -214 l 329 -214 q 370 -206 357 -214 q 383 -179 383 -197 l 383 -179 q 370 -151 383 -160 q 329 -143 357 -143 l 329 -143 l 258 -143 l 292 13 l 389 13 l 361 -121 l 324 -83 l 346 -83 q 450 -110 418 -83 q 482 -179 482 -137 l 482 -179 q 437 -261 482 -231 q 318 -292 392 -292 l 318 -292 z "},"ŝ":{"ha":688,"x_min":53,"x_max":628,"o":"m 357 -14 l 357 -14 q 160 31 238 -14 q 53 156 83 75 l 53 156 l 146 200 q 219 109 165 142 q 361 76 272 76 l 361 76 q 477 107 438 76 q 517 193 517 138 l 517 193 q 493 255 517 233 q 431 288 469 276 q 345 307 392 299 q 251 326 299 315 q 165 357 204 336 q 103 415 126 378 q 79 514 79 453 l 79 514 q 149 667 79 613 q 340 722 218 722 l 340 722 q 506 685 438 722 q 610 579 575 647 l 610 579 l 518 535 q 449 606 496 581 q 338 632 403 632 l 338 632 q 228 602 265 632 q 190 519 190 572 l 190 519 q 214 460 190 481 q 276 428 238 439 q 363 409 315 417 q 456 391 410 401 q 542 360 503 381 q 604 301 581 339 q 628 203 628 264 l 628 203 q 595 86 628 135 q 502 12 563 38 q 357 -14 442 -14 z m 251 829 l 144 829 l 303 1010 l 393 1010 l 553 829 l 446 829 l 318 958 l 379 958 l 251 829 z "},"ș":{"ha":688,"x_min":53,"x_max":628,"o":"m 357 -14 l 357 -14 q 160 31 238 -14 q 53 156 83 75 l 53 156 l 146 200 q 219 109 165 142 q 361 76 272 76 l 361 76 q 477 107 438 76 q 517 193 517 138 l 517 193 q 493 255 517 233 q 431 288 469 276 q 345 307 392 299 q 251 326 299 315 q 165 357 204 336 q 103 415 126 378 q 79 514 79 453 l 79 514 q 149 667 79 613 q 340 722 218 722 l 340 722 q 506 685 438 722 q 610 579 575 647 l 610 579 l 518 535 q 449 606 496 581 q 338 632 403 632 l 338 632 q 228 602 265 632 q 190 519 190 572 l 190 519 q 214 460 190 481 q 276 428 238 439 q 363 409 315 417 q 456 391 410 401 q 542 360 503 381 q 604 301 581 339 q 628 203 628 264 l 628 203 q 595 86 628 135 q 502 12 563 38 q 357 -14 442 -14 z m 296 -292 l 274 -292 l 274 -239 l 338 -239 l 338 -115 l 381 -183 l 276 -183 l 276 -92 l 404 -92 l 404 -200 q 399 -242 404 -221 q 372 -278 394 -264 q 296 -292 349 -292 l 296 -292 z "},"ß":{"ha":847,"x_min":118,"x_max":783,"o":"m 493 -14 l 493 -14 q 402 -3 446 -14 q 322 28 358 7 l 322 28 l 357 118 q 423 93 388 103 q 494 83 458 83 l 494 83 q 622 130 572 83 q 672 257 672 176 l 672 257 q 604 399 672 351 q 426 446 536 446 l 426 446 l 426 543 q 563 595 511 550 q 615 721 615 640 l 615 721 q 567 844 615 800 q 432 889 518 889 l 432 889 q 319 863 367 889 q 247 787 272 836 q 222 668 222 738 l 222 668 l 222 0 l 118 0 l 118 668 q 157 836 118 765 q 267 947 196 907 q 438 986 339 986 l 438 986 q 589 957 525 986 q 688 874 653 928 q 724 746 724 821 l 724 746 q 684 601 724 665 q 575 513 644 538 l 575 513 l 575 506 q 728 419 674 486 q 783 253 783 351 l 783 253 q 745 110 783 169 q 642 18 707 50 q 493 -14 576 -14 z "},"t":{"ha":499,"x_min":33,"x_max":457,"o":"m 457 -8 l 319 -8 q 204 33 247 -8 q 161 153 161 74 l 161 153 l 161 646 l 265 646 l 265 89 l 457 89 l 457 -8 z m 443 615 l 33 615 l 33 708 l 161 708 l 161 889 l 265 931 l 265 708 l 443 708 l 443 615 z "},"ŧ":{"ha":503,"x_min":42,"x_max":465,"o":"m 426 340 l 53 340 l 53 421 l 426 421 l 426 340 z m 465 -8 l 328 -8 q 213 33 256 -8 q 169 153 169 74 l 169 153 l 169 646 l 274 646 l 274 89 l 465 89 l 465 -8 z m 451 615 l 42 615 l 42 708 l 169 708 l 169 889 l 274 931 l 274 708 l 451 708 l 451 615 z "},"ť":{"ha":499,"x_min":33,"x_max":478,"o":"m 457 -8 l 319 -8 q 204 33 247 -8 q 161 153 161 74 l 161 153 l 161 646 l 265 646 l 265 89 l 457 89 l 457 -8 z m 443 615 l 33 615 l 33 708 l 161 708 l 161 889 l 265 931 l 265 708 l 443 708 l 443 615 z m 456 793 l 375 793 l 375 972 l 478 972 l 456 793 z "},"ţ":{"ha":499,"x_min":33,"x_max":457,"o":"m 457 -8 l 319 -8 q 204 33 247 -8 q 161 153 161 74 l 161 153 l 161 646 l 265 646 l 265 89 l 457 89 l 457 -8 z m 443 615 l 33 615 l 33 708 l 161 708 l 161 889 l 265 931 l 265 708 l 443 708 l 443 615 z m 278 -292 l 163 -292 l 163 -214 l 289 -214 q 330 -206 317 -214 q 343 -179 343 -197 l 343 -179 q 330 -151 343 -160 q 289 -143 317 -143 l 289 -143 l 218 -143 l 251 13 l 349 13 l 321 -121 l 283 -83 l 306 -83 q 410 -110 378 -83 q 442 -179 442 -137 l 442 -179 q 397 -261 442 -231 q 278 -292 351 -292 l 278 -292 z "},"ț":{"ha":499,"x_min":33,"x_max":457,"o":"m 457 -8 l 319 -8 q 204 33 247 -8 q 161 153 161 74 l 161 153 l 161 646 l 265 646 l 265 89 l 457 89 l 457 -8 z m 443 615 l 33 615 l 33 708 l 161 708 l 161 889 l 265 931 l 265 708 l 443 708 l 443 615 z m 256 -292 l 233 -292 l 233 -239 l 297 -239 l 297 -115 l 340 -183 l 236 -183 l 236 -92 l 364 -92 l 364 -200 q 359 -242 364 -221 q 331 -278 354 -264 q 256 -292 308 -292 l 256 -292 z "},"u":{"ha":783,"x_min":108,"x_max":665,"o":"m 342 -14 l 342 -14 q 219 16 272 -14 q 138 104 167 46 q 108 247 108 163 l 108 247 l 108 708 l 213 708 l 213 269 q 258 128 213 172 q 381 83 304 83 l 381 83 q 476 107 436 83 q 539 183 517 131 q 561 319 561 235 l 561 319 l 561 708 l 665 708 l 665 0 l 561 0 l 561 135 l 554 135 q 465 19 521 53 q 342 -14 410 -14 z "},"ú":{"ha":783,"x_min":108,"x_max":665,"o":"m 342 -14 l 342 -14 q 219 16 272 -14 q 138 104 167 46 q 108 247 108 163 l 108 247 l 108 708 l 213 708 l 213 269 q 258 128 213 172 q 381 83 304 83 l 381 83 q 476 107 436 83 q 539 183 517 131 q 561 319 561 235 l 561 319 l 561 708 l 665 708 l 665 0 l 561 0 l 561 135 l 554 135 q 465 19 521 53 q 342 -14 410 -14 z m 579 1010 l 428 829 l 332 829 l 449 1010 l 579 1010 z "},"ŭ":{"ha":783,"x_min":108,"x_max":665,"o":"m 342 -14 l 342 -14 q 219 16 272 -14 q 138 104 167 46 q 108 247 108 163 l 108 247 l 108 708 l 213 708 l 213 269 q 258 128 213 172 q 381 83 304 83 l 381 83 q 476 107 436 83 q 539 183 517 131 q 561 319 561 235 l 561 319 l 561 708 l 665 708 l 665 0 l 561 0 l 561 135 l 554 135 q 465 19 521 53 q 342 -14 410 -14 z m 386 822 l 386 822 q 294 840 338 822 q 224 898 250 857 q 197 1010 197 939 l 197 1010 l 288 1010 q 313 933 288 963 q 386 903 339 903 l 386 903 q 460 933 435 903 q 486 1010 486 963 l 486 1010 l 575 1010 q 548 898 575 939 q 478 840 521 857 q 386 822 435 822 z "},"û":{"ha":783,"x_min":108,"x_max":665,"o":"m 342 -14 l 342 -14 q 219 16 272 -14 q 138 104 167 46 q 108 247 108 163 l 108 247 l 108 708 l 213 708 l 213 269 q 258 128 213 172 q 381 83 304 83 l 381 83 q 476 107 436 83 q 539 183 517 131 q 561 319 561 235 l 561 319 l 561 708 l 665 708 l 665 0 l 561 0 l 561 135 l 554 135 q 465 19 521 53 q 342 -14 410 -14 z m 289 829 l 182 829 l 340 1010 l 431 1010 l 590 829 l 483 829 l 356 958 l 417 958 l 289 829 z "},"ü":{"ha":783,"x_min":108,"x_max":665,"o":"m 342 -14 l 342 -14 q 219 16 272 -14 q 138 104 167 46 q 108 247 108 163 l 108 247 l 108 708 l 213 708 l 213 269 q 258 128 213 172 q 381 83 304 83 l 381 83 q 476 107 436 83 q 539 183 517 131 q 561 319 561 235 l 561 319 l 561 708 l 665 708 l 665 0 l 561 0 l 561 135 l 554 135 q 465 19 521 53 q 342 -14 410 -14 z m 581 829 l 467 829 l 467 972 l 581 972 l 581 829 z m 304 829 l 190 829 l 190 972 l 304 972 l 304 829 z "},"ù":{"ha":783,"x_min":108,"x_max":665,"o":"m 342 -14 l 342 -14 q 219 16 272 -14 q 138 104 167 46 q 108 247 108 163 l 108 247 l 108 708 l 213 708 l 213 269 q 258 128 213 172 q 381 83 304 83 l 381 83 q 476 107 436 83 q 539 183 517 131 q 561 319 561 235 l 561 319 l 561 708 l 665 708 l 665 0 l 561 0 l 561 135 l 554 135 q 465 19 521 53 q 342 -14 410 -14 z m 440 829 l 344 829 l 193 1010 l 324 1010 l 440 829 z "},"ű":{"ha":783,"x_min":108,"x_max":699,"o":"m 342 -14 l 342 -14 q 219 16 272 -14 q 138 104 167 46 q 108 247 108 163 l 108 247 l 108 708 l 213 708 l 213 269 q 258 128 213 172 q 381 83 304 83 l 381 83 q 476 107 436 83 q 539 183 517 131 q 561 319 561 235 l 561 319 l 561 708 l 665 708 l 665 0 l 561 0 l 561 135 l 554 135 q 465 19 521 53 q 342 -14 410 -14 z m 533 829 l 446 829 l 568 1010 l 699 1010 l 533 829 z m 307 829 l 219 829 l 342 1010 l 472 1010 l 307 829 z "},"ū":{"ha":783,"x_min":108,"x_max":665,"o":"m 342 -14 l 342 -14 q 219 16 272 -14 q 138 104 167 46 q 108 247 108 163 l 108 247 l 108 708 l 213 708 l 213 269 q 258 128 213 172 q 381 83 304 83 l 381 83 q 476 107 436 83 q 539 183 517 131 q 561 319 561 235 l 561 319 l 561 708 l 665 708 l 665 0 l 561 0 l 561 135 l 554 135 q 465 19 521 53 q 342 -14 410 -14 z m 564 840 l 208 840 l 208 931 l 564 931 l 564 840 z "},"ų":{"ha":783,"x_min":108,"x_max":665,"o":"m 342 -14 l 342 -14 q 219 16 272 -14 q 138 104 167 46 q 108 247 108 163 l 108 247 l 108 708 l 213 708 l 213 269 q 258 128 213 172 q 381 83 304 83 l 381 83 q 476 107 436 83 q 539 183 517 131 q 561 319 561 235 l 561 319 l 561 708 l 665 708 l 665 0 l 561 0 l 561 135 l 554 135 q 465 19 521 53 q 342 -14 410 -14 z m 665 -292 l 543 -292 q 490 -281 513 -292 q 458 -251 468 -271 q 451 -206 447 -232 q 472 -150 454 -181 l 472 -150 l 593 43 l 665 0 l 519 -240 l 510 -208 l 665 -208 l 665 -292 z "},"ů":{"ha":783,"x_min":108,"x_max":665,"o":"m 342 -14 l 342 -14 q 219 16 272 -14 q 138 104 167 46 q 108 247 108 163 l 108 247 l 108 708 l 213 708 l 213 269 q 258 128 213 172 q 381 83 304 83 l 381 83 q 476 107 436 83 q 539 183 517 131 q 561 319 561 235 l 561 319 l 561 708 l 665 708 l 665 0 l 561 0 l 561 135 l 554 135 q 465 19 521 53 q 342 -14 410 -14 z m 386 803 l 386 803 q 285 838 324 803 q 247 929 247 872 l 247 929 q 285 1021 247 986 q 386 1056 324 1056 l 386 1056 q 487 1021 449 1056 q 525 929 525 986 l 525 929 q 487 838 525 872 q 386 803 449 803 z m 386 865 l 386 865 q 433 882 417 865 q 450 929 450 899 l 450 929 q 433 975 450 958 q 386 992 417 992 l 386 992 q 339 975 356 992 q 322 929 322 958 l 322 929 q 339 882 322 899 q 386 865 356 865 z "},"ũ":{"ha":783,"x_min":108,"x_max":665,"o":"m 342 -14 l 342 -14 q 219 16 272 -14 q 138 104 167 46 q 108 247 108 163 l 108 247 l 108 708 l 213 708 l 213 269 q 258 128 213 172 q 381 83 304 83 l 381 83 q 476 107 436 83 q 539 183 517 131 q 561 319 561 235 l 561 319 l 561 708 l 665 708 l 665 0 l 561 0 l 561 135 l 554 135 q 465 19 521 53 q 342 -14 410 -14 z m 479 822 l 479 822 q 418 837 444 822 q 372 870 392 851 q 335 903 351 889 q 303 918 318 918 l 303 918 q 272 902 285 918 q 249 854 260 886 l 249 854 l 172 854 q 213 961 183 919 q 296 1003 242 1003 l 296 1003 q 355 988 329 1003 q 401 956 381 974 q 440 923 422 938 q 474 908 457 908 l 474 908 q 506 925 493 908 q 529 976 518 942 l 529 976 l 604 976 q 581 890 597 925 q 539 839 564 856 q 479 822 514 822 z "},"v":{"ha":681,"x_min":32,"x_max":649,"o":"m 403 0 l 278 0 l 32 708 l 143 708 l 340 106 l 347 106 l 543 708 l 649 708 l 403 0 z "},"w":{"ha":1058,"x_min":38,"x_max":1021,"o":"m 361 0 l 246 0 l 38 708 l 149 708 l 307 132 l 311 132 l 475 708 l 582 708 l 746 132 l 751 132 l 911 708 l 1021 708 l 811 0 l 689 0 l 526 568 l 521 568 l 361 0 z "},"ẃ":{"ha":1058,"x_min":38,"x_max":1021,"o":"m 361 0 l 246 0 l 38 708 l 149 708 l 307 132 l 311 132 l 475 708 l 582 708 l 746 132 l 751 132 l 911 708 l 1021 708 l 811 0 l 689 0 l 526 568 l 521 568 l 361 0 z m 722 1010 l 571 829 l 475 829 l 592 1010 l 722 1010 z "},"ŵ":{"ha":1058,"x_min":38,"x_max":1021,"o":"m 361 0 l 246 0 l 38 708 l 149 708 l 307 132 l 311 132 l 475 708 l 582 708 l 746 132 l 751 132 l 911 708 l 1021 708 l 811 0 l 689 0 l 526 568 l 521 568 l 361 0 z m 432 829 l 325 829 l 483 1010 l 574 1010 l 733 829 l 626 829 l 499 958 l 560 958 l 432 829 z "},"ẅ":{"ha":1058,"x_min":38,"x_max":1021,"o":"m 361 0 l 246 0 l 38 708 l 149 708 l 307 132 l 311 132 l 475 708 l 582 708 l 746 132 l 751 132 l 911 708 l 1021 708 l 811 0 l 689 0 l 526 568 l 521 568 l 361 0 z m 724 829 l 610 829 l 610 972 l 724 972 l 724 829 z m 447 829 l 333 829 l 333 972 l 447 972 l 447 829 z "},"ẁ":{"ha":1058,"x_min":38,"x_max":1021,"o":"m 361 0 l 246 0 l 38 708 l 149 708 l 307 132 l 311 132 l 475 708 l 582 708 l 746 132 l 751 132 l 911 708 l 1021 708 l 811 0 l 689 0 l 526 568 l 521 568 l 361 0 z m 583 829 l 488 829 l 336 1010 l 467 1010 l 583 829 z "},"x":{"ha":665,"x_min":29,"x_max":635,"o":"m 143 0 l 29 0 l 292 401 l 293 324 l 35 708 l 158 708 l 360 390 l 317 390 l 517 708 l 631 708 l 374 324 l 375 401 l 635 0 l 508 0 l 301 329 l 347 329 l 143 0 z "},"y":{"ha":697,"x_min":0,"x_max":667,"o":"m 146 -290 l 146 -290 q 66 -276 104 -290 q 0 -239 28 -262 l 0 -239 l 46 -157 q 92 -186 65 -175 q 144 -197 118 -197 l 144 -197 q 217 -178 189 -197 q 258 -121 244 -158 l 258 -121 l 319 36 l 329 49 l 563 708 l 667 708 l 350 -146 q 306 -226 332 -194 q 240 -274 279 -258 q 146 -290 201 -290 z m 379 81 l 324 -54 l 22 708 l 133 708 l 379 81 z "},"ý":{"ha":697,"x_min":0,"x_max":667,"o":"m 146 -290 l 146 -290 q 66 -276 104 -290 q 0 -239 28 -262 l 0 -239 l 46 -157 q 92 -186 65 -175 q 144 -197 118 -197 l 144 -197 q 217 -178 189 -197 q 258 -121 244 -158 l 258 -121 l 319 36 l 329 49 l 563 708 l 667 708 l 350 -146 q 306 -226 332 -194 q 240 -274 279 -258 q 146 -290 201 -290 z m 379 81 l 324 -54 l 22 708 l 133 708 l 379 81 z m 542 1010 l 390 829 l 294 829 l 411 1010 l 542 1010 z "},"ŷ":{"ha":697,"x_min":0,"x_max":667,"o":"m 146 -290 l 146 -290 q 66 -276 104 -290 q 0 -239 28 -262 l 0 -239 l 46 -157 q 92 -186 65 -175 q 144 -197 118 -197 l 144 -197 q 217 -178 189 -197 q 258 -121 244 -158 l 258 -121 l 319 36 l 329 49 l 563 708 l 667 708 l 350 -146 q 306 -226 332 -194 q 240 -274 279 -258 q 146 -290 201 -290 z m 379 81 l 324 -54 l 22 708 l 133 708 l 379 81 z m 251 829 l 144 829 l 303 1010 l 393 1010 l 553 829 l 446 829 l 318 958 l 379 958 l 251 829 z "},"ÿ":{"ha":697,"x_min":0,"x_max":667,"o":"m 146 -290 l 146 -290 q 66 -276 104 -290 q 0 -239 28 -262 l 0 -239 l 46 -157 q 92 -186 65 -175 q 144 -197 118 -197 l 144 -197 q 217 -178 189 -197 q 258 -121 244 -158 l 258 -121 l 319 36 l 329 49 l 563 708 l 667 708 l 350 -146 q 306 -226 332 -194 q 240 -274 279 -258 q 146 -290 201 -290 z m 379 81 l 324 -54 l 22 708 l 133 708 l 379 81 z m 543 829 l 429 829 l 429 972 l 543 972 l 543 829 z m 267 829 l 153 829 l 153 972 l 267 972 l 267 829 z "},"ỳ":{"ha":697,"x_min":0,"x_max":667,"o":"m 146 -290 l 146 -290 q 66 -276 104 -290 q 0 -239 28 -262 l 0 -239 l 46 -157 q 92 -186 65 -175 q 144 -197 118 -197 l 144 -197 q 217 -178 189 -197 q 258 -121 244 -158 l 258 -121 l 319 36 l 329 49 l 563 708 l 667 708 l 350 -146 q 306 -226 332 -194 q 240 -274 279 -258 q 146 -290 201 -290 z m 379 81 l 324 -54 l 22 708 l 133 708 l 379 81 z m 403 829 l 307 829 l 156 1010 l 286 1010 l 403 829 z "},"ỹ":{"ha":697,"x_min":0,"x_max":667,"o":"m 146 -290 l 146 -290 q 66 -276 104 -290 q 0 -239 28 -262 l 0 -239 l 46 -157 q 92 -186 65 -175 q 144 -197 118 -197 l 144 -197 q 217 -178 189 -197 q 258 -121 244 -158 l 258 -121 l 319 36 l 329 49 l 563 708 l 667 708 l 350 -146 q 306 -226 332 -194 q 240 -274 279 -258 q 146 -290 201 -290 z m 379 81 l 324 -54 l 22 708 l 133 708 l 379 81 z m 442 822 l 442 822 q 381 837 407 822 q 334 870 354 851 q 297 903 314 889 q 265 918 281 918 l 265 918 q 235 902 247 918 q 211 854 222 886 l 211 854 l 135 854 q 175 961 146 919 q 258 1003 204 1003 l 258 1003 q 317 988 292 1003 q 364 956 343 974 q 402 923 385 938 q 436 908 419 908 l 436 908 q 468 925 456 908 q 492 976 481 942 l 492 976 l 567 976 q 543 890 560 925 q 501 839 526 856 q 442 822 476 822 z "},"z":{"ha":672,"x_min":35,"x_max":632,"o":"m 190 60 l 168 93 l 303 93 l 618 93 l 618 0 l 35 0 l 471 653 l 489 615 l 360 615 l 64 615 l 64 708 l 632 708 l 190 60 z "},"ź":{"ha":672,"x_min":35,"x_max":632,"o":"m 190 60 l 168 93 l 303 93 l 618 93 l 618 0 l 35 0 l 471 653 l 489 615 l 360 615 l 64 615 l 64 708 l 632 708 l 190 60 z m 528 1010 l 376 829 l 281 829 l 397 1010 l 528 1010 z "},"ž":{"ha":672,"x_min":35,"x_max":632,"o":"m 190 60 l 168 93 l 303 93 l 618 93 l 618 0 l 35 0 l 471 653 l 489 615 l 360 615 l 64 615 l 64 708 l 632 708 l 190 60 z m 379 829 l 289 829 l 131 1010 l 238 1010 l 365 881 l 304 881 l 432 1010 l 539 1010 l 379 829 z "},"ż":{"ha":672,"x_min":35,"x_max":632,"o":"m 190 60 l 168 93 l 303 93 l 618 93 l 618 0 l 35 0 l 471 653 l 489 615 l 360 615 l 64 615 l 64 708 l 632 708 l 190 60 z m 392 829 l 278 829 l 278 972 l 392 972 l 392 829 z "},"ª":{"ha":636,"x_min":72,"x_max":571,"o":"m 233 464 l 233 464 q 120 497 168 464 q 72 594 72 531 l 72 594 q 123 706 72 660 q 275 765 174 751 l 275 765 l 411 785 l 411 724 l 274 701 q 195 668 222 693 q 168 607 168 643 l 168 607 q 188 557 168 576 q 251 538 208 538 l 251 538 q 355 574 313 538 q 397 664 397 610 l 397 664 l 397 813 q 372 883 397 861 q 294 906 347 906 l 294 906 q 218 887 244 906 q 179 824 192 868 l 179 824 l 89 824 q 157 939 100 897 q 299 981 214 981 l 299 981 q 439 938 388 981 q 490 808 490 894 l 490 808 l 490 504 l 449 547 l 571 547 l 571 474 l 513 474 q 456 483 482 474 q 416 514 431 493 q 401 567 401 535 l 401 567 l 401 601 l 435 568 l 397 568 q 333 492 375 519 q 233 464 292 464 z "},"º":{"ha":601,"x_min":67,"x_max":535,"o":"m 301 464 l 301 464 q 179 496 232 464 q 97 586 126 528 q 67 721 67 644 l 67 721 q 97 857 67 799 q 179 948 126 915 q 301 981 232 981 l 301 981 q 423 949 371 981 q 505 858 475 917 q 535 721 535 800 l 535 721 q 506 586 535 644 q 424 496 476 528 q 301 464 371 464 z m 301 542 l 301 542 q 403 589 367 542 q 439 721 439 636 l 439 721 q 403 855 439 807 q 301 903 367 903 l 301 903 q 200 855 236 903 q 164 721 164 807 l 164 721 q 200 589 164 636 q 301 542 236 542 z "},"π":{"ha":764,"x_min":28,"x_max":736,"o":"m 736 615 l 28 615 l 28 708 l 736 708 l 736 615 z m 261 0 l 157 0 l 157 667 l 261 667 l 261 0 z m 736 0 l 663 0 q 540 42 578 0 q 503 147 503 83 l 503 147 l 503 667 l 607 667 l 607 43 l 560 90 l 736 90 l 736 0 z "},"⁄":{"ha":306,"x_min":-196,"x_max":500,"o":"m -90 0 l -196 0 l 114 500 l 396 972 l 500 972 l 192 475 l -90 0 z "},"½":{"ha":1249,"x_min":63,"x_max":1201,"o":"m 310 421 l 213 421 l 213 896 l 240 869 l 64 788 l 64 869 l 310 972 l 310 421 z m 464 389 l 63 389 l 63 467 l 464 467 l 464 389 z m 400 0 l 294 0 l 604 500 l 886 972 l 990 972 l 682 475 l 400 0 z m 1201 0 l 792 0 l 976 214 q 1048 301 1022 267 q 1084 360 1074 335 q 1094 410 1094 386 l 1094 410 q 1066 486 1094 458 q 988 514 1038 514 l 988 514 q 912 485 946 514 q 878 396 878 457 l 878 396 l 785 404 q 814 508 785 467 q 890 571 843 550 q 989 592 936 592 l 989 592 q 1136 542 1083 592 q 1189 411 1189 492 l 1189 411 q 1174 340 1189 375 q 1127 263 1160 306 q 1040 158 1094 219 l 1040 158 l 935 39 l 919 78 l 1201 78 l 1201 0 z "},"⅓":{"ha":1282,"x_min":63,"x_max":1222,"o":"m 310 421 l 213 421 l 213 896 l 240 869 l 64 788 l 64 869 l 310 972 l 310 421 z m 464 389 l 63 389 l 63 467 l 464 467 l 464 389 z m 400 0 l 294 0 l 604 500 l 886 972 l 990 972 l 682 475 l 400 0 z m 1013 -8 l 1013 -8 q 892 14 950 -8 q 794 81 835 36 l 794 81 l 849 143 q 923 87 882 104 q 1003 69 964 69 l 1003 69 q 1093 99 1057 69 q 1129 176 1129 129 l 1129 176 q 1095 248 1129 221 q 1001 275 1061 275 l 1001 275 l 910 275 l 1083 529 l 1097 506 l 826 506 l 826 583 l 1161 583 l 1222 583 l 1015 282 l 992 324 l 1028 324 q 1170 282 1118 324 q 1222 164 1222 240 l 1222 164 q 1164 41 1222 90 q 1013 -8 1106 -8 z "},"⅔":{"ha":1292,"x_min":53,"x_max":1232,"o":"m 469 389 l 60 389 l 244 603 q 316 690 290 656 q 352 749 342 724 q 363 799 363 775 l 363 799 q 334 875 363 847 q 256 903 306 903 l 256 903 q 180 874 214 903 q 146 785 146 846 l 146 785 l 53 793 q 82 897 53 856 q 158 960 111 939 q 257 981 204 981 l 257 981 q 404 931 351 981 q 457 800 457 881 l 457 800 q 442 729 457 764 q 395 651 428 694 q 308 547 363 608 l 308 547 l 203 428 l 188 467 l 469 467 l 469 389 z m 410 0 l 304 0 l 614 500 l 896 972 l 1000 972 l 692 475 l 410 0 z m 1022 -8 l 1022 -8 q 902 14 960 -8 q 804 81 844 36 l 804 81 l 858 143 q 933 87 892 104 q 1013 69 974 69 l 1013 69 q 1103 99 1067 69 q 1139 176 1139 129 l 1139 176 q 1105 248 1139 221 q 1011 275 1071 275 l 1011 275 l 919 275 l 1093 529 l 1107 506 l 836 506 l 836 583 l 1171 583 l 1232 583 l 1025 282 l 1001 324 l 1038 324 q 1180 282 1128 324 q 1232 164 1232 240 l 1232 164 q 1174 41 1232 90 q 1022 -8 1115 -8 z "},"¼":{"ha":1215,"x_min":65,"x_max":1176,"o":"m 313 421 l 215 421 l 215 896 l 243 869 l 67 788 l 67 869 l 313 972 l 313 421 z m 467 389 l 65 389 l 65 467 l 467 467 l 467 389 z m 403 0 l 297 0 l 607 500 l 889 972 l 993 972 l 685 475 l 403 0 z m 1176 144 l 690 144 l 908 583 l 1006 583 l 814 206 l 800 219 l 1050 219 l 1176 219 l 1176 144 z m 1100 0 l 1010 0 l 1010 181 l 1010 422 l 1100 422 l 1100 0 z "},"¾":{"ha":1200,"x_min":40,"x_max":1161,"o":"m 258 381 l 258 381 q 138 403 196 381 q 40 469 81 425 l 40 469 l 94 532 q 169 476 128 493 q 249 458 210 458 l 249 458 q 339 488 303 458 q 375 565 375 518 l 375 565 q 341 637 375 610 q 247 664 307 664 l 247 664 l 156 664 l 329 918 l 343 894 l 72 894 l 72 972 l 407 972 l 468 972 l 261 671 l 238 713 l 274 713 q 416 671 364 713 q 468 553 468 629 l 468 553 q 410 430 468 479 q 258 381 351 381 z m 388 0 l 282 0 l 592 500 l 874 972 l 978 972 l 669 475 l 388 0 z m 1161 144 l 675 144 l 893 583 l 990 583 l 799 206 l 785 219 l 1035 219 l 1161 219 l 1161 144 z m 1085 0 l 994 0 l 994 181 l 994 422 l 1085 422 l 1085 0 z "},"⅕":{"ha":1279,"x_min":63,"x_max":1217,"o":"m 310 421 l 213 421 l 213 896 l 240 869 l 64 788 l 64 869 l 310 972 l 310 421 z m 464 389 l 63 389 l 63 467 l 464 467 l 464 389 z m 400 0 l 294 0 l 604 500 l 886 972 l 990 972 l 682 475 l 400 0 z m 994 -8 l 994 -8 q 876 15 935 -8 q 779 81 818 38 l 779 81 l 833 143 q 909 87 865 104 q 992 69 953 69 l 992 69 q 1085 102 1049 69 q 1122 192 1122 135 l 1122 192 q 1091 274 1122 244 q 1011 304 1060 304 l 1011 304 q 949 288 976 304 q 906 238 921 272 l 906 238 l 815 250 l 828 583 l 1208 583 l 1208 506 l 894 506 l 915 539 l 907 311 l 910 308 q 967 358 932 340 q 1046 375 1003 375 l 1046 375 q 1168 327 1119 375 q 1217 197 1217 279 l 1217 197 q 1188 89 1217 135 q 1110 17 1160 43 q 994 -8 1060 -8 z "},"⅖":{"ha":1289,"x_min":53,"x_max":1226,"o":"m 469 389 l 60 389 l 244 603 q 316 690 290 656 q 352 749 342 724 q 363 799 363 775 l 363 799 q 334 875 363 847 q 256 903 306 903 l 256 903 q 180 874 214 903 q 146 785 146 846 l 146 785 l 53 793 q 82 897 53 856 q 158 960 111 939 q 257 981 204 981 l 257 981 q 404 931 351 981 q 457 800 457 881 l 457 800 q 442 729 457 764 q 395 651 428 694 q 308 547 363 608 l 308 547 l 203 428 l 188 467 l 469 467 l 469 389 z m 410 0 l 304 0 l 614 500 l 896 972 l 1000 972 l 692 475 l 410 0 z m 1004 -8 l 1004 -8 q 886 15 944 -8 q 789 81 828 38 l 789 81 l 843 143 q 919 87 875 104 q 1001 69 963 69 l 1001 69 q 1095 102 1058 69 q 1132 192 1132 135 l 1132 192 q 1101 274 1132 244 q 1021 304 1069 304 l 1021 304 q 958 288 986 304 q 915 238 931 272 l 915 238 l 825 250 l 838 583 l 1218 583 l 1218 506 l 904 506 l 925 539 l 917 311 l 919 308 q 977 358 942 340 q 1056 375 1013 375 l 1056 375 q 1178 327 1129 375 q 1226 197 1226 279 l 1226 197 q 1198 89 1226 135 q 1119 17 1169 43 q 1004 -8 1069 -8 z "},"⅗":{"ha":1265,"x_min":38,"x_max":1201,"o":"m 256 381 l 256 381 q 135 403 193 381 q 38 469 78 425 l 38 469 l 92 532 q 166 476 125 493 q 246 458 207 458 l 246 458 q 336 488 300 458 q 372 565 372 518 l 372 565 q 338 637 372 610 q 244 664 304 664 l 244 664 l 153 664 l 326 918 l 340 894 l 69 894 l 69 972 l 404 972 l 465 972 l 258 671 l 235 713 l 271 713 q 413 671 361 713 q 465 553 465 629 l 465 553 q 407 430 465 479 q 256 381 349 381 z m 385 0 l 279 0 l 589 500 l 871 972 l 975 972 l 667 475 l 385 0 z m 979 -8 l 979 -8 q 861 15 919 -8 q 764 81 803 38 l 764 81 l 818 143 q 894 87 850 104 q 976 69 938 69 l 976 69 q 1070 102 1033 69 q 1107 192 1107 135 l 1107 192 q 1076 274 1107 244 q 996 304 1044 304 l 996 304 q 933 288 961 304 q 890 238 906 272 l 890 238 l 800 250 l 813 583 l 1193 583 l 1193 506 l 879 506 l 900 539 l 892 311 l 894 308 q 952 358 917 340 q 1031 375 988 375 l 1031 375 q 1153 327 1104 375 q 1201 197 1201 279 l 1201 197 q 1173 89 1201 135 q 1094 17 1144 43 q 979 -8 1044 -8 z "},"⅘":{"ha":1315,"x_min":35,"x_max":1244,"o":"m 521 533 l 35 533 l 253 972 l 350 972 l 158 594 l 144 608 l 394 608 l 521 608 l 521 533 z m 444 389 l 354 389 l 354 569 l 354 811 l 444 811 l 444 389 z m 428 0 l 322 0 l 632 500 l 914 972 l 1018 972 l 710 475 l 428 0 z m 1022 -8 l 1022 -8 q 904 15 963 -8 q 807 81 846 38 l 807 81 l 861 143 q 937 87 893 104 q 1019 69 981 69 l 1019 69 q 1113 102 1076 69 q 1150 192 1150 135 l 1150 192 q 1119 274 1150 244 q 1039 304 1088 304 l 1039 304 q 976 288 1004 304 q 933 238 949 272 l 933 238 l 843 250 l 856 583 l 1236 583 l 1236 506 l 922 506 l 943 539 l 935 311 l 938 308 q 995 358 960 340 q 1074 375 1031 375 l 1074 375 q 1196 327 1147 375 q 1244 197 1244 279 l 1244 197 q 1216 89 1244 135 q 1138 17 1188 43 q 1022 -8 1088 -8 z "},"⅙":{"ha":1276,"x_min":63,"x_max":1224,"o":"m 310 421 l 213 421 l 213 896 l 240 869 l 64 788 l 64 869 l 310 972 l 310 421 z m 464 389 l 63 389 l 63 467 l 464 467 l 464 389 z m 400 0 l 294 0 l 604 500 l 886 972 l 990 972 l 682 475 l 400 0 z m 1018 -8 l 1018 -8 q 851 67 910 -8 q 792 286 792 142 l 792 286 q 821 447 792 378 q 906 553 850 515 q 1044 592 963 592 l 1044 592 q 1141 574 1097 592 q 1214 524 1185 556 l 1214 524 l 1151 472 q 1103 503 1131 493 q 1044 514 1075 514 l 1044 514 q 926 455 968 514 q 883 288 883 396 l 883 288 q 883 281 883 285 q 883 275 883 278 l 883 275 l 885 275 q 948 351 904 324 q 1046 379 992 379 l 1046 379 q 1138 356 1099 379 q 1201 290 1178 332 q 1224 190 1224 247 l 1224 190 q 1198 86 1224 131 q 1126 17 1172 42 q 1018 -8 1081 -8 z m 1018 65 l 1018 65 q 1102 99 1072 65 q 1132 188 1132 132 l 1132 188 q 1101 278 1132 244 q 1017 311 1071 311 l 1017 311 q 931 278 963 311 q 900 188 900 244 l 900 188 q 932 98 900 131 q 1018 65 964 65 z "},"⅚":{"ha":1272,"x_min":42,"x_max":1219,"o":"m 257 381 l 257 381 q 139 403 197 381 q 42 469 81 426 l 42 469 l 96 532 q 172 476 128 493 q 254 458 215 458 l 254 458 q 348 491 311 458 q 385 581 385 524 l 385 581 q 353 663 385 633 q 274 693 322 693 l 274 693 q 211 677 239 693 q 168 626 183 661 l 168 626 l 78 639 l 90 972 l 471 972 l 471 894 l 157 894 l 178 928 l 169 700 l 172 697 q 230 747 194 729 q 308 764 265 764 l 308 764 q 431 715 382 764 q 479 586 479 667 l 479 586 q 451 478 479 524 q 372 406 422 432 q 257 381 322 381 z m 396 0 l 290 0 l 600 500 l 882 972 l 986 972 l 678 475 l 396 0 z m 1014 -8 l 1014 -8 q 847 67 906 -8 q 788 286 788 142 l 788 286 q 817 447 788 378 q 902 553 846 515 q 1040 592 958 592 l 1040 592 q 1137 574 1093 592 q 1210 524 1181 556 l 1210 524 l 1147 472 q 1099 503 1126 493 q 1040 514 1071 514 l 1040 514 q 922 455 964 514 q 879 288 879 396 l 879 288 q 879 281 879 285 q 879 275 879 278 l 879 275 l 881 275 q 944 351 900 324 q 1042 379 988 379 l 1042 379 q 1134 356 1094 379 q 1197 290 1174 332 q 1219 190 1219 247 l 1219 190 q 1194 86 1219 131 q 1122 17 1168 42 q 1014 -8 1076 -8 z m 1014 65 l 1014 65 q 1098 99 1068 65 q 1128 188 1128 132 l 1128 188 q 1097 278 1128 244 q 1013 311 1067 311 l 1013 311 q 927 278 958 311 q 896 188 896 244 l 896 188 q 928 98 896 131 q 1014 65 960 65 z "},"⅛":{"ha":1281,"x_min":63,"x_max":1233,"o":"m 310 421 l 213 421 l 213 896 l 240 869 l 64 788 l 64 869 l 310 972 l 310 421 z m 464 389 l 63 389 l 63 467 l 464 467 l 464 389 z m 400 0 l 294 0 l 604 500 l 886 972 l 990 972 l 682 475 l 400 0 z m 1014 -8 l 1014 -8 q 856 37 915 -8 q 797 154 797 82 l 797 154 q 830 249 797 210 q 919 303 863 289 l 919 303 l 919 304 q 845 355 872 319 q 818 440 818 390 l 818 440 q 872 551 818 510 q 1014 592 925 592 l 1014 592 q 1156 551 1103 592 q 1210 440 1210 510 l 1210 440 q 1183 355 1210 390 q 1110 304 1157 319 l 1110 304 l 1110 303 q 1201 249 1168 289 q 1233 154 1233 208 l 1233 154 q 1174 37 1233 82 q 1014 -8 1114 -8 z m 1015 68 l 1015 68 q 1103 94 1071 68 q 1136 168 1136 121 l 1136 168 q 1103 242 1136 215 q 1015 268 1071 268 l 1015 268 q 926 242 958 268 q 893 168 893 215 l 893 168 q 926 94 893 121 q 1015 68 960 68 z m 1015 333 l 1015 333 q 1091 358 1064 333 q 1118 426 1118 383 l 1118 426 q 1091 493 1118 469 q 1015 517 1064 517 l 1015 517 q 939 492 967 517 q 911 426 911 468 l 911 426 q 939 358 911 383 q 1015 333 967 333 z "},"⅜":{"ha":1265,"x_min":38,"x_max":1218,"o":"m 256 381 l 256 381 q 135 403 193 381 q 38 469 78 425 l 38 469 l 92 532 q 166 476 125 493 q 246 458 207 458 l 246 458 q 336 488 300 458 q 372 565 372 518 l 372 565 q 338 637 372 610 q 244 664 304 664 l 244 664 l 153 664 l 326 918 l 340 894 l 69 894 l 69 972 l 404 972 l 465 972 l 258 671 l 235 713 l 271 713 q 413 671 361 713 q 465 553 465 629 l 465 553 q 407 430 465 479 q 256 381 349 381 z m 385 0 l 279 0 l 589 500 l 871 972 l 975 972 l 667 475 l 385 0 z m 999 -8 l 999 -8 q 841 37 900 -8 q 782 154 782 82 l 782 154 q 815 249 782 210 q 904 303 847 289 l 904 303 l 904 304 q 830 355 857 319 q 803 440 803 390 l 803 440 q 856 551 803 510 q 999 592 910 592 l 999 592 q 1141 551 1088 592 q 1194 440 1194 510 l 1194 440 q 1168 355 1194 390 q 1094 304 1142 319 l 1094 304 l 1094 303 q 1185 249 1153 289 q 1218 154 1218 208 l 1218 154 q 1158 37 1218 82 q 999 -8 1099 -8 z m 1000 68 l 1000 68 q 1088 94 1056 68 q 1121 168 1121 121 l 1121 168 q 1088 242 1121 215 q 1000 268 1056 268 l 1000 268 q 910 242 943 268 q 878 168 878 215 l 878 168 q 911 94 878 121 q 1000 68 944 68 z m 1000 333 l 1000 333 q 1076 358 1049 333 q 1103 426 1103 383 l 1103 426 q 1076 493 1103 469 q 1000 517 1049 517 l 1000 517 q 924 492 951 517 q 896 426 896 468 l 896 426 q 924 358 896 383 q 1000 333 951 333 z "},"⅝":{"ha":1276,"x_min":42,"x_max":1229,"o":"m 257 381 l 257 381 q 139 403 197 381 q 42 469 81 426 l 42 469 l 96 532 q 172 476 128 493 q 254 458 215 458 l 254 458 q 348 491 311 458 q 385 581 385 524 l 385 581 q 353 663 385 633 q 274 693 322 693 l 274 693 q 211 677 239 693 q 168 626 183 661 l 168 626 l 78 639 l 90 972 l 471 972 l 471 894 l 157 894 l 178 928 l 169 700 l 172 697 q 230 747 194 729 q 308 764 265 764 l 308 764 q 431 715 382 764 q 479 586 479 667 l 479 586 q 451 478 479 524 q 372 406 422 432 q 257 381 322 381 z m 396 0 l 290 0 l 600 500 l 882 972 l 986 972 l 678 475 l 396 0 z m 1010 -8 l 1010 -8 q 852 37 911 -8 q 793 154 793 82 l 793 154 q 826 249 793 210 q 915 303 858 289 l 915 303 l 915 304 q 841 355 868 319 q 814 440 814 390 l 814 440 q 867 551 814 510 q 1010 592 921 592 l 1010 592 q 1152 551 1099 592 q 1206 440 1206 510 l 1206 440 q 1179 355 1206 390 q 1106 304 1153 319 l 1106 304 l 1106 303 q 1197 249 1164 289 q 1229 154 1229 208 l 1229 154 q 1169 37 1229 82 q 1010 -8 1110 -8 z m 1011 68 l 1011 68 q 1099 94 1067 68 q 1132 168 1132 121 l 1132 168 q 1099 242 1132 215 q 1011 268 1067 268 l 1011 268 q 922 242 954 268 q 889 168 889 215 l 889 168 q 922 94 889 121 q 1011 68 956 68 z m 1011 333 l 1011 333 q 1087 358 1060 333 q 1114 426 1114 383 l 1114 426 q 1087 493 1114 469 q 1011 517 1060 517 l 1011 517 q 935 492 963 517 q 907 426 907 468 l 907 426 q 935 358 907 383 q 1011 333 963 333 z "},"⅞":{"ha":1124,"x_min":42,"x_max":1078,"o":"m 206 389 l 100 389 l 340 911 l 343 894 l 265 894 l 42 894 l 42 972 l 461 972 l 206 389 z m 244 0 l 139 0 l 449 500 l 731 972 l 835 972 l 526 475 l 244 0 z m 858 -8 l 858 -8 q 701 37 760 -8 q 642 154 642 82 l 642 154 q 674 249 642 210 q 764 303 707 289 l 764 303 l 764 304 q 690 355 717 319 q 663 440 663 390 l 663 440 q 716 551 663 510 q 858 592 769 592 l 858 592 q 1001 551 947 592 q 1054 440 1054 510 l 1054 440 q 1028 355 1054 390 q 954 304 1001 319 l 954 304 l 954 303 q 1045 249 1013 289 q 1078 154 1078 208 l 1078 154 q 1018 37 1078 82 q 858 -8 958 -8 z m 860 68 l 860 68 q 948 94 915 68 q 981 168 981 121 l 981 168 q 948 242 981 215 q 860 268 915 268 l 860 268 q 770 242 803 268 q 738 168 738 215 l 738 168 q 771 94 738 121 q 860 68 804 68 z m 860 333 l 860 333 q 935 358 908 333 q 963 426 963 383 l 963 426 q 935 493 963 469 q 860 517 908 517 l 860 517 q 783 492 811 517 q 756 426 756 468 l 756 426 q 783 358 756 383 q 860 333 811 333 z "},"₀":{"ha":554,"x_min":49,"x_max":504,"o":"m 276 -258 l 276 -258 q 155 -222 206 -258 q 76 -117 104 -185 q 49 42 49 -50 l 49 42 q 76 202 49 135 q 156 306 104 269 q 276 342 207 342 l 276 342 q 399 305 347 342 q 477 201 450 268 q 504 42 504 135 l 504 42 q 477 -117 504 -50 q 399 -222 450 -185 q 276 -258 347 -258 z m 276 -181 l 276 -181 q 374 -124 340 -181 q 408 42 408 -68 l 408 42 q 374 208 408 151 q 276 264 340 264 l 276 264 q 178 208 213 264 q 144 42 144 151 l 144 42 q 178 -124 144 -68 q 276 -181 213 -181 z m 458 96 l 118 -67 l 92 -14 l 436 151 l 458 96 z "},"₁":{"ha":467,"x_min":46,"x_max":447,"o":"m 293 -218 l 196 -218 l 196 257 l 224 231 l 47 149 l 47 231 l 293 333 l 293 -218 z m 447 -250 l 46 -250 l 46 -172 l 447 -172 l 447 -250 z "},"₂":{"ha":490,"x_min":32,"x_max":449,"o":"m 449 -250 l 39 -250 l 224 -36 q 295 51 269 17 q 331 110 321 85 q 342 160 342 136 l 342 160 q 313 236 342 208 q 235 264 285 264 l 235 264 q 159 235 193 264 q 125 146 125 207 l 125 146 l 32 154 q 61 258 32 217 q 137 321 90 300 q 236 342 183 342 l 236 342 q 383 292 331 342 q 436 161 436 242 l 436 161 q 422 90 436 125 q 374 13 407 56 q 288 -92 342 -31 l 288 -92 l 182 -211 l 167 -172 l 449 -172 l 449 -250 z "},"₃":{"ha":492,"x_min":24,"x_max":451,"o":"m 242 -258 l 242 -258 q 122 -236 179 -258 q 24 -169 64 -214 l 24 -169 l 78 -107 q 152 -163 111 -146 q 232 -181 193 -181 l 232 -181 q 322 -151 286 -181 q 358 -74 358 -121 l 358 -74 q 324 -2 358 -29 q 231 25 290 25 l 231 25 l 139 25 l 313 279 l 326 256 l 56 256 l 56 333 l 390 333 l 451 333 l 244 32 l 221 74 l 257 74 q 399 32 347 74 q 451 -86 451 -10 l 451 -86 q 393 -209 451 -160 q 242 -258 335 -258 z "},"₄":{"ha":535,"x_min":22,"x_max":508,"o":"m 508 -106 l 22 -106 l 240 333 l 338 333 l 146 -44 l 132 -31 l 382 -31 l 508 -31 l 508 -106 z m 432 -250 l 342 -250 l 342 -69 l 342 172 l 432 172 l 432 -250 z "},"₅":{"ha":515,"x_min":32,"x_max":469,"o":"m 247 -258 l 247 -258 q 129 -235 188 -258 q 32 -169 71 -212 l 32 -169 l 86 -107 q 162 -163 118 -146 q 244 -181 206 -181 l 244 -181 q 338 -148 301 -181 q 375 -58 375 -115 l 375 -58 q 344 24 375 -6 q 264 54 313 54 l 264 54 q 201 38 229 54 q 158 -12 174 22 l 158 -12 l 68 0 l 81 333 l 461 333 l 461 256 l 147 256 l 168 289 l 160 61 l 163 58 q 220 108 185 90 q 299 125 256 125 l 299 125 q 421 76 372 125 q 469 -53 469 28 l 469 -53 q 441 -161 469 -115 q 363 -233 413 -207 q 247 -258 313 -258 z "},"₆":{"ha":524,"x_min":49,"x_max":481,"o":"m 275 -258 l 275 -258 q 108 -183 167 -258 q 49 36 49 -108 l 49 36 q 78 197 49 128 q 163 303 107 265 q 301 342 219 342 l 301 342 q 398 324 354 342 q 471 274 442 306 l 471 274 l 408 222 q 360 253 388 243 q 301 264 332 264 l 301 264 q 183 204 225 264 q 140 38 140 144 l 140 38 q 140 31 140 35 q 140 25 140 28 l 140 25 l 142 25 q 205 101 161 74 q 303 129 249 129 l 303 129 q 394 106 354 129 q 458 40 435 82 q 481 -60 481 -3 l 481 -60 q 455 -164 481 -119 q 383 -233 429 -208 q 275 -258 338 -258 z m 275 -185 l 275 -185 q 359 -151 329 -185 q 389 -62 389 -118 l 389 -62 q 358 28 389 -6 q 274 61 328 61 l 274 61 q 189 28 221 61 q 157 -62 157 -6 l 157 -62 q 189 -152 157 -119 q 275 -185 221 -185 z "},"₇":{"ha":460,"x_min":26,"x_max":446,"o":"m 190 -250 l 85 -250 l 325 272 l 328 256 l 250 256 l 26 256 l 26 333 l 446 333 l 190 -250 z "},"₈":{"ha":528,"x_min":46,"x_max":482,"o":"m 263 -258 l 263 -258 q 105 -213 164 -258 q 46 -96 46 -168 l 46 -96 q 78 -1 46 -40 q 168 53 111 39 l 168 53 l 168 54 q 94 105 121 69 q 67 190 67 140 l 67 190 q 120 301 67 260 q 263 342 174 342 l 263 342 q 405 301 351 342 q 458 190 458 260 l 458 190 q 432 105 458 140 q 358 54 406 69 l 358 54 l 358 53 q 449 -1 417 39 q 482 -96 482 -42 l 482 -96 q 422 -213 482 -168 q 263 -258 363 -258 z m 264 -182 l 264 -182 q 352 -156 319 -182 q 385 -82 385 -129 l 385 -82 q 352 -8 385 -35 q 264 18 319 18 l 264 18 q 175 -8 208 18 q 142 -82 142 -35 l 142 -82 q 175 -156 142 -129 q 264 -182 208 -182 z m 264 83 l 264 83 q 340 108 313 83 q 367 176 367 133 l 367 176 q 340 243 367 219 q 264 267 313 267 l 264 267 q 188 242 215 267 q 160 176 160 218 l 160 176 q 188 108 160 133 q 264 83 215 83 z "},"₉":{"ha":525,"x_min":43,"x_max":475,"o":"m 222 -258 l 222 -258 q 126 -240 169 -258 q 53 -190 82 -222 l 53 -190 l 115 -139 q 164 -170 136 -160 q 222 -181 192 -181 l 222 -181 q 342 -121 300 -181 q 383 46 383 -61 l 383 46 q 383 52 383 49 q 383 58 383 56 l 383 58 l 382 58 q 319 -18 364 10 q 221 -46 275 -46 l 221 -46 q 129 -22 169 -46 q 66 44 89 1 q 43 143 43 88 l 43 143 q 69 247 43 203 q 141 317 94 292 q 249 342 188 342 l 249 342 q 415 267 356 342 q 475 47 475 193 l 475 47 q 446 -112 475 -43 q 360 -220 417 -182 q 222 -258 304 -258 z m 249 22 l 249 22 q 335 56 303 22 q 367 146 367 89 l 367 146 q 335 235 367 203 q 247 268 304 268 l 247 268 q 165 235 194 268 q 135 146 135 203 l 135 146 q 165 56 135 89 q 249 22 196 22 z "},"⁰":{"ha":556,"x_min":50,"x_max":506,"o":"m 278 381 l 278 381 q 156 417 207 381 q 78 522 106 454 q 50 681 50 589 l 50 681 q 78 840 50 774 q 156 944 106 907 q 278 981 207 981 l 278 981 q 400 944 349 981 q 478 840 451 907 q 506 681 506 774 l 506 681 q 478 522 506 589 q 400 417 451 454 q 278 381 349 381 z m 278 458 l 278 458 q 376 515 342 458 q 410 681 410 571 l 410 681 q 376 847 410 790 q 278 903 342 903 l 278 903 q 180 847 214 903 q 146 681 146 790 l 146 681 q 180 515 146 571 q 278 458 214 458 z m 460 735 l 119 572 l 93 625 l 438 790 l 460 735 z "},"¹":{"ha":467,"x_min":46,"x_max":447,"o":"m 293 421 l 196 421 l 196 896 l 224 869 l 47 788 l 47 869 l 293 972 l 293 421 z m 447 389 l 46 389 l 46 467 l 447 467 l 447 389 z "},"²":{"ha":490,"x_min":32,"x_max":449,"o":"m 449 389 l 39 389 l 224 603 q 295 690 269 656 q 331 749 321 724 q 342 799 342 775 l 342 799 q 313 875 342 847 q 235 903 285 903 l 235 903 q 159 874 193 903 q 125 785 125 846 l 125 785 l 32 793 q 61 897 32 856 q 137 960 90 939 q 236 981 183 981 l 236 981 q 383 931 331 981 q 436 800 436 881 l 436 800 q 422 729 436 764 q 374 651 407 694 q 288 547 342 608 l 288 547 l 182 428 l 167 467 l 449 467 l 449 389 z "},"³":{"ha":492,"x_min":24,"x_max":451,"o":"m 242 381 l 242 381 q 122 403 179 381 q 24 469 64 425 l 24 469 l 78 532 q 152 476 111 493 q 232 458 193 458 l 232 458 q 322 488 286 458 q 358 565 358 518 l 358 565 q 324 637 358 610 q 231 664 290 664 l 231 664 l 139 664 l 313 918 l 326 894 l 56 894 l 56 972 l 390 972 l 451 972 l 244 671 l 221 713 l 257 713 q 399 671 347 713 q 451 553 451 629 l 451 553 q 393 430 451 479 q 242 381 335 381 z "},"⁴":{"ha":535,"x_min":22,"x_max":508,"o":"m 508 533 l 22 533 l 240 972 l 338 972 l 146 594 l 132 608 l 382 608 l 508 608 l 508 533 z m 432 389 l 342 389 l 342 569 l 342 811 l 432 811 l 432 389 z "},"⁵":{"ha":515,"x_min":32,"x_max":469,"o":"m 247 381 l 247 381 q 129 403 188 381 q 32 469 71 426 l 32 469 l 86 532 q 162 476 118 493 q 244 458 206 458 l 244 458 q 338 491 301 458 q 375 581 375 524 l 375 581 q 344 663 375 633 q 264 693 313 693 l 264 693 q 201 677 229 693 q 158 626 174 661 l 158 626 l 68 639 l 81 972 l 461 972 l 461 894 l 147 894 l 168 928 l 160 700 l 163 697 q 220 747 185 729 q 299 764 256 764 l 299 764 q 421 715 372 764 q 469 586 469 667 l 469 586 q 441 478 469 524 q 363 406 413 432 q 247 381 313 381 z "},"⁶":{"ha":525,"x_min":50,"x_max":482,"o":"m 276 381 l 276 381 q 109 456 168 381 q 50 675 50 531 l 50 675 q 79 835 50 767 q 165 942 108 904 q 303 981 221 981 l 303 981 q 399 963 356 981 q 472 913 443 944 l 472 913 l 410 861 q 361 892 389 882 q 303 903 333 903 l 303 903 q 184 843 226 903 q 142 676 142 783 l 142 676 q 142 670 142 674 q 142 664 142 667 l 142 664 l 143 664 q 206 740 163 713 q 304 768 250 768 l 304 768 q 396 744 356 768 q 459 678 436 721 q 482 579 482 636 l 482 579 q 456 475 482 519 q 385 406 431 431 q 276 381 339 381 z m 276 454 l 276 454 q 360 488 331 454 q 390 576 390 521 l 390 576 q 360 667 390 635 q 275 700 329 700 l 275 700 q 190 667 222 700 q 158 576 158 633 l 158 576 q 190 487 158 519 q 276 454 222 454 z "},"⁷":{"ha":460,"x_min":26,"x_max":446,"o":"m 190 389 l 85 389 l 325 911 l 328 894 l 250 894 l 26 894 l 26 972 l 446 972 l 190 389 z "},"⁸":{"ha":528,"x_min":46,"x_max":482,"o":"m 263 381 l 263 381 q 106 426 165 381 q 46 543 46 471 l 46 543 q 78 638 46 599 q 168 692 111 678 l 168 692 l 168 693 q 94 744 121 708 q 67 829 67 779 l 67 829 q 120 940 67 899 q 263 981 174 981 l 263 981 q 405 940 351 981 q 458 829 458 899 l 458 829 q 432 744 458 779 q 358 693 406 708 l 358 693 l 358 692 q 449 638 417 678 q 482 543 482 597 l 482 543 q 422 426 482 471 q 263 381 363 381 z m 264 457 l 264 457 q 352 483 319 457 q 385 557 385 510 l 385 557 q 353 631 385 604 q 264 657 321 657 l 264 657 q 174 631 207 657 q 142 557 142 604 l 142 557 q 175 483 142 510 q 264 457 208 457 z m 264 722 l 264 722 q 340 747 313 722 q 367 815 367 772 l 367 815 q 340 882 367 858 q 264 906 313 906 l 264 906 q 188 881 215 906 q 160 815 160 857 l 160 815 q 188 747 160 772 q 264 722 215 722 z "},"⁹":{"ha":525,"x_min":43,"x_max":475,"o":"m 222 381 l 222 381 q 126 399 169 381 q 53 449 82 417 l 53 449 l 115 500 q 164 469 136 479 q 222 458 192 458 l 222 458 q 342 518 300 458 q 383 685 383 578 l 383 685 q 383 691 383 688 q 383 697 383 694 l 383 697 l 382 697 q 319 621 364 649 q 221 593 275 593 l 221 593 q 129 617 169 593 q 66 683 89 640 q 43 782 43 726 l 43 782 q 69 886 43 842 q 141 956 94 931 q 249 981 188 981 l 249 981 q 415 906 356 981 q 475 686 475 832 l 475 686 q 446 526 475 596 q 360 419 417 457 q 222 381 304 381 z m 249 661 l 249 661 q 335 694 303 661 q 367 785 367 728 l 367 785 q 335 874 367 842 q 247 907 303 907 l 247 907 q 165 874 194 907 q 135 785 135 842 l 135 785 q 165 694 135 728 q 249 661 194 661 z "}," ":{"ha":331,"x_min":null,"x_max":null,"o":""}," ":{"ha":331,"x_min":null,"x_max":null,"o":""}," ":{"ha":308,"x_min":null,"x_max":null,"o":""}," ":{"ha":174,"x_min":null,"x_max":null,"o":""}," ":{"ha":58,"x_min":null,"x_max":null,"o":""},"​":{"ha":0,"x_min":null,"x_max":null,"o":""}," ":{"ha":833,"x_min":null,"x_max":null,"o":""}," ":{"ha":833,"x_min":null,"x_max":null,"o":""},".":{"ha":308,"x_min":90,"x_max":218,"o":"m 218 0 l 90 0 l 90 128 l 218 128 l 218 0 z "},",":{"ha":318,"x_min":81,"x_max":222,"o":"m 119 -161 l 81 -161 l 81 -107 l 163 -107 l 163 47 l 201 0 l 94 0 l 94 128 l 222 128 l 222 -58 q 217 -108 222 -89 q 199 -140 211 -128 q 167 -156 188 -151 q 119 -161 147 -161 l 119 -161 z "},":":{"ha":319,"x_min":96,"x_max":224,"o":"m 224 0 l 96 0 l 96 128 l 224 128 l 224 0 z m 96 581 l 96 708 l 224 708 l 224 581 l 96 581 z "},";":{"ha":343,"x_min":97,"x_max":239,"o":"m 136 -161 l 97 -161 l 97 -107 l 179 -107 l 179 47 l 218 0 l 111 0 l 111 128 l 239 128 l 239 -58 q 233 -108 239 -89 q 216 -140 228 -128 q 184 -156 204 -151 q 136 -161 164 -161 l 136 -161 z m 111 581 l 111 708 l 239 708 l 239 581 l 111 581 z "},"…":{"ha":851,"x_min":90,"x_max":761,"o":"m 489 0 l 361 0 l 361 128 l 489 128 l 489 0 z m 761 0 l 633 0 l 633 128 l 761 128 l 761 0 z m 218 0 l 90 0 l 90 128 l 218 128 l 218 0 z "},"!":{"ha":336,"x_min":104,"x_max":232,"o":"m 215 324 l 121 324 l 107 972 l 229 972 l 215 324 z m 232 0 l 104 0 l 104 128 l 232 128 l 232 0 z "},"¡":{"ha":322,"x_min":97,"x_max":225,"o":"m 100 -264 l 114 385 l 208 385 l 222 -264 l 100 -264 z m 97 581 l 97 708 l 225 708 l 225 581 l 97 581 z "},"?":{"ha":635,"x_min":32,"x_max":589,"o":"m 343 326 l 236 326 q 253 417 236 379 q 299 485 271 456 q 357 541 326 515 q 415 594 388 567 q 460 653 443 621 q 478 731 478 686 l 478 731 q 437 845 478 801 q 314 889 396 889 l 314 889 q 185 843 225 889 q 143 724 144 797 l 143 724 l 32 738 q 72 869 38 813 q 167 956 106 925 q 314 986 229 986 l 314 986 q 464 953 403 986 q 557 863 525 921 q 589 731 589 806 l 589 731 q 571 633 589 674 q 525 563 553 593 q 466 508 497 533 q 407 458 435 483 q 361 401 379 432 q 343 326 343 369 l 343 326 z m 353 0 l 225 0 l 225 128 l 353 128 l 353 0 z "},"¿":{"ha":625,"x_min":40,"x_max":597,"o":"m 286 382 l 393 382 q 376 291 393 329 q 331 223 358 253 q 272 167 303 193 q 214 115 242 142 q 169 55 186 88 q 151 -22 151 22 l 151 -22 q 192 -137 151 -93 q 315 -181 233 -181 l 315 -181 q 444 -134 404 -181 q 486 -15 485 -87 l 486 -15 l 597 -29 q 558 -160 593 -104 q 463 -247 524 -215 q 315 -278 401 -278 l 315 -278 q 165 -245 226 -278 q 72 -155 104 -212 q 40 -22 40 -97 l 40 -22 q 58 75 40 35 q 104 145 76 115 q 163 200 132 175 q 222 251 194 225 q 268 308 250 276 q 286 382 286 339 l 286 382 z m 276 708 l 404 708 l 404 581 l 276 581 l 276 708 z "},"·":{"ha":317,"x_min":94,"x_max":222,"o":"m 222 325 l 94 325 l 94 453 l 222 453 l 222 325 z "},"•":{"ha":517,"x_min":74,"x_max":443,"o":"m 258 221 l 258 221 q 164 245 206 221 q 98 311 122 269 q 74 404 74 353 l 74 404 l 74 407 q 98 501 74 460 q 164 566 122 542 q 258 590 206 590 l 258 590 q 353 566 311 590 q 419 501 394 542 q 443 407 443 460 l 443 407 l 443 404 q 419 311 443 353 q 353 245 394 269 q 258 221 311 221 z "},"*":{"ha":547,"x_min":60,"x_max":488,"o":"m 211 740 l 60 768 l 85 861 l 239 806 l 225 974 l 321 974 l 307 806 l 463 861 l 488 768 l 339 742 l 450 618 l 372 560 l 275 714 l 178 560 l 100 618 l 211 740 z "},"#":{"ha":924,"x_min":43,"x_max":881,"o":"m 247 0 l 151 0 l 338 972 l 432 972 l 247 0 z m 569 0 l 476 0 l 663 972 l 756 972 l 569 0 z m 817 268 l 43 268 l 43 350 l 817 350 l 817 268 z m 881 631 l 107 631 l 107 713 l 881 713 l 881 631 z "},"/":{"ha":610,"x_min":18,"x_max":589,"o":"m 124 -186 l 18 -186 l 483 1000 l 589 1000 l 124 -186 z "},"\\":{"ha":610,"x_min":21,"x_max":592,"o":"m 126 1000 l 592 -186 l 486 -186 l 21 1000 l 126 1000 z "},"-":{"ha":575,"x_min":78,"x_max":497,"o":"m 497 340 l 78 340 l 78 444 l 497 444 l 497 340 z "},"–":{"ha":717,"x_min":81,"x_max":636,"o":"m 636 346 l 81 346 l 81 443 l 636 443 l 636 346 z "},"—":{"ha":1411,"x_min":81,"x_max":1331,"o":"m 1331 346 l 81 346 l 81 443 l 1331 443 l 1331 346 z "},"_":{"ha":675,"x_min":60,"x_max":615,"o":"m 615 -278 l 60 -278 l 60 -181 l 615 -181 l 615 -278 z "},"(":{"ha":408,"x_min":68,"x_max":396,"o":"m 396 -186 l 292 -186 q 167 1 217 -96 q 93 200 118 97 q 68 407 68 303 l 68 407 q 93 615 68 513 q 167 814 118 717 q 292 1000 217 911 l 292 1000 l 396 1000 q 275 813 325 910 q 199 613 225 715 q 172 407 172 511 l 172 407 q 199 201 172 303 q 275 1 225 99 q 396 -186 325 -96 l 396 -186 z "},")":{"ha":408,"x_min":13,"x_max":340,"o":"m 117 -186 l 117 -186 l 13 -186 q 133 1 83 -96 q 210 201 183 99 q 236 407 236 303 l 236 407 q 210 613 236 511 q 133 813 183 715 q 13 1000 83 910 l 13 1000 l 117 1000 q 242 814 192 911 q 316 615 292 717 q 340 407 340 513 l 340 407 q 316 200 340 303 q 242 1 292 97 q 117 -186 192 -96 z "},"{":{"ha":507,"x_min":47,"x_max":468,"o":"m 468 -187 l 353 -187 q 250 -166 290 -187 q 190 -103 210 -144 q 172 -4 171 -62 l 172 -4 l 183 361 l 47 361 l 47 453 l 183 453 l 172 817 q 190 916 171 875 q 249 978 208 957 q 353 1000 289 1000 l 353 1000 l 468 1000 l 468 918 l 274 918 l 279 582 q 268 492 281 531 q 231 430 256 453 q 169 401 207 407 l 169 401 l 169 408 q 231 381 206 404 q 268 321 256 358 q 279 231 281 283 l 279 231 l 274 -106 l 468 -106 l 468 -187 z "},"}":{"ha":507,"x_min":39,"x_max":460,"o":"m 154 -187 l 154 -187 l 39 -187 l 39 -106 l 233 -106 l 228 231 q 240 321 228 283 q 276 381 251 358 q 338 408 301 404 l 338 408 l 338 401 q 276 430 301 407 q 240 492 251 453 q 228 582 228 531 l 228 582 l 233 918 l 39 918 l 39 1000 l 154 1000 q 258 978 218 1000 q 317 916 299 957 q 335 817 336 875 l 335 817 l 324 453 l 460 453 l 460 361 l 324 361 l 335 -4 q 317 -103 336 -62 q 257 -166 297 -144 q 154 -187 217 -187 z "},"[":{"ha":460,"x_min":122,"x_max":422,"o":"m 422 -187 l 122 -187 l 122 1000 l 422 1000 l 422 918 l 221 918 l 221 -106 l 422 -106 l 422 -187 z "},"]":{"ha":460,"x_min":38,"x_max":338,"o":"m 338 1000 l 338 -187 l 38 -187 l 38 -106 l 239 -106 l 239 918 l 38 918 l 38 1000 l 338 1000 z "},"‚":{"ha":318,"x_min":81,"x_max":222,"o":"m 119 -161 l 81 -161 l 81 -107 l 163 -107 l 163 47 l 201 0 l 94 0 l 94 128 l 222 128 l 222 -58 q 217 -108 222 -89 q 199 -140 211 -128 q 167 -156 188 -151 q 119 -161 147 -161 l 119 -161 z "},"„":{"ha":522,"x_min":81,"x_max":426,"o":"m 324 -161 l 285 -161 l 285 -107 l 367 -107 l 367 47 l 406 0 l 299 0 l 299 128 l 426 128 l 426 -58 q 421 -108 426 -89 q 403 -140 415 -128 q 372 -156 392 -151 q 324 -161 351 -161 l 324 -161 z m 119 -161 l 81 -161 l 81 -107 l 163 -107 l 163 47 l 201 0 l 94 0 l 94 128 l 222 128 l 222 -58 q 217 -108 222 -89 q 199 -140 211 -128 q 167 -156 188 -151 q 119 -161 147 -161 l 119 -161 z "},"“":{"ha":515,"x_min":90,"x_max":436,"o":"m 193 979 l 232 979 l 232 925 l 150 925 l 150 771 l 111 818 l 218 818 l 218 690 l 90 690 l 90 876 q 96 926 90 907 q 113 958 101 946 q 145 974 125 969 q 193 979 165 979 l 193 979 z m 397 979 l 436 979 l 436 925 l 354 925 l 354 771 l 315 818 l 422 818 l 422 690 l 294 690 l 294 876 q 300 926 294 907 q 317 958 306 946 q 349 974 329 969 q 397 979 369 979 l 397 979 z "},"”":{"ha":513,"x_min":85,"x_max":431,"o":"m 328 683 l 289 683 l 289 738 l 371 738 l 371 892 l 410 844 l 303 844 l 303 972 l 431 972 l 431 786 q 425 736 431 756 q 408 705 419 717 q 376 688 396 693 q 328 683 356 683 l 328 683 z m 124 683 l 85 683 l 85 738 l 167 738 l 167 892 l 206 844 l 99 844 l 99 972 l 226 972 l 226 786 q 221 736 226 756 q 203 705 215 717 q 172 688 192 693 q 124 683 151 683 l 124 683 z "},"‘":{"ha":311,"x_min":90,"x_max":232,"o":"m 193 979 l 232 979 l 232 925 l 150 925 l 150 771 l 111 818 l 218 818 l 218 690 l 90 690 l 90 876 q 96 926 90 907 q 113 958 101 946 q 145 974 125 969 q 193 979 165 979 l 193 979 z "},"’":{"ha":308,"x_min":85,"x_max":226,"o":"m 124 683 l 85 683 l 85 738 l 167 738 l 167 892 l 206 844 l 99 844 l 99 972 l 226 972 l 226 786 q 221 736 226 756 q 203 705 215 717 q 172 688 192 693 q 124 683 151 683 l 124 683 z "},"«":{"ha":635,"x_min":47,"x_max":561,"o":"m 561 142 l 456 142 l 306 388 l 456 633 l 561 633 l 411 388 l 561 142 z m 303 142 l 197 142 l 47 388 l 197 633 l 303 633 l 153 388 l 303 142 z "},"»":{"ha":635,"x_min":74,"x_max":588,"o":"m 329 388 l 179 142 l 74 142 l 224 388 l 74 633 l 179 633 l 329 388 z m 588 388 l 438 142 l 332 142 l 482 388 l 332 633 l 438 633 l 588 388 z "},"‹":{"ha":376,"x_min":47,"x_max":303,"o":"m 303 142 l 197 142 l 47 388 l 197 633 l 303 633 l 153 388 l 303 142 z "},"›":{"ha":376,"x_min":74,"x_max":329,"o":"m 329 388 l 179 142 l 74 142 l 224 388 l 74 633 l 179 633 l 329 388 z "},"\"":{"ha":493,"x_min":93,"x_max":400,"o":"m 400 690 l 304 690 l 304 972 l 400 972 l 400 690 z m 189 690 l 93 690 l 93 972 l 189 972 l 189 690 z "},"'":{"ha":282,"x_min":93,"x_max":189,"o":"m 189 690 l 93 690 l 93 972 l 189 972 l 189 690 z "},"ƒ":{"ha":833,"x_min":46,"x_max":768,"o":"m 185 0 l 185 0 l 46 0 l 46 97 l 165 97 q 258 114 221 97 q 315 165 296 131 q 338 253 335 200 l 338 253 l 364 719 q 403 861 369 806 q 496 944 438 917 q 628 972 554 972 l 628 972 l 768 972 l 768 876 l 647 876 q 558 861 594 876 q 501 812 521 846 q 478 719 482 778 l 478 719 l 451 250 q 370 62 444 124 q 185 0 296 0 z m 749 469 l 140 469 l 140 560 l 749 560 l 749 469 z "},"★":{"ha":1019,"x_min":28,"x_max":992,"o":"m 992 593 l 707 382 l 838 -8 l 510 236 l 183 -8 l 313 382 l 28 593 l 382 593 l 508 979 l 636 593 l 992 593 z "},"♥":{"ha":1115,"x_min":82,"x_max":1032,"o":"m 775 938 l 775 938 q 907 903 849 938 q 999 808 965 868 q 1032 668 1032 747 l 1032 668 q 985 485 1032 581 q 835 290 938 389 l 835 290 l 557 28 l 279 290 q 167 420 211 356 q 103 547 124 485 q 82 668 82 610 l 82 668 q 115 807 82 746 q 207 903 149 868 q 339 938 265 938 l 339 938 q 431 919 385 938 q 513 866 476 900 q 568 785 550 832 l 568 785 l 544 785 q 601 866 564 832 q 683 919 638 900 q 775 938 729 938 z "},"♿":{"ha":1226,"x_min":72,"x_max":1154,"o":"m 614 -54 l 614 -54 q 403 -12 501 -54 q 231 104 306 29 q 114 277 156 179 q 72 488 72 375 l 72 488 q 114 698 72 600 q 231 870 156 796 q 403 986 306 944 q 614 1028 501 1028 l 614 1028 q 824 986 726 1028 q 997 870 922 944 q 1113 698 1071 796 q 1154 488 1154 600 l 1154 488 q 1113 277 1154 375 q 997 104 1071 179 q 824 -12 922 29 q 614 -54 726 -54 z m 614 29 l 614 29 q 791 65 708 29 q 936 163 874 100 q 1034 310 999 226 q 1069 488 1069 393 l 1069 488 q 1034 665 1069 582 q 936 810 999 747 q 791 908 874 872 q 614 943 708 943 l 614 943 q 436 908 519 943 q 290 810 353 872 q 191 665 226 747 q 156 488 156 582 l 156 488 q 191 310 156 393 q 290 163 226 226 q 436 65 353 100 q 614 29 519 29 z m 522 193 l 426 193 l 510 497 l 350 522 l 350 622 l 878 622 l 878 522 l 718 497 l 803 193 l 703 193 l 614 403 l 522 193 z m 614 665 l 614 665 q 556 690 581 665 q 532 749 532 714 l 532 749 q 556 804 532 781 q 614 828 581 828 l 614 828 q 672 804 649 828 q 694 749 694 781 l 694 749 q 672 690 694 714 q 614 665 649 665 z "},"✓":{"ha":1389,"x_min":74,"x_max":1315,"o":"m 1315 913 l 471 -6 l 74 435 l 147 499 l 469 139 l 1243 983 l 1315 913 z "},"✕":{"ha":1389,"x_min":185,"x_max":1206,"o":"m 185 47 l 1135 994 l 1206 922 l 258 -25 l 185 47 z m 258 994 l 1206 46 l 1133 -26 l 185 922 l 258 994 z "},"@":{"ha":1250,"x_min":68,"x_max":1176,"o":"m 639 -211 l 639 -211 q 324 -147 451 -211 q 133 47 197 -82 q 68 367 68 176 l 68 367 q 135 677 68 549 q 327 874 201 806 q 629 942 453 942 l 629 942 q 924 876 801 942 q 1111 686 1046 810 q 1176 388 1176 563 l 1176 388 q 1149 222 1176 293 q 1069 112 1121 151 q 947 72 1018 72 l 947 72 q 859 88 897 72 q 797 136 821 104 q 763 214 772 168 l 763 214 l 757 214 q 692 117 735 158 q 575 76 649 76 l 575 76 q 455 112 507 76 q 374 210 403 147 q 346 357 346 274 l 346 357 q 374 503 346 440 q 455 600 403 565 q 576 635 507 635 l 576 635 q 683 599 639 635 q 751 500 728 563 l 751 500 l 757 500 l 757 622 l 849 622 l 849 279 q 874 188 849 222 q 954 153 899 153 l 954 153 q 1054 215 1017 153 q 1092 382 1092 278 l 1092 382 q 1037 640 1092 533 q 879 803 982 746 q 631 860 776 860 l 631 860 q 376 801 482 860 q 215 633 271 743 q 158 367 158 522 l 158 367 q 213 92 158 203 q 373 -74 267 -18 q 638 -129 479 -129 l 638 -129 q 806 -108 728 -129 q 956 -44 883 -87 l 956 -44 l 986 -122 q 828 -187 914 -164 q 639 -211 742 -211 z m 599 160 l 599 160 q 714 212 672 160 q 756 357 756 264 l 756 357 q 714 499 756 447 q 599 550 672 550 l 599 550 q 483 499 525 550 q 440 357 440 447 l 440 357 q 483 212 440 264 q 599 160 525 160 z "},"&":{"ha":1000,"x_min":58,"x_max":979,"o":"m 385 -14 l 385 -14 q 212 17 285 -14 q 99 108 139 49 q 58 249 58 167 l 58 249 q 85 363 58 315 q 157 445 113 411 q 254 505 201 479 q 360 555 307 531 q 457 606 413 579 q 528 669 501 633 q 556 757 556 706 l 556 757 q 517 856 556 818 q 411 893 479 893 l 411 893 q 296 851 338 893 q 254 740 254 810 l 254 740 q 293 618 254 672 q 397 504 332 564 l 397 504 l 851 90 l 979 90 l 979 0 l 861 0 q 799 13 826 0 q 747 47 772 25 l 747 47 l 329 429 q 222 542 263 492 q 164 641 182 593 q 146 740 146 689 l 146 740 q 178 869 146 814 q 269 956 210 925 q 413 986 329 986 l 413 986 q 542 959 489 986 q 624 882 596 932 q 653 763 653 832 l 653 763 q 626 650 653 696 q 557 572 600 604 q 463 514 514 539 q 360 465 411 489 q 265 413 308 442 q 196 346 222 385 q 169 251 169 307 l 169 251 q 227 128 169 174 q 394 83 285 83 l 394 83 q 529 106 471 83 q 628 178 588 129 q 694 306 669 228 q 729 493 719 383 l 729 493 l 836 479 q 799 274 831 365 q 713 119 768 183 q 575 20 657 54 q 385 -14 493 -14 z "},"¶":{"ha":999,"x_min":32,"x_max":875,"o":"m 606 -278 l 501 -278 l 501 331 l 549 283 l 432 283 q 225 321 315 283 q 83 433 135 358 q 32 619 32 508 l 32 619 q 85 815 32 738 q 228 933 138 893 q 432 972 319 972 l 432 972 l 875 972 l 875 -278 l 771 -278 l 771 868 l 606 868 l 606 -278 z "},"§":{"ha":778,"x_min":49,"x_max":729,"o":"m 567 103 l 567 103 l 508 153 q 591 215 561 176 q 621 299 621 253 l 621 299 q 594 379 621 347 q 522 433 567 411 q 423 472 476 454 q 315 510 369 490 q 216 560 261 531 q 144 635 171 590 q 117 749 117 681 l 117 749 q 151 869 117 815 q 247 955 185 924 q 390 986 308 986 l 390 986 q 519 965 461 986 q 621 901 578 943 q 685 794 664 858 l 685 794 l 597 763 q 525 856 575 824 q 393 889 475 889 l 393 889 q 299 872 338 889 q 242 824 261 854 q 222 754 222 794 l 222 754 q 250 673 222 706 q 323 617 278 640 q 422 576 368 594 q 530 538 476 557 q 628 490 583 518 q 701 422 674 463 q 729 322 729 382 l 729 322 q 712 233 729 275 q 658 159 694 192 q 567 103 622 126 z m 388 -292 l 388 -292 q 259 -270 318 -292 q 158 -206 200 -249 q 93 -100 115 -162 l 93 -100 l 181 -68 q 253 -162 204 -129 q 385 -194 303 -194 l 385 -194 q 479 -177 442 -194 q 536 -129 517 -160 q 556 -60 556 -99 l 556 -60 q 528 22 556 -11 q 455 77 500 54 q 356 119 410 100 q 249 157 303 138 q 149 204 194 176 q 76 272 104 232 q 49 372 49 313 l 49 372 q 66 461 49 419 q 119 536 83 503 q 211 592 156 569 l 211 592 l 275 543 q 188 482 219 521 q 157 396 157 443 l 157 396 q 184 315 157 347 q 256 262 211 283 q 356 222 301 240 q 463 184 410 204 q 562 134 517 164 q 634 59 607 104 q 661 -54 661 14 l 661 -54 q 627 -174 661 -121 q 532 -260 593 -228 q 388 -292 471 -292 z "},"©":{"ha":1225,"x_min":64,"x_max":1161,"o":"m 613 -60 l 613 -60 q 399 -17 499 -60 q 224 100 300 25 q 106 274 149 175 q 64 486 64 374 l 64 486 q 106 698 64 599 q 224 872 149 797 q 399 988 300 946 q 613 1031 499 1031 l 613 1031 q 826 988 726 1031 q 1001 872 925 946 q 1119 698 1076 797 q 1161 486 1161 599 l 1161 486 q 1119 274 1161 374 q 1001 100 1076 175 q 826 -17 925 25 q 613 -60 726 -60 z m 613 14 l 613 14 q 798 50 713 14 q 947 150 883 86 q 1047 300 1011 214 q 1082 486 1082 386 l 1082 486 q 1047 672 1082 586 q 947 822 1011 757 q 798 922 883 886 q 613 957 713 957 l 613 957 q 426 922 513 957 q 277 822 340 886 q 178 672 214 757 q 143 486 143 586 l 143 486 q 178 300 143 386 q 277 150 214 214 q 426 50 340 86 q 613 14 513 14 z m 622 186 l 622 186 q 476 222 539 186 q 376 324 413 258 q 340 478 340 390 l 340 478 q 376 632 340 567 q 476 733 413 697 q 622 769 539 769 l 622 769 q 772 731 708 769 q 865 622 836 692 l 865 622 l 760 588 q 708 653 743 631 q 624 676 674 676 l 624 676 q 501 624 544 676 q 457 478 457 572 l 457 478 q 501 331 457 383 q 624 279 544 279 l 624 279 q 711 303 675 279 q 764 375 747 328 l 764 375 l 868 340 q 776 227 840 268 q 622 186 711 186 z "},"®":{"ha":764,"x_min":60,"x_max":704,"o":"m 382 392 l 382 392 q 219 432 293 392 q 103 544 146 472 q 60 710 60 615 l 60 710 q 103 877 60 806 q 219 988 146 949 q 382 1028 293 1028 l 382 1028 q 544 988 471 1028 q 660 877 617 949 q 704 710 704 806 l 704 710 q 660 543 704 615 q 544 431 617 471 q 382 392 471 392 z m 382 444 l 382 444 q 513 477 454 444 q 608 569 572 510 q 643 710 643 629 l 643 710 q 608 849 643 789 q 515 942 574 908 q 382 975 456 975 l 382 975 q 249 942 308 975 q 156 849 190 908 q 121 710 121 789 l 121 710 q 156 569 121 629 q 250 477 190 510 q 382 444 310 444 z m 322 551 l 256 551 l 256 872 l 411 872 q 489 852 461 872 q 517 796 517 832 l 517 796 q 501 751 517 769 q 458 722 486 732 l 458 722 l 458 721 l 467 721 q 506 708 493 721 q 519 669 519 694 l 519 669 l 519 551 l 453 551 l 453 708 l 482 679 l 303 679 l 303 731 l 393 731 q 449 776 449 731 l 449 776 q 435 810 449 800 q 393 819 421 819 l 393 819 l 293 819 l 322 849 l 322 551 z "},"℗":{"ha":1225,"x_min":64,"x_max":1161,"o":"m 613 -60 l 613 -60 q 399 -17 499 -60 q 224 100 300 25 q 106 274 149 175 q 64 486 64 374 l 64 486 q 106 698 64 599 q 224 872 149 797 q 399 988 300 946 q 613 1031 499 1031 l 613 1031 q 826 988 726 1031 q 1001 872 925 946 q 1119 698 1076 797 q 1161 486 1161 599 l 1161 486 q 1119 274 1161 374 q 1001 100 1076 175 q 826 -17 925 25 q 613 -60 726 -60 z m 613 14 l 613 14 q 798 50 713 14 q 947 150 883 86 q 1047 300 1011 214 q 1082 486 1082 386 l 1082 486 q 1047 672 1082 586 q 947 822 1011 757 q 798 922 883 886 q 613 957 713 957 l 613 957 q 426 922 513 957 q 277 822 340 886 q 178 672 214 757 q 143 486 143 586 l 143 486 q 178 300 143 386 q 277 150 214 214 q 426 50 340 86 q 613 14 513 14 z m 667 407 l 481 407 l 481 497 l 658 497 q 739 519 713 497 q 765 579 765 540 l 765 579 q 739 639 765 619 q 658 658 713 658 l 658 658 l 488 658 l 533 703 l 533 194 l 422 194 l 422 749 l 667 749 q 823 705 767 749 q 879 579 879 661 l 879 579 q 822 453 879 499 q 667 407 765 407 l 667 407 z "},"™":{"ha":1019,"x_min":39,"x_max":919,"o":"m 253 535 l 179 535 l 179 946 l 253 946 l 253 535 z m 392 910 l 39 910 l 39 972 l 392 972 l 392 910 z m 707 672 l 686 672 l 813 972 l 919 972 l 919 535 l 846 535 l 846 922 l 856 922 l 693 531 l 531 922 l 540 922 l 540 535 l 474 535 l 474 972 l 582 972 l 707 672 z "},"°":{"ha":592,"x_min":65,"x_max":526,"o":"m 296 529 l 296 529 q 176 558 228 529 q 94 640 124 588 q 65 757 65 692 l 65 757 q 94 876 65 824 q 176 957 124 928 q 296 986 228 986 l 296 986 q 416 957 364 986 q 497 876 468 928 q 526 757 526 824 l 526 757 q 497 640 526 692 q 416 558 468 588 q 296 529 364 529 z m 296 606 l 296 606 q 401 649 361 606 q 442 757 442 693 l 442 757 q 401 867 442 824 q 296 910 361 910 l 296 910 q 189 867 229 910 q 149 757 149 824 l 149 757 q 189 649 149 693 q 296 606 229 606 z "},"⌀":{"ha":1238,"x_min":131,"x_max":1107,"o":"m 618 -14 l 618 -14 q 365 50 475 -14 q 193 227 256 114 q 131 486 131 340 l 131 486 q 193 746 131 633 q 365 922 256 858 q 618 986 475 986 l 618 986 q 871 922 761 986 q 1043 746 981 858 q 1106 486 1106 633 l 1106 486 q 1043 227 1106 340 q 871 50 981 114 q 618 -14 761 -14 z m 618 97 l 618 97 q 809 147 726 97 q 939 285 892 197 q 986 486 986 372 l 986 486 q 939 688 986 600 q 809 825 892 775 q 618 875 726 875 l 618 875 q 427 825 510 875 q 297 688 344 775 q 250 486 250 600 l 250 486 q 297 285 250 372 q 427 147 344 197 q 618 97 510 97 z m 1107 940 l 199 -32 l 131 31 l 1042 1003 l 1107 940 z "},"|":{"ha":342,"x_min":122,"x_max":219,"o":"m 219 -186 l 122 -186 l 122 1000 l 219 1000 l 219 -186 z "},"¦":{"ha":342,"x_min":124,"x_max":221,"o":"m 221 474 l 124 474 l 124 1000 l 221 1000 l 221 474 z m 221 -186 l 124 -186 l 124 342 l 221 342 l 221 -186 z "},"†":{"ha":501,"x_min":44,"x_max":457,"o":"m 290 428 l 213 428 l 213 972 l 290 972 l 290 428 z m 457 726 l 44 726 l 44 803 l 457 803 l 457 726 z "},"ℓ":{"ha":606,"x_min":47,"x_max":564,"o":"m 393 -14 l 393 -14 q 271 13 329 -14 q 175 97 213 39 q 138 250 138 156 l 138 250 l 138 735 q 166 867 138 811 q 245 955 194 924 q 363 986 296 986 l 363 986 q 467 960 422 986 q 538 888 513 935 q 564 778 564 840 l 564 778 q 535 641 564 706 q 445 512 507 576 q 285 379 383 447 q 47 233 186 311 l 47 233 l 47 340 q 220 442 149 394 q 339 531 292 489 q 413 613 386 574 q 451 691 440 651 q 463 772 463 731 l 463 772 q 435 860 463 828 q 361 892 408 892 l 361 892 q 272 849 304 892 q 239 735 239 807 l 239 735 l 239 268 q 266 156 239 196 q 333 99 293 115 q 413 83 374 83 l 413 83 q 470 91 440 83 q 528 117 500 99 l 528 117 l 554 28 q 472 -5 515 4 q 393 -14 428 -14 z "},"‡":{"ha":563,"x_min":75,"x_max":488,"o":"m 321 428 l 243 428 l 243 972 l 321 972 l 321 428 z m 488 557 l 75 557 l 75 629 l 488 629 l 488 557 z m 488 774 l 75 774 l 75 844 l 488 844 l 488 774 z "},"℮":{"ha":1104,"x_min":74,"x_max":1031,"o":"m 565 986 l 565 986 q 750 947 665 986 q 898 838 835 907 q 996 678 961 768 q 1031 485 1031 588 l 1031 485 l 1031 479 l 258 479 l 258 279 q 306 144 258 197 q 426 65 353 90 q 579 39 500 39 l 579 39 q 744 71 668 39 q 875 160 819 103 q 956 296 931 218 l 956 296 l 1018 296 q 928 135 992 206 q 776 26 865 65 q 579 -14 686 -14 l 579 -14 q 387 25 478 -14 q 225 133 296 64 q 114 292 154 201 q 74 485 74 382 l 74 485 q 112 678 74 588 q 218 838 150 768 q 375 947 286 907 q 565 986 464 986 z m 260 693 l 260 532 l 844 532 l 844 688 q 808 825 844 771 q 709 906 772 879 q 565 933 646 933 l 565 933 q 413 907 482 933 q 301 828 343 881 q 260 693 260 775 l 260 693 z "},"№":{"ha":1549,"x_min":133,"x_max":1488,"o":"m 1456 276 l 1051 276 l 1051 364 l 1456 364 l 1456 276 z m 239 0 l 133 0 l 133 972 l 300 972 l 778 251 l 783 251 l 783 972 l 889 972 l 889 0 l 817 0 l 243 864 l 239 864 l 239 0 z m 1254 464 l 1254 464 q 1132 496 1185 464 q 1049 586 1079 528 q 1019 721 1019 644 l 1019 721 q 1049 857 1019 799 q 1132 948 1079 915 q 1254 981 1185 981 l 1254 981 q 1376 949 1324 981 q 1458 858 1428 917 q 1488 721 1488 800 l 1488 721 q 1458 586 1488 644 q 1376 496 1429 528 q 1254 464 1324 464 z m 1254 542 l 1254 542 q 1356 589 1319 542 q 1392 721 1392 636 l 1392 721 q 1356 855 1392 807 q 1254 903 1319 903 l 1254 903 q 1153 855 1189 903 q 1117 721 1117 807 l 1117 721 q 1153 589 1117 636 q 1254 542 1189 542 z "},"¢":{"ha":833,"x_min":110,"x_max":724,"o":"m 486 796 l 382 796 l 382 1000 l 486 1000 l 486 796 z m 486 -36 l 382 -36 l 382 161 l 486 161 l 486 -36 z m 439 114 l 439 114 q 267 160 342 114 q 151 288 193 206 q 110 481 110 371 l 110 481 q 151 674 110 592 q 267 803 193 757 q 439 850 342 850 l 439 850 q 611 803 538 850 q 719 674 685 756 l 719 674 l 619 640 q 550 724 597 696 q 439 753 503 753 l 439 753 q 279 681 338 753 q 221 481 221 608 l 221 481 q 279 283 221 354 q 439 211 338 211 l 439 211 q 555 243 507 211 q 625 336 603 275 l 625 336 l 724 301 q 615 163 690 213 q 439 114 540 114 z "},"¤":{"ha":833,"x_min":79,"x_max":804,"o":"m 439 208 l 439 208 q 297 244 358 208 q 202 342 236 279 q 168 486 168 406 l 168 486 q 202 631 168 568 q 297 729 236 693 q 439 765 358 765 l 439 765 q 584 729 522 765 q 681 631 646 693 q 715 486 715 568 l 715 486 q 681 342 715 406 q 584 244 646 279 q 439 208 522 208 z m 440 300 l 440 300 q 570 351 522 300 q 618 486 618 403 l 618 486 q 570 619 618 568 q 440 671 522 671 l 440 671 q 313 619 360 671 q 265 486 265 568 l 265 486 q 313 351 265 403 q 440 300 360 300 z m 290 267 l 149 126 l 79 193 l 221 336 l 290 267 z m 288 708 l 221 639 l 79 781 l 147 850 l 288 708 z m 804 193 l 735 126 l 596 264 l 664 333 l 804 193 z m 803 781 l 664 640 l 593 708 l 735 850 l 803 781 z "},"$":{"ha":833,"x_min":76,"x_max":742,"o":"m 463 -135 l 363 -135 l 363 76 l 463 76 l 463 -135 z m 417 29 l 417 29 q 260 55 329 29 q 144 130 190 81 q 76 249 97 179 l 76 249 l 182 282 q 264 167 203 207 q 424 128 325 128 l 424 128 q 575 166 518 128 q 632 276 632 204 l 632 276 q 610 351 632 324 q 549 395 588 379 q 464 422 511 411 q 367 441 417 432 q 269 465 317 450 q 184 504 222 479 q 124 571 146 529 q 101 678 101 613 l 101 678 q 141 812 101 756 q 251 899 181 868 q 414 929 321 929 l 414 929 q 606 883 529 929 q 713 746 682 836 l 713 746 l 608 713 q 539 800 589 771 q 414 829 489 829 l 414 829 q 269 794 326 829 q 211 688 211 758 l 211 688 q 233 615 211 642 q 294 572 256 588 q 379 547 332 556 q 476 528 426 538 q 574 505 526 519 q 659 465 621 490 q 719 397 697 439 q 742 290 742 356 l 742 290 q 702 149 742 207 q 590 60 663 90 q 417 29 517 29 z m 463 888 l 363 888 l 363 1093 l 463 1093 l 463 888 z "},"₫":{"ha":833,"x_min":72,"x_max":819,"o":"m 819 799 l 411 799 l 411 874 l 819 874 l 819 799 z m 721 0 l 617 0 l 617 128 l 608 128 q 515 23 575 60 q 368 -14 454 -14 l 368 -14 q 214 32 281 -14 q 110 161 147 78 q 72 354 72 244 l 72 354 q 110 527 72 450 q 214 649 147 604 q 368 694 281 694 l 368 694 q 516 656 454 694 q 610 547 578 618 l 610 547 l 617 547 l 617 972 l 721 972 l 721 0 z m 397 83 l 397 83 q 561 156 503 83 q 619 354 619 228 l 619 354 q 561 529 619 461 q 397 597 503 597 l 397 597 q 240 529 297 597 q 183 354 183 461 l 183 354 q 240 156 183 228 q 397 83 297 83 z m 721 -212 l 101 -212 l 101 -129 l 721 -129 l 721 -212 z "},"€":{"ha":833,"x_min":17,"x_max":796,"o":"m 539 338 l 17 338 l 17 417 l 539 417 l 539 338 z m 539 557 l 17 557 l 17 636 l 539 636 l 539 557 z m 500 -14 l 500 -14 q 305 50 385 -14 q 185 226 225 114 q 144 485 144 339 l 144 485 q 185 744 144 632 q 305 922 225 857 q 500 986 385 986 l 500 986 q 681 931 607 986 q 794 781 754 876 l 794 781 l 696 736 q 622 848 669 808 q 500 888 574 888 l 500 888 q 365 837 418 888 q 286 695 311 786 q 261 485 261 604 l 261 485 q 286 276 261 367 q 365 135 311 186 q 500 85 418 85 l 500 85 q 623 126 575 85 q 697 239 671 167 l 697 239 l 796 194 q 683 42 757 97 q 500 -14 608 -14 z "},"₺":{"ha":833,"x_min":117,"x_max":782,"o":"m 246 0 l 246 0 l 246 972 l 358 972 l 358 64 l 315 114 q 500 147 419 114 q 626 238 581 179 q 672 376 672 297 l 672 376 l 782 376 q 715 179 782 264 q 528 47 649 94 q 246 0 407 0 z m 558 524 l 117 319 l 117 406 l 558 610 l 558 524 z m 558 760 l 117 556 l 117 642 l 558 846 l 558 760 z "},"₽":{"ha":833,"x_min":93,"x_max":797,"o":"m 615 190 l 93 190 l 93 274 l 615 274 l 615 190 z m 493 424 l 93 424 l 93 528 l 486 528 q 624 570 572 528 q 676 700 676 613 l 676 700 q 624 831 676 794 q 486 868 572 868 l 486 868 l 290 868 l 338 925 l 338 0 l 224 0 l 224 972 l 493 972 q 713 908 629 972 q 797 700 797 844 l 797 700 q 759 548 797 610 q 653 455 721 486 q 493 424 585 424 l 493 424 z "},"₹":{"ha":833,"x_min":76,"x_max":764,"o":"m 601 0 l 461 0 l 76 432 l 76 435 l 317 435 q 457 494 408 435 q 506 656 506 554 l 506 656 q 457 811 506 751 q 317 871 408 871 l 317 871 l 76 871 l 76 972 l 764 972 l 764 886 l 499 886 l 499 894 q 563 841 538 876 q 602 758 589 806 q 615 656 615 710 l 615 656 q 577 485 615 557 q 468 373 539 413 q 300 333 397 333 l 300 333 l 233 333 l 246 383 l 601 0 z m 764 610 l 76 610 l 76 690 l 764 690 l 764 610 z "},"£":{"ha":833,"x_min":75,"x_max":738,"o":"m 738 0 l 86 0 l 86 90 q 161 133 125 107 q 221 197 197 160 q 244 279 244 233 l 244 279 q 232 358 244 321 q 202 431 219 394 q 167 507 185 468 q 136 590 149 546 q 124 690 124 635 l 124 690 q 160 845 124 779 q 262 949 196 911 q 419 986 328 986 l 419 986 q 599 934 528 986 q 700 789 671 882 l 700 789 l 600 749 q 534 849 578 814 q 421 885 490 885 l 421 885 q 284 833 332 885 q 236 696 236 781 l 236 696 q 248 610 236 653 q 278 528 260 568 q 314 449 296 488 q 344 372 332 410 q 356 296 356 333 l 356 296 q 338 210 356 256 q 284 128 319 164 q 196 81 249 92 l 196 81 l 197 104 l 738 104 l 738 0 z m 643 357 l 75 357 l 75 439 l 643 439 l 643 357 z "},"¥":{"ha":833,"x_min":31,"x_max":801,"o":"m 472 0 l 361 0 l 361 438 l 31 972 l 157 972 l 439 510 l 394 510 l 674 972 l 801 972 l 472 439 l 472 0 z m 721 199 l 113 199 l 113 278 l 721 278 l 721 199 z m 721 418 l 113 418 l 113 497 l 721 497 l 721 418 z "},"+":{"ha":833,"x_min":131,"x_max":703,"o":"m 467 188 l 367 188 l 367 439 l 131 439 l 131 535 l 367 535 l 367 786 l 467 786 l 467 535 l 703 535 l 703 439 l 467 439 l 467 188 z "},"−":{"ha":833,"x_min":131,"x_max":703,"o":"m 703 439 l 131 439 l 131 535 l 703 535 l 703 439 z "},"×":{"ha":833,"x_min":139,"x_max":694,"o":"m 418 429 l 208 224 l 139 290 l 349 496 l 139 704 l 208 769 l 418 565 l 629 769 l 694 704 l 486 496 l 694 290 l 629 224 l 418 429 z "},"÷":{"ha":833,"x_min":131,"x_max":703,"o":"m 703 439 l 131 439 l 131 535 l 703 535 l 703 439 z m 478 169 l 357 169 l 357 290 l 478 290 l 478 169 z m 357 686 l 357 807 l 478 807 l 478 686 l 357 686 z "},"=":{"ha":833,"x_min":131,"x_max":703,"o":"m 703 296 l 131 296 l 131 389 l 703 389 l 703 296 z m 703 585 l 131 585 l 131 678 l 703 678 l 703 585 z "},"≠":{"ha":833,"x_min":131,"x_max":703,"o":"m 288 135 l 176 135 l 571 846 l 681 846 l 288 135 z m 703 296 l 131 296 l 131 389 l 703 389 l 703 296 z m 703 585 l 131 585 l 131 678 l 703 678 l 703 585 z "},">":{"ha":833,"x_min":128,"x_max":707,"o":"m 707 438 l 128 183 l 128 293 l 628 506 l 628 469 l 128 682 l 128 793 l 707 539 l 707 438 z "},"<":{"ha":833,"x_min":128,"x_max":707,"o":"m 707 293 l 707 183 l 128 438 l 128 539 l 707 793 l 707 682 l 207 469 l 207 506 l 707 293 z "},"≥":{"ha":833,"x_min":129,"x_max":704,"o":"m 704 503 l 129 285 l 129 393 l 606 572 l 606 540 l 129 722 l 129 831 l 704 610 l 704 503 z m 703 118 l 129 118 l 129 210 l 703 210 l 703 118 z "},"≤":{"ha":833,"x_min":129,"x_max":704,"o":"m 704 393 l 704 285 l 129 503 l 129 610 l 704 831 l 704 722 l 228 540 l 228 572 l 704 393 z m 704 210 l 704 118 l 131 118 l 131 210 l 704 210 z "},"±":{"ha":833,"x_min":131,"x_max":703,"o":"m 467 299 l 367 299 l 367 518 l 131 518 l 131 615 l 367 615 l 367 835 l 467 835 l 467 615 l 703 615 l 703 518 l 467 518 l 467 299 z m 703 118 l 131 118 l 131 214 l 703 214 l 703 118 z "},"≈":{"ha":833,"x_min":131,"x_max":704,"o":"m 544 276 l 544 276 q 472 289 503 276 q 413 318 442 301 q 353 347 385 335 q 278 360 321 360 l 278 360 q 238 356 258 360 q 193 341 218 351 q 131 313 168 331 l 131 313 l 131 407 q 212 442 171 429 q 289 454 253 454 l 289 454 q 364 442 332 454 q 424 413 396 429 q 483 383 451 396 q 557 371 515 371 l 557 371 q 621 381 589 371 q 704 418 653 392 l 704 418 l 704 324 q 624 289 665 301 q 544 276 582 276 z m 544 531 l 544 531 q 472 543 503 531 q 413 572 442 556 q 353 601 385 589 q 278 614 321 614 l 278 614 q 238 610 258 614 q 193 595 218 606 q 131 567 168 585 l 131 567 l 131 661 q 212 696 171 683 q 289 708 253 708 l 289 708 q 364 696 332 708 q 424 667 396 683 q 483 638 451 650 q 557 625 515 625 l 557 625 q 621 635 589 625 q 704 672 653 646 l 704 672 l 704 578 q 626 543 667 556 q 544 531 585 531 z "},"~":{"ha":833,"x_min":129,"x_max":706,"o":"m 554 400 l 554 400 q 476 415 514 400 q 405 448 439 429 q 340 481 371 467 q 282 496 310 496 l 282 496 q 240 480 254 496 q 226 432 226 464 l 226 432 l 129 432 q 146 512 129 478 q 196 565 163 546 q 279 583 229 583 l 279 583 q 353 569 317 583 q 424 537 390 556 q 490 504 458 518 q 551 490 522 490 l 551 490 q 594 507 581 490 q 608 557 608 524 l 608 557 l 706 557 q 687 469 706 504 q 635 417 668 433 q 554 400 601 400 z "},"¬":{"ha":833,"x_min":131,"x_max":703,"o":"m 703 188 l 604 188 l 604 439 l 131 439 l 131 535 l 703 535 l 703 188 z "},"^":{"ha":833,"x_min":126,"x_max":707,"o":"m 235 499 l 126 499 l 374 972 l 460 972 l 707 499 l 599 499 l 396 894 l 438 894 l 235 499 z "},"∞":{"ha":1047,"x_min":74,"x_max":974,"o":"m 281 167 l 281 167 q 170 194 217 167 q 99 272 124 221 q 74 393 74 324 l 74 393 q 99 514 74 464 q 170 591 124 564 q 281 618 217 618 l 281 618 q 370 600 329 618 q 453 542 411 582 q 544 435 494 503 l 544 435 l 501 435 q 593 540 553 500 q 674 599 633 581 q 767 618 715 618 l 767 618 q 878 591 832 618 q 949 514 924 564 q 974 393 974 464 l 974 393 q 949 272 974 324 q 878 194 924 221 q 767 167 832 167 l 767 167 q 676 185 717 167 q 594 245 635 204 q 503 351 554 286 l 503 351 l 543 351 q 453 244 494 285 q 372 185 413 204 q 281 167 331 167 z m 285 253 l 285 253 q 381 288 340 253 q 472 393 421 322 l 472 393 q 381 499 421 463 q 285 535 342 535 l 285 535 q 192 497 224 535 q 161 393 161 458 l 161 393 q 192 291 161 329 q 285 253 224 253 z m 763 253 l 763 253 q 855 291 824 253 q 886 393 886 329 l 886 393 q 855 497 886 458 q 763 535 824 535 l 763 535 q 663 497 703 535 q 574 393 622 458 l 574 393 q 663 291 622 329 q 763 253 703 253 z "},"∫":{"ha":585,"x_min":44,"x_max":539,"o":"m 122 -153 l 122 -153 l 44 -153 l 44 -62 l 108 -62 q 183 -37 158 -62 q 213 44 208 -11 l 213 44 l 268 789 q 298 898 274 854 q 364 964 322 942 q 461 986 406 986 l 461 986 l 539 986 l 539 896 l 475 896 q 400 871 425 896 q 371 789 375 846 l 371 789 l 315 44 q 286 -65 311 -21 q 219 -131 261 -108 q 122 -153 178 -153 z "},"Ω":{"ha":1028,"x_min":83,"x_max":946,"o":"m 453 0 l 83 0 l 83 93 l 336 93 l 336 97 q 198 192 254 129 q 113 338 142 254 q 83 515 83 421 l 83 515 q 138 761 83 656 q 289 926 192 867 q 514 986 386 986 l 514 986 q 740 926 643 986 q 892 761 838 867 q 946 515 946 656 l 946 515 q 917 339 946 422 q 830 192 888 256 q 689 97 772 129 l 689 97 l 689 93 l 946 93 l 946 0 l 574 0 l 574 135 q 708 213 649 158 q 801 344 767 267 q 835 511 835 421 l 835 511 q 794 703 835 619 q 682 835 754 788 q 514 882 610 882 l 514 882 q 347 835 419 882 q 235 703 275 788 q 194 511 194 619 l 194 511 q 228 342 194 419 q 321 212 263 265 q 453 135 379 158 l 453 135 l 453 0 z "},"∆":{"ha":1004,"x_min":47,"x_max":957,"o":"m 957 0 l 47 0 l 428 972 l 578 972 l 957 0 z m 513 904 l 193 60 l 169 97 l 836 97 l 813 60 l 493 904 l 513 904 z "},"∏":{"ha":968,"x_min":54,"x_max":914,"o":"m 775 -139 l 664 -139 l 664 917 l 775 917 l 775 -139 z m 304 -139 l 193 -139 l 193 917 l 304 917 l 304 -139 z m 914 868 l 54 868 l 54 972 l 914 972 l 914 868 z "},"∑":{"ha":865,"x_min":53,"x_max":794,"o":"m 794 -139 l 53 -139 l 404 417 l 53 972 l 794 972 l 794 875 l 200 875 l 219 907 l 532 417 l 219 -74 l 200 -42 l 794 -42 l 794 -139 z "},"√":{"ha":933,"x_min":50,"x_max":886,"o":"m 535 -139 l 392 -139 l 208 442 l 50 442 l 50 532 l 292 532 l 478 -62 l 451 -62 l 775 1014 l 886 1014 l 535 -139 z "},"∂":{"ha":836,"x_min":74,"x_max":756,"o":"m 401 -14 l 401 -14 q 228 26 303 -14 q 114 140 154 67 q 74 313 74 214 l 74 313 q 113 482 74 410 q 225 594 153 554 q 393 633 297 633 l 393 633 q 555 599 488 633 q 657 506 622 565 q 685 372 692 447 l 685 372 l 633 515 l 658 515 q 611 717 650 633 q 500 844 572 800 q 318 889 428 889 l 318 889 q 216 878 274 889 q 106 838 158 868 l 106 838 l 106 938 q 217 976 160 965 q 325 986 275 986 l 325 986 q 517 945 436 986 q 651 829 599 904 q 730 651 704 754 q 756 422 756 547 l 756 422 q 715 187 756 285 q 596 38 675 89 q 401 -14 517 -14 z m 406 85 l 406 85 q 533 113 479 85 q 617 191 588 140 q 646 313 646 242 l 646 313 q 617 432 646 382 q 537 509 589 482 q 413 536 485 536 l 413 536 q 239 474 303 536 q 175 306 175 413 l 175 306 q 234 144 175 204 q 406 85 293 85 z "},"µ":{"ha":793,"x_min":118,"x_max":675,"o":"m 351 -14 l 351 -14 q 236 16 282 -14 q 168 104 190 46 q 146 247 146 163 l 146 247 l 146 506 l 222 506 l 222 269 q 268 128 222 172 q 390 83 314 83 l 390 83 q 486 107 446 83 q 549 183 526 131 q 571 319 571 235 l 571 319 l 571 708 l 675 708 l 675 0 l 571 0 l 571 135 l 564 135 q 475 19 531 53 q 351 -14 419 -14 z m 222 -278 l 118 -278 l 118 708 l 222 708 l 222 -278 z "},"%":{"ha":1075,"x_min":42,"x_max":1033,"o":"m 294 0 l 186 0 l 510 522 l 778 972 l 885 972 l 575 469 l 294 0 z m 263 486 l 263 486 q 149 518 199 486 q 70 606 99 550 q 42 736 42 663 l 42 736 q 70 866 42 810 q 149 954 99 922 q 263 986 199 986 l 263 986 q 377 954 328 986 q 454 866 426 922 q 482 736 482 810 l 482 736 q 454 606 482 663 q 377 518 426 550 q 263 486 328 486 z m 263 571 l 263 571 q 356 613 324 571 q 388 736 388 656 l 388 736 q 356 860 388 817 q 263 903 324 903 l 263 903 q 169 860 201 903 q 136 736 136 817 l 136 736 q 169 613 136 656 q 263 571 201 571 z m 814 486 l 814 486 q 928 454 879 486 q 1006 366 978 422 q 1033 236 1033 310 l 1033 236 q 1006 106 1033 163 q 928 18 978 50 q 814 -14 879 -14 l 814 -14 q 700 18 750 -14 q 622 106 650 50 q 593 236 593 163 l 593 236 q 622 366 593 310 q 700 454 650 422 q 814 486 750 486 z m 814 401 l 814 401 q 720 359 753 401 q 688 236 688 317 l 688 236 q 720 113 688 156 q 814 69 753 69 l 814 69 q 907 113 875 69 q 939 236 939 156 l 939 236 q 907 359 939 317 q 814 401 875 401 z "},"‰":{"ha":1575,"x_min":42,"x_max":1538,"o":"m 294 0 l 186 0 l 510 522 l 778 972 l 885 972 l 575 469 l 294 0 z m 263 486 l 263 486 q 149 518 199 486 q 70 606 99 550 q 42 736 42 663 l 42 736 q 70 866 42 810 q 149 954 99 922 q 263 986 199 986 l 263 986 q 377 954 328 986 q 454 866 426 922 q 482 736 482 810 l 482 736 q 454 606 482 663 q 377 518 426 550 q 263 486 328 486 z m 263 571 l 263 571 q 356 613 324 571 q 388 736 388 656 l 388 736 q 356 860 388 817 q 263 903 324 903 l 263 903 q 169 860 201 903 q 136 736 136 817 l 136 736 q 169 613 136 656 q 263 571 201 571 z m 814 -14 l 814 -14 q 700 18 750 -14 q 622 106 650 50 q 593 236 593 163 l 593 236 q 622 366 593 310 q 700 454 650 422 q 814 486 750 486 l 814 486 q 928 454 879 486 q 1006 366 978 422 q 1033 236 1033 310 l 1033 236 q 1006 106 1033 163 q 928 18 978 50 q 814 -14 879 -14 z m 814 69 l 814 69 q 907 113 875 69 q 939 236 939 156 l 939 236 q 907 359 939 317 q 814 401 875 401 l 814 401 q 720 359 753 401 q 688 236 688 317 l 688 236 q 720 113 688 156 q 814 69 753 69 z m 1318 -14 l 1318 -14 q 1204 18 1254 -14 q 1126 106 1154 50 q 1097 236 1097 163 l 1097 236 q 1126 366 1097 310 q 1204 454 1154 422 q 1318 486 1254 486 l 1318 486 q 1433 454 1383 486 q 1510 366 1482 422 q 1538 236 1538 310 l 1538 236 q 1510 106 1538 163 q 1433 18 1482 50 q 1318 -14 1383 -14 z m 1318 69 l 1318 69 q 1411 113 1379 69 q 1443 236 1443 156 l 1443 236 q 1411 359 1443 317 q 1318 401 1379 401 l 1318 401 q 1224 359 1257 401 q 1192 236 1192 317 l 1192 236 q 1224 113 1192 156 q 1318 69 1257 69 z "},"↑":{"ha":950,"x_min":43,"x_max":907,"o":"m 475 1029 l 907 597 l 839 529 l 532 842 l 519 833 l 524 -56 l 426 -56 l 431 832 l 417 839 l 113 528 l 43 597 l 475 1029 z "},"↗":{"ha":961,"x_min":64,"x_max":865,"o":"m 865 881 l 865 269 l 768 269 l 772 707 l 757 710 l 132 79 l 64 147 l 694 772 l 689 786 l 254 782 l 254 881 l 865 881 z "},"→":{"ha":1214,"x_min":65,"x_max":1150,"o":"m 1150 486 l 718 54 l 650 122 l 963 429 l 954 442 l 65 438 l 65 535 l 953 531 l 960 544 l 649 849 l 718 918 l 1150 486 z "},"↘":{"ha":957,"x_min":61,"x_max":863,"o":"m 765 701 l 863 701 l 863 90 l 251 90 l 251 189 l 686 185 l 692 199 l 61 824 l 129 892 l 754 261 l 769 264 l 765 701 z "},"↓":{"ha":944,"x_min":40,"x_max":904,"o":"m 836 442 l 904 374 l 472 -58 l 40 374 l 110 443 l 414 132 l 428 139 l 424 1026 l 521 1026 l 517 138 l 529 129 l 836 442 z "},"↙":{"ha":957,"x_min":94,"x_max":896,"o":"m 94 90 l 94 701 l 192 701 l 188 264 l 203 261 l 828 892 l 896 824 l 265 199 l 271 185 l 706 189 l 706 90 l 94 90 z "},"←":{"ha":1211,"x_min":61,"x_max":1146,"o":"m 561 119 l 493 51 l 61 483 l 493 915 l 563 846 l 251 542 l 258 528 l 1146 532 l 1146 435 l 257 439 l 249 426 l 561 119 z "},"↖":{"ha":960,"x_min":96,"x_max":897,"o":"m 193 260 l 96 260 l 96 871 l 707 871 l 707 772 l 272 776 l 267 763 l 897 138 l 829 69 l 204 700 l 189 697 l 193 260 z "},"●":{"ha":1250,"x_min":113,"x_max":1138,"o":"m 626 -28 l 626 -28 q 426 12 519 -28 q 262 122 332 51 q 152 286 192 193 q 113 485 113 379 l 113 485 q 152 683 113 590 q 262 847 192 776 q 426 958 332 918 q 626 999 519 999 l 626 999 q 824 958 732 999 q 988 847 917 918 q 1098 683 1058 776 q 1138 485 1138 590 l 1138 485 q 1098 286 1138 379 q 988 122 1058 193 q 824 12 917 51 q 626 -28 732 -28 z "},"○":{"ha":1250,"x_min":113,"x_max":1138,"o":"m 626 -28 l 626 -28 q 426 12 519 -28 q 262 122 332 51 q 152 286 192 193 q 113 485 113 379 l 113 485 q 152 683 113 590 q 262 847 192 776 q 426 958 332 918 q 626 999 519 999 l 626 999 q 824 958 732 999 q 988 847 917 918 q 1098 683 1058 776 q 1138 485 1138 590 l 1138 485 q 1098 286 1138 379 q 988 122 1058 193 q 824 12 917 51 q 626 -28 732 -28 z m 626 64 l 626 64 q 790 97 714 64 q 923 188 865 129 q 1013 322 981 246 q 1046 485 1046 397 l 1046 485 q 1013 649 1046 572 q 923 783 981 725 q 790 874 865 842 q 626 907 714 907 l 626 907 q 463 874 539 907 q 328 783 386 842 q 237 649 269 725 q 204 485 204 572 l 204 485 q 237 322 204 397 q 327 188 269 246 q 462 97 385 129 q 626 64 539 64 z "},"◐":{"ha":1250,"x_min":113,"x_max":1138,"o":"m 626 -28 l 626 -28 q 426 12 519 -28 q 262 122 332 51 q 152 286 192 193 q 113 485 113 379 l 113 485 q 152 683 113 590 q 262 847 192 776 q 426 958 332 918 q 626 999 519 999 l 626 999 q 824 958 732 999 q 988 847 917 918 q 1098 683 1058 776 q 1138 485 1138 590 l 1138 485 q 1098 286 1138 379 q 988 122 1058 193 q 824 12 917 51 q 626 -28 732 -28 z m 626 911 l 626 60 q 791 93 714 60 q 926 185 868 126 q 1017 320 985 243 q 1050 485 1050 397 l 1050 485 q 1017 650 1050 572 q 926 786 985 728 q 791 878 868 844 q 626 911 714 911 l 626 911 z "},"◖":{"ha":1250,"x_min":113,"x_max":626,"o":"m 626 999 l 626 -28 q 426 12 519 -28 q 262 122 332 51 q 152 286 192 193 q 113 485 113 379 l 113 485 q 152 683 113 590 q 262 847 192 776 q 426 958 332 918 q 626 999 519 999 l 626 999 z "}}}
